G04 #@! TF.GenerationSoftware,KiCad,Pcbnew,8.0.5*
G04 #@! TF.CreationDate,2024-10-05T22:37:39+02:00*
G04 #@! TF.ProjectId,HVI,4856492e-6b69-4636-9164-5f7063625858,rev?*
G04 #@! TF.SameCoordinates,Original*
G04 #@! TF.FileFunction,Legend,Bot*
G04 #@! TF.FilePolarity,Positive*
%FSLAX46Y46*%
G04 Gerber Fmt 4.6, Leading zero omitted, Abs format (unit mm)*
G04 Created by KiCad (PCBNEW 8.0.5) date 2024-10-05 22:37:39*
%MOMM*%
%LPD*%
G01*
G04 APERTURE LIST*
G04 Aperture macros list*
%AMRoundRect*
0 Rectangle with rounded corners*
0 $1 Rounding radius*
0 $2 $3 $4 $5 $6 $7 $8 $9 X,Y pos of 4 corners*
0 Add a 4 corners polygon primitive as box body*
4,1,4,$2,$3,$4,$5,$6,$7,$8,$9,$2,$3,0*
0 Add four circle primitives for the rounded corners*
1,1,$1+$1,$2,$3*
1,1,$1+$1,$4,$5*
1,1,$1+$1,$6,$7*
1,1,$1+$1,$8,$9*
0 Add four rect primitives between the rounded corners*
20,1,$1+$1,$2,$3,$4,$5,0*
20,1,$1+$1,$4,$5,$6,$7,0*
20,1,$1+$1,$6,$7,$8,$9,0*
20,1,$1+$1,$8,$9,$2,$3,0*%
%AMFreePoly0*
4,1,19,0.550000,-0.750000,0.000000,-0.750000,0.000000,-0.744911,-0.071157,-0.744911,-0.207708,-0.704816,-0.327430,-0.627875,-0.420627,-0.520320,-0.479746,-0.390866,-0.500000,-0.250000,-0.500000,0.250000,-0.479746,0.390866,-0.420627,0.520320,-0.327430,0.627875,-0.207708,0.704816,-0.071157,0.744911,0.000000,0.744911,0.000000,0.750000,0.550000,0.750000,0.550000,-0.750000,0.550000,-0.750000,
$1*%
%AMFreePoly1*
4,1,19,0.000000,0.744911,0.071157,0.744911,0.207708,0.704816,0.327430,0.627875,0.420627,0.520320,0.479746,0.390866,0.500000,0.250000,0.500000,-0.250000,0.479746,-0.390866,0.420627,-0.520320,0.327430,-0.627875,0.207708,-0.704816,0.071157,-0.744911,0.000000,-0.744911,0.000000,-0.750000,-0.550000,-0.750000,-0.550000,0.750000,0.000000,0.750000,0.000000,0.744911,0.000000,0.744911,
$1*%
G04 Aperture macros list end*
%ADD10C,0.150000*%
%ADD11C,0.400000*%
%ADD12C,0.100000*%
%ADD13C,0.000000*%
%ADD14C,0.120000*%
%ADD15C,1.270000*%
%ADD16RoundRect,0.250001X0.499999X0.759999X-0.499999X0.759999X-0.499999X-0.759999X0.499999X-0.759999X0*%
%ADD17O,1.500000X2.020000*%
%ADD18C,3.200000*%
%ADD19C,4.000000*%
%ADD20C,2.000000*%
%ADD21R,2.000000X2.000000*%
%ADD22FreePoly0,270.000000*%
%ADD23R,1.500000X1.000000*%
%ADD24FreePoly1,270.000000*%
%ADD25RoundRect,0.237500X-0.237500X0.287500X-0.237500X-0.287500X0.237500X-0.287500X0.237500X0.287500X0*%
%ADD26RoundRect,0.237500X0.237500X-0.287500X0.237500X0.287500X-0.237500X0.287500X-0.237500X-0.287500X0*%
G04 APERTURE END LIST*
D10*
X86800000Y-97300000D02*
X82800000Y-97300000D01*
X82800000Y-77000000D02*
X117920000Y-77000000D01*
X82800000Y-101300000D02*
X78800000Y-101300000D01*
X82800000Y-77000000D02*
X82800000Y-97300000D01*
X78800000Y-73000000D02*
X78800000Y-101300000D01*
X82800000Y-107920000D02*
X82800000Y-101300000D01*
X87000000Y-107920000D02*
X87000000Y-97300000D01*
X78800000Y-73000000D02*
X117920000Y-73000000D01*
D11*
X92058271Y-106409438D02*
X93010652Y-106409438D01*
X93010652Y-106409438D02*
X93010652Y-104409438D01*
X91677318Y-104409438D02*
X91010652Y-106409438D01*
X91010652Y-106409438D02*
X90343985Y-104409438D01*
D10*
X81386779Y-67124108D02*
X81386779Y-68124108D01*
X81386779Y-68124108D02*
X81624874Y-68124108D01*
X81624874Y-68124108D02*
X81767731Y-68076489D01*
X81767731Y-68076489D02*
X81862969Y-67981251D01*
X81862969Y-67981251D02*
X81910588Y-67886013D01*
X81910588Y-67886013D02*
X81958207Y-67695537D01*
X81958207Y-67695537D02*
X81958207Y-67552680D01*
X81958207Y-67552680D02*
X81910588Y-67362204D01*
X81910588Y-67362204D02*
X81862969Y-67266966D01*
X81862969Y-67266966D02*
X81767731Y-67171728D01*
X81767731Y-67171728D02*
X81624874Y-67124108D01*
X81624874Y-67124108D02*
X81386779Y-67124108D01*
X82529636Y-67124108D02*
X82434398Y-67171728D01*
X82434398Y-67171728D02*
X82386779Y-67219347D01*
X82386779Y-67219347D02*
X82339160Y-67314585D01*
X82339160Y-67314585D02*
X82339160Y-67600299D01*
X82339160Y-67600299D02*
X82386779Y-67695537D01*
X82386779Y-67695537D02*
X82434398Y-67743156D01*
X82434398Y-67743156D02*
X82529636Y-67790775D01*
X82529636Y-67790775D02*
X82672493Y-67790775D01*
X82672493Y-67790775D02*
X82767731Y-67743156D01*
X82767731Y-67743156D02*
X82815350Y-67695537D01*
X82815350Y-67695537D02*
X82862969Y-67600299D01*
X82862969Y-67600299D02*
X82862969Y-67314585D01*
X82862969Y-67314585D02*
X82815350Y-67219347D01*
X82815350Y-67219347D02*
X82767731Y-67171728D01*
X82767731Y-67171728D02*
X82672493Y-67124108D01*
X82672493Y-67124108D02*
X82529636Y-67124108D01*
X84053446Y-67790775D02*
X84053446Y-67124108D01*
X84053446Y-67695537D02*
X84101065Y-67743156D01*
X84101065Y-67743156D02*
X84196303Y-67790775D01*
X84196303Y-67790775D02*
X84339160Y-67790775D01*
X84339160Y-67790775D02*
X84434398Y-67743156D01*
X84434398Y-67743156D02*
X84482017Y-67647918D01*
X84482017Y-67647918D02*
X84482017Y-67124108D01*
X85101065Y-67124108D02*
X85005827Y-67171728D01*
X85005827Y-67171728D02*
X84958208Y-67219347D01*
X84958208Y-67219347D02*
X84910589Y-67314585D01*
X84910589Y-67314585D02*
X84910589Y-67600299D01*
X84910589Y-67600299D02*
X84958208Y-67695537D01*
X84958208Y-67695537D02*
X85005827Y-67743156D01*
X85005827Y-67743156D02*
X85101065Y-67790775D01*
X85101065Y-67790775D02*
X85243922Y-67790775D01*
X85243922Y-67790775D02*
X85339160Y-67743156D01*
X85339160Y-67743156D02*
X85386779Y-67695537D01*
X85386779Y-67695537D02*
X85434398Y-67600299D01*
X85434398Y-67600299D02*
X85434398Y-67314585D01*
X85434398Y-67314585D02*
X85386779Y-67219347D01*
X85386779Y-67219347D02*
X85339160Y-67171728D01*
X85339160Y-67171728D02*
X85243922Y-67124108D01*
X85243922Y-67124108D02*
X85101065Y-67124108D01*
X85720113Y-67790775D02*
X86101065Y-67790775D01*
X85862970Y-68124108D02*
X85862970Y-67266966D01*
X85862970Y-67266966D02*
X85910589Y-67171728D01*
X85910589Y-67171728D02*
X86005827Y-67124108D01*
X86005827Y-67124108D02*
X86101065Y-67124108D01*
X87339161Y-67124108D02*
X87243923Y-67171728D01*
X87243923Y-67171728D02*
X87196304Y-67266966D01*
X87196304Y-67266966D02*
X87196304Y-68124108D01*
X87720114Y-67124108D02*
X87720114Y-67790775D01*
X87720114Y-68124108D02*
X87672495Y-68076489D01*
X87672495Y-68076489D02*
X87720114Y-68028870D01*
X87720114Y-68028870D02*
X87767733Y-68076489D01*
X87767733Y-68076489D02*
X87720114Y-68124108D01*
X87720114Y-68124108D02*
X87720114Y-68028870D01*
X88624875Y-67171728D02*
X88529637Y-67124108D01*
X88529637Y-67124108D02*
X88339161Y-67124108D01*
X88339161Y-67124108D02*
X88243923Y-67171728D01*
X88243923Y-67171728D02*
X88196304Y-67219347D01*
X88196304Y-67219347D02*
X88148685Y-67314585D01*
X88148685Y-67314585D02*
X88148685Y-67600299D01*
X88148685Y-67600299D02*
X88196304Y-67695537D01*
X88196304Y-67695537D02*
X88243923Y-67743156D01*
X88243923Y-67743156D02*
X88339161Y-67790775D01*
X88339161Y-67790775D02*
X88529637Y-67790775D01*
X88529637Y-67790775D02*
X88624875Y-67743156D01*
X89053447Y-67124108D02*
X89053447Y-68124108D01*
X89148685Y-67505061D02*
X89434399Y-67124108D01*
X89434399Y-67790775D02*
X89053447Y-67409823D01*
X90624876Y-67124108D02*
X90624876Y-68124108D01*
X91053447Y-67124108D02*
X91053447Y-67647918D01*
X91053447Y-67647918D02*
X91005828Y-67743156D01*
X91005828Y-67743156D02*
X90910590Y-67790775D01*
X90910590Y-67790775D02*
X90767733Y-67790775D01*
X90767733Y-67790775D02*
X90672495Y-67743156D01*
X90672495Y-67743156D02*
X90624876Y-67695537D01*
X91910590Y-67171728D02*
X91815352Y-67124108D01*
X91815352Y-67124108D02*
X91624876Y-67124108D01*
X91624876Y-67124108D02*
X91529638Y-67171728D01*
X91529638Y-67171728D02*
X91482019Y-67266966D01*
X91482019Y-67266966D02*
X91482019Y-67647918D01*
X91482019Y-67647918D02*
X91529638Y-67743156D01*
X91529638Y-67743156D02*
X91624876Y-67790775D01*
X91624876Y-67790775D02*
X91815352Y-67790775D01*
X91815352Y-67790775D02*
X91910590Y-67743156D01*
X91910590Y-67743156D02*
X91958209Y-67647918D01*
X91958209Y-67647918D02*
X91958209Y-67552680D01*
X91958209Y-67552680D02*
X91482019Y-67457442D01*
X92386781Y-67124108D02*
X92386781Y-67790775D01*
X92386781Y-67600299D02*
X92434400Y-67695537D01*
X92434400Y-67695537D02*
X92482019Y-67743156D01*
X92482019Y-67743156D02*
X92577257Y-67790775D01*
X92577257Y-67790775D02*
X92672495Y-67790775D01*
X93386781Y-67171728D02*
X93291543Y-67124108D01*
X93291543Y-67124108D02*
X93101067Y-67124108D01*
X93101067Y-67124108D02*
X93005829Y-67171728D01*
X93005829Y-67171728D02*
X92958210Y-67266966D01*
X92958210Y-67266966D02*
X92958210Y-67647918D01*
X92958210Y-67647918D02*
X93005829Y-67743156D01*
X93005829Y-67743156D02*
X93101067Y-67790775D01*
X93101067Y-67790775D02*
X93291543Y-67790775D01*
X93291543Y-67790775D02*
X93386781Y-67743156D01*
X93386781Y-67743156D02*
X93434400Y-67647918D01*
X93434400Y-67647918D02*
X93434400Y-67552680D01*
X93434400Y-67552680D02*
X92958210Y-67457442D01*
X93862972Y-67219347D02*
X93910591Y-67171728D01*
X93910591Y-67171728D02*
X93862972Y-67124108D01*
X93862972Y-67124108D02*
X93815353Y-67171728D01*
X93815353Y-67171728D02*
X93862972Y-67219347D01*
X93862972Y-67219347D02*
X93862972Y-67124108D01*
X110355839Y-103277334D02*
X110089173Y-103277334D01*
X109974887Y-103696382D02*
X110355839Y-103696382D01*
X110355839Y-103696382D02*
X110355839Y-102896382D01*
X110355839Y-102896382D02*
X109974887Y-102896382D01*
X109708220Y-103696382D02*
X109289172Y-103163048D01*
X109708220Y-103163048D02*
X109289172Y-103696382D01*
X109098696Y-103163048D02*
X108793934Y-103163048D01*
X108984410Y-102896382D02*
X108984410Y-103582096D01*
X108984410Y-103582096D02*
X108946315Y-103658287D01*
X108946315Y-103658287D02*
X108870125Y-103696382D01*
X108870125Y-103696382D02*
X108793934Y-103696382D01*
X108527267Y-103620191D02*
X108489172Y-103658287D01*
X108489172Y-103658287D02*
X108527267Y-103696382D01*
X108527267Y-103696382D02*
X108565363Y-103658287D01*
X108565363Y-103658287D02*
X108527267Y-103620191D01*
X108527267Y-103620191D02*
X108527267Y-103696382D01*
X107384410Y-102896382D02*
X107232029Y-102896382D01*
X107232029Y-102896382D02*
X107155839Y-102934477D01*
X107155839Y-102934477D02*
X107079648Y-103010667D01*
X107079648Y-103010667D02*
X107041553Y-103163048D01*
X107041553Y-103163048D02*
X107041553Y-103429715D01*
X107041553Y-103429715D02*
X107079648Y-103582096D01*
X107079648Y-103582096D02*
X107155839Y-103658287D01*
X107155839Y-103658287D02*
X107232029Y-103696382D01*
X107232029Y-103696382D02*
X107384410Y-103696382D01*
X107384410Y-103696382D02*
X107460601Y-103658287D01*
X107460601Y-103658287D02*
X107536791Y-103582096D01*
X107536791Y-103582096D02*
X107574887Y-103429715D01*
X107574887Y-103429715D02*
X107574887Y-103163048D01*
X107574887Y-103163048D02*
X107536791Y-103010667D01*
X107536791Y-103010667D02*
X107460601Y-102934477D01*
X107460601Y-102934477D02*
X107384410Y-102896382D01*
X106355839Y-103163048D02*
X106355839Y-103696382D01*
X106698696Y-103163048D02*
X106698696Y-103582096D01*
X106698696Y-103582096D02*
X106660601Y-103658287D01*
X106660601Y-103658287D02*
X106584411Y-103696382D01*
X106584411Y-103696382D02*
X106470125Y-103696382D01*
X106470125Y-103696382D02*
X106393934Y-103658287D01*
X106393934Y-103658287D02*
X106355839Y-103620191D01*
X106089172Y-103163048D02*
X105784410Y-103163048D01*
X105974886Y-102896382D02*
X105974886Y-103582096D01*
X105974886Y-103582096D02*
X105936791Y-103658287D01*
X105936791Y-103658287D02*
X105860601Y-103696382D01*
X105860601Y-103696382D02*
X105784410Y-103696382D01*
X105517743Y-103163048D02*
X105517743Y-103963048D01*
X105517743Y-103201144D02*
X105441553Y-103163048D01*
X105441553Y-103163048D02*
X105289172Y-103163048D01*
X105289172Y-103163048D02*
X105212981Y-103201144D01*
X105212981Y-103201144D02*
X105174886Y-103239239D01*
X105174886Y-103239239D02*
X105136791Y-103315429D01*
X105136791Y-103315429D02*
X105136791Y-103544001D01*
X105136791Y-103544001D02*
X105174886Y-103620191D01*
X105174886Y-103620191D02*
X105212981Y-103658287D01*
X105212981Y-103658287D02*
X105289172Y-103696382D01*
X105289172Y-103696382D02*
X105441553Y-103696382D01*
X105441553Y-103696382D02*
X105517743Y-103658287D01*
X104451076Y-103163048D02*
X104451076Y-103696382D01*
X104793933Y-103163048D02*
X104793933Y-103582096D01*
X104793933Y-103582096D02*
X104755838Y-103658287D01*
X104755838Y-103658287D02*
X104679648Y-103696382D01*
X104679648Y-103696382D02*
X104565362Y-103696382D01*
X104565362Y-103696382D02*
X104489171Y-103658287D01*
X104489171Y-103658287D02*
X104451076Y-103620191D01*
X104184409Y-103163048D02*
X103879647Y-103163048D01*
X104070123Y-102896382D02*
X104070123Y-103582096D01*
X104070123Y-103582096D02*
X104032028Y-103658287D01*
X104032028Y-103658287D02*
X103955838Y-103696382D01*
X103955838Y-103696382D02*
X103879647Y-103696382D01*
X103612980Y-103620191D02*
X103574885Y-103658287D01*
X103574885Y-103658287D02*
X103612980Y-103696382D01*
X103612980Y-103696382D02*
X103651076Y-103658287D01*
X103651076Y-103658287D02*
X103612980Y-103620191D01*
X103612980Y-103620191D02*
X103612980Y-103696382D01*
X103612980Y-103201144D02*
X103574885Y-103239239D01*
X103574885Y-103239239D02*
X103612980Y-103277334D01*
X103612980Y-103277334D02*
X103651076Y-103239239D01*
X103651076Y-103239239D02*
X103612980Y-103201144D01*
X103612980Y-103201144D02*
X103612980Y-103277334D01*
X76069569Y-100360839D02*
X76869569Y-100360839D01*
X76069569Y-99979887D02*
X76869569Y-99979887D01*
X76869569Y-99979887D02*
X76298141Y-99713221D01*
X76298141Y-99713221D02*
X76869569Y-99446554D01*
X76869569Y-99446554D02*
X76069569Y-99446554D01*
X76069569Y-99065601D02*
X76869569Y-99065601D01*
X76869569Y-99065601D02*
X76869569Y-98760839D01*
X76869569Y-98760839D02*
X76831474Y-98684649D01*
X76831474Y-98684649D02*
X76793379Y-98646554D01*
X76793379Y-98646554D02*
X76717188Y-98608458D01*
X76717188Y-98608458D02*
X76602903Y-98608458D01*
X76602903Y-98608458D02*
X76526712Y-98646554D01*
X76526712Y-98646554D02*
X76488617Y-98684649D01*
X76488617Y-98684649D02*
X76450522Y-98760839D01*
X76450522Y-98760839D02*
X76450522Y-99065601D01*
X76869569Y-98113220D02*
X76869569Y-97960839D01*
X76869569Y-97960839D02*
X76831474Y-97884649D01*
X76831474Y-97884649D02*
X76755284Y-97808458D01*
X76755284Y-97808458D02*
X76602903Y-97770363D01*
X76602903Y-97770363D02*
X76336236Y-97770363D01*
X76336236Y-97770363D02*
X76183855Y-97808458D01*
X76183855Y-97808458D02*
X76107665Y-97884649D01*
X76107665Y-97884649D02*
X76069569Y-97960839D01*
X76069569Y-97960839D02*
X76069569Y-98113220D01*
X76069569Y-98113220D02*
X76107665Y-98189411D01*
X76107665Y-98189411D02*
X76183855Y-98265601D01*
X76183855Y-98265601D02*
X76336236Y-98303697D01*
X76336236Y-98303697D02*
X76602903Y-98303697D01*
X76602903Y-98303697D02*
X76755284Y-98265601D01*
X76755284Y-98265601D02*
X76831474Y-98189411D01*
X76831474Y-98189411D02*
X76869569Y-98113220D01*
X76069569Y-96970363D02*
X76450522Y-97237030D01*
X76069569Y-97427506D02*
X76869569Y-97427506D01*
X76869569Y-97427506D02*
X76869569Y-97122744D01*
X76869569Y-97122744D02*
X76831474Y-97046554D01*
X76831474Y-97046554D02*
X76793379Y-97008459D01*
X76793379Y-97008459D02*
X76717188Y-96970363D01*
X76717188Y-96970363D02*
X76602903Y-96970363D01*
X76602903Y-96970363D02*
X76526712Y-97008459D01*
X76526712Y-97008459D02*
X76488617Y-97046554D01*
X76488617Y-97046554D02*
X76450522Y-97122744D01*
X76450522Y-97122744D02*
X76450522Y-97427506D01*
X76869569Y-96741792D02*
X76869569Y-96284649D01*
X76069569Y-96513221D02*
X76869569Y-96513221D01*
X76298141Y-96056078D02*
X76298141Y-95675125D01*
X76069569Y-96132268D02*
X76869569Y-95865601D01*
X76869569Y-95865601D02*
X76069569Y-95598935D01*
X76069569Y-95332268D02*
X76869569Y-95332268D01*
X76869569Y-95332268D02*
X76069569Y-94875125D01*
X76069569Y-94875125D02*
X76869569Y-94875125D01*
X76869569Y-94608459D02*
X76869569Y-94151316D01*
X76069569Y-94379888D02*
X76869569Y-94379888D01*
X76145760Y-93884649D02*
X76107665Y-93846554D01*
X76107665Y-93846554D02*
X76069569Y-93884649D01*
X76069569Y-93884649D02*
X76107665Y-93922745D01*
X76107665Y-93922745D02*
X76145760Y-93884649D01*
X76145760Y-93884649D02*
X76069569Y-93884649D01*
X76564807Y-93884649D02*
X76526712Y-93846554D01*
X76526712Y-93846554D02*
X76488617Y-93884649D01*
X76488617Y-93884649D02*
X76526712Y-93922745D01*
X76526712Y-93922745D02*
X76564807Y-93884649D01*
X76564807Y-93884649D02*
X76488617Y-93884649D01*
X76869569Y-93008459D02*
X76869569Y-92551316D01*
X76069569Y-92779888D02*
X76869569Y-92779888D01*
X76107665Y-92322745D02*
X76069569Y-92208459D01*
X76069569Y-92208459D02*
X76069569Y-92017983D01*
X76069569Y-92017983D02*
X76107665Y-91941792D01*
X76107665Y-91941792D02*
X76145760Y-91903697D01*
X76145760Y-91903697D02*
X76221950Y-91865602D01*
X76221950Y-91865602D02*
X76298141Y-91865602D01*
X76298141Y-91865602D02*
X76374331Y-91903697D01*
X76374331Y-91903697D02*
X76412426Y-91941792D01*
X76412426Y-91941792D02*
X76450522Y-92017983D01*
X76450522Y-92017983D02*
X76488617Y-92170364D01*
X76488617Y-92170364D02*
X76526712Y-92246554D01*
X76526712Y-92246554D02*
X76564807Y-92284649D01*
X76564807Y-92284649D02*
X76640998Y-92322745D01*
X76640998Y-92322745D02*
X76717188Y-92322745D01*
X76717188Y-92322745D02*
X76793379Y-92284649D01*
X76793379Y-92284649D02*
X76831474Y-92246554D01*
X76831474Y-92246554D02*
X76869569Y-92170364D01*
X76869569Y-92170364D02*
X76869569Y-91979887D01*
X76869569Y-91979887D02*
X76831474Y-91865602D01*
X76069569Y-90570363D02*
X76488617Y-90570363D01*
X76488617Y-90570363D02*
X76564807Y-90608458D01*
X76564807Y-90608458D02*
X76602903Y-90684649D01*
X76602903Y-90684649D02*
X76602903Y-90837030D01*
X76602903Y-90837030D02*
X76564807Y-90913220D01*
X76107665Y-90570363D02*
X76069569Y-90646554D01*
X76069569Y-90646554D02*
X76069569Y-90837030D01*
X76069569Y-90837030D02*
X76107665Y-90913220D01*
X76107665Y-90913220D02*
X76183855Y-90951316D01*
X76183855Y-90951316D02*
X76260045Y-90951316D01*
X76260045Y-90951316D02*
X76336236Y-90913220D01*
X76336236Y-90913220D02*
X76374331Y-90837030D01*
X76374331Y-90837030D02*
X76374331Y-90646554D01*
X76374331Y-90646554D02*
X76412426Y-90570363D01*
X76069569Y-90189410D02*
X76602903Y-90189410D01*
X76450522Y-90189410D02*
X76526712Y-90151315D01*
X76526712Y-90151315D02*
X76564807Y-90113220D01*
X76564807Y-90113220D02*
X76602903Y-90037029D01*
X76602903Y-90037029D02*
X76602903Y-89960839D01*
X76107665Y-89389410D02*
X76069569Y-89465601D01*
X76069569Y-89465601D02*
X76069569Y-89617982D01*
X76069569Y-89617982D02*
X76107665Y-89694172D01*
X76107665Y-89694172D02*
X76183855Y-89732268D01*
X76183855Y-89732268D02*
X76488617Y-89732268D01*
X76488617Y-89732268D02*
X76564807Y-89694172D01*
X76564807Y-89694172D02*
X76602903Y-89617982D01*
X76602903Y-89617982D02*
X76602903Y-89465601D01*
X76602903Y-89465601D02*
X76564807Y-89389410D01*
X76564807Y-89389410D02*
X76488617Y-89351315D01*
X76488617Y-89351315D02*
X76412426Y-89351315D01*
X76412426Y-89351315D02*
X76336236Y-89732268D01*
X76069569Y-88665601D02*
X76488617Y-88665601D01*
X76488617Y-88665601D02*
X76564807Y-88703696D01*
X76564807Y-88703696D02*
X76602903Y-88779887D01*
X76602903Y-88779887D02*
X76602903Y-88932268D01*
X76602903Y-88932268D02*
X76564807Y-89008458D01*
X76107665Y-88665601D02*
X76069569Y-88741792D01*
X76069569Y-88741792D02*
X76069569Y-88932268D01*
X76069569Y-88932268D02*
X76107665Y-89008458D01*
X76107665Y-89008458D02*
X76183855Y-89046554D01*
X76183855Y-89046554D02*
X76260045Y-89046554D01*
X76260045Y-89046554D02*
X76336236Y-89008458D01*
X76336236Y-89008458D02*
X76374331Y-88932268D01*
X76374331Y-88932268D02*
X76374331Y-88741792D01*
X76374331Y-88741792D02*
X76412426Y-88665601D01*
X76069569Y-87675124D02*
X76602903Y-87675124D01*
X76869569Y-87675124D02*
X76831474Y-87713220D01*
X76831474Y-87713220D02*
X76793379Y-87675124D01*
X76793379Y-87675124D02*
X76831474Y-87637029D01*
X76831474Y-87637029D02*
X76869569Y-87675124D01*
X76869569Y-87675124D02*
X76793379Y-87675124D01*
X76602903Y-87294172D02*
X76069569Y-87294172D01*
X76526712Y-87294172D02*
X76564807Y-87256077D01*
X76564807Y-87256077D02*
X76602903Y-87179887D01*
X76602903Y-87179887D02*
X76602903Y-87065601D01*
X76602903Y-87065601D02*
X76564807Y-86989410D01*
X76564807Y-86989410D02*
X76488617Y-86951315D01*
X76488617Y-86951315D02*
X76069569Y-86951315D01*
X76107665Y-86227505D02*
X76069569Y-86303696D01*
X76069569Y-86303696D02*
X76069569Y-86456077D01*
X76069569Y-86456077D02*
X76107665Y-86532267D01*
X76107665Y-86532267D02*
X76145760Y-86570362D01*
X76145760Y-86570362D02*
X76221950Y-86608458D01*
X76221950Y-86608458D02*
X76450522Y-86608458D01*
X76450522Y-86608458D02*
X76526712Y-86570362D01*
X76526712Y-86570362D02*
X76564807Y-86532267D01*
X76564807Y-86532267D02*
X76602903Y-86456077D01*
X76602903Y-86456077D02*
X76602903Y-86303696D01*
X76602903Y-86303696D02*
X76564807Y-86227505D01*
X76069569Y-85770363D02*
X76107665Y-85846553D01*
X76107665Y-85846553D02*
X76183855Y-85884648D01*
X76183855Y-85884648D02*
X76869569Y-85884648D01*
X76602903Y-85122743D02*
X76069569Y-85122743D01*
X76602903Y-85465600D02*
X76183855Y-85465600D01*
X76183855Y-85465600D02*
X76107665Y-85427505D01*
X76107665Y-85427505D02*
X76069569Y-85351315D01*
X76069569Y-85351315D02*
X76069569Y-85237029D01*
X76069569Y-85237029D02*
X76107665Y-85160838D01*
X76107665Y-85160838D02*
X76145760Y-85122743D01*
X76069569Y-84398933D02*
X76869569Y-84398933D01*
X76107665Y-84398933D02*
X76069569Y-84475124D01*
X76069569Y-84475124D02*
X76069569Y-84627505D01*
X76069569Y-84627505D02*
X76107665Y-84703695D01*
X76107665Y-84703695D02*
X76145760Y-84741790D01*
X76145760Y-84741790D02*
X76221950Y-84779886D01*
X76221950Y-84779886D02*
X76450522Y-84779886D01*
X76450522Y-84779886D02*
X76526712Y-84741790D01*
X76526712Y-84741790D02*
X76564807Y-84703695D01*
X76564807Y-84703695D02*
X76602903Y-84627505D01*
X76602903Y-84627505D02*
X76602903Y-84475124D01*
X76602903Y-84475124D02*
X76564807Y-84398933D01*
X76069569Y-84017980D02*
X76602903Y-84017980D01*
X76869569Y-84017980D02*
X76831474Y-84056076D01*
X76831474Y-84056076D02*
X76793379Y-84017980D01*
X76793379Y-84017980D02*
X76831474Y-83979885D01*
X76831474Y-83979885D02*
X76869569Y-84017980D01*
X76869569Y-84017980D02*
X76793379Y-84017980D01*
X76602903Y-83637028D02*
X76069569Y-83637028D01*
X76526712Y-83637028D02*
X76564807Y-83598933D01*
X76564807Y-83598933D02*
X76602903Y-83522743D01*
X76602903Y-83522743D02*
X76602903Y-83408457D01*
X76602903Y-83408457D02*
X76564807Y-83332266D01*
X76564807Y-83332266D02*
X76488617Y-83294171D01*
X76488617Y-83294171D02*
X76069569Y-83294171D01*
X76602903Y-82570361D02*
X75955284Y-82570361D01*
X75955284Y-82570361D02*
X75879093Y-82608456D01*
X75879093Y-82608456D02*
X75840998Y-82646552D01*
X75840998Y-82646552D02*
X75802903Y-82722742D01*
X75802903Y-82722742D02*
X75802903Y-82837028D01*
X75802903Y-82837028D02*
X75840998Y-82913218D01*
X76107665Y-82570361D02*
X76069569Y-82646552D01*
X76069569Y-82646552D02*
X76069569Y-82798933D01*
X76069569Y-82798933D02*
X76107665Y-82875123D01*
X76107665Y-82875123D02*
X76145760Y-82913218D01*
X76145760Y-82913218D02*
X76221950Y-82951314D01*
X76221950Y-82951314D02*
X76450522Y-82951314D01*
X76450522Y-82951314D02*
X76526712Y-82913218D01*
X76526712Y-82913218D02*
X76564807Y-82875123D01*
X76564807Y-82875123D02*
X76602903Y-82798933D01*
X76602903Y-82798933D02*
X76602903Y-82646552D01*
X76602903Y-82646552D02*
X76564807Y-82570361D01*
X76069569Y-81579884D02*
X76602903Y-81579884D01*
X76869569Y-81579884D02*
X76831474Y-81617980D01*
X76831474Y-81617980D02*
X76793379Y-81579884D01*
X76793379Y-81579884D02*
X76831474Y-81541789D01*
X76831474Y-81541789D02*
X76869569Y-81579884D01*
X76869569Y-81579884D02*
X76793379Y-81579884D01*
X76107665Y-81237028D02*
X76069569Y-81160837D01*
X76069569Y-81160837D02*
X76069569Y-81008456D01*
X76069569Y-81008456D02*
X76107665Y-80932266D01*
X76107665Y-80932266D02*
X76183855Y-80894170D01*
X76183855Y-80894170D02*
X76221950Y-80894170D01*
X76221950Y-80894170D02*
X76298141Y-80932266D01*
X76298141Y-80932266D02*
X76336236Y-81008456D01*
X76336236Y-81008456D02*
X76336236Y-81122742D01*
X76336236Y-81122742D02*
X76374331Y-81198932D01*
X76374331Y-81198932D02*
X76450522Y-81237028D01*
X76450522Y-81237028D02*
X76488617Y-81237028D01*
X76488617Y-81237028D02*
X76564807Y-81198932D01*
X76564807Y-81198932D02*
X76602903Y-81122742D01*
X76602903Y-81122742D02*
X76602903Y-81008456D01*
X76602903Y-81008456D02*
X76564807Y-80932266D01*
X76069569Y-80437028D02*
X76107665Y-80513218D01*
X76107665Y-80513218D02*
X76145760Y-80551313D01*
X76145760Y-80551313D02*
X76221950Y-80589409D01*
X76221950Y-80589409D02*
X76450522Y-80589409D01*
X76450522Y-80589409D02*
X76526712Y-80551313D01*
X76526712Y-80551313D02*
X76564807Y-80513218D01*
X76564807Y-80513218D02*
X76602903Y-80437028D01*
X76602903Y-80437028D02*
X76602903Y-80322742D01*
X76602903Y-80322742D02*
X76564807Y-80246551D01*
X76564807Y-80246551D02*
X76526712Y-80208456D01*
X76526712Y-80208456D02*
X76450522Y-80170361D01*
X76450522Y-80170361D02*
X76221950Y-80170361D01*
X76221950Y-80170361D02*
X76145760Y-80208456D01*
X76145760Y-80208456D02*
X76107665Y-80246551D01*
X76107665Y-80246551D02*
X76069569Y-80322742D01*
X76069569Y-80322742D02*
X76069569Y-80437028D01*
X76069569Y-79713218D02*
X76107665Y-79789408D01*
X76107665Y-79789408D02*
X76183855Y-79827503D01*
X76183855Y-79827503D02*
X76869569Y-79827503D01*
X76069569Y-79065598D02*
X76488617Y-79065598D01*
X76488617Y-79065598D02*
X76564807Y-79103693D01*
X76564807Y-79103693D02*
X76602903Y-79179884D01*
X76602903Y-79179884D02*
X76602903Y-79332265D01*
X76602903Y-79332265D02*
X76564807Y-79408455D01*
X76107665Y-79065598D02*
X76069569Y-79141789D01*
X76069569Y-79141789D02*
X76069569Y-79332265D01*
X76069569Y-79332265D02*
X76107665Y-79408455D01*
X76107665Y-79408455D02*
X76183855Y-79446551D01*
X76183855Y-79446551D02*
X76260045Y-79446551D01*
X76260045Y-79446551D02*
X76336236Y-79408455D01*
X76336236Y-79408455D02*
X76374331Y-79332265D01*
X76374331Y-79332265D02*
X76374331Y-79141789D01*
X76374331Y-79141789D02*
X76412426Y-79065598D01*
X76602903Y-78798931D02*
X76602903Y-78494169D01*
X76869569Y-78684645D02*
X76183855Y-78684645D01*
X76183855Y-78684645D02*
X76107665Y-78646550D01*
X76107665Y-78646550D02*
X76069569Y-78570360D01*
X76069569Y-78570360D02*
X76069569Y-78494169D01*
X76069569Y-78227502D02*
X76602903Y-78227502D01*
X76869569Y-78227502D02*
X76831474Y-78265598D01*
X76831474Y-78265598D02*
X76793379Y-78227502D01*
X76793379Y-78227502D02*
X76831474Y-78189407D01*
X76831474Y-78189407D02*
X76869569Y-78227502D01*
X76869569Y-78227502D02*
X76793379Y-78227502D01*
X76069569Y-77732265D02*
X76107665Y-77808455D01*
X76107665Y-77808455D02*
X76145760Y-77846550D01*
X76145760Y-77846550D02*
X76221950Y-77884646D01*
X76221950Y-77884646D02*
X76450522Y-77884646D01*
X76450522Y-77884646D02*
X76526712Y-77846550D01*
X76526712Y-77846550D02*
X76564807Y-77808455D01*
X76564807Y-77808455D02*
X76602903Y-77732265D01*
X76602903Y-77732265D02*
X76602903Y-77617979D01*
X76602903Y-77617979D02*
X76564807Y-77541788D01*
X76564807Y-77541788D02*
X76526712Y-77503693D01*
X76526712Y-77503693D02*
X76450522Y-77465598D01*
X76450522Y-77465598D02*
X76221950Y-77465598D01*
X76221950Y-77465598D02*
X76145760Y-77503693D01*
X76145760Y-77503693D02*
X76107665Y-77541788D01*
X76107665Y-77541788D02*
X76069569Y-77617979D01*
X76069569Y-77617979D02*
X76069569Y-77732265D01*
X76602903Y-77122740D02*
X76069569Y-77122740D01*
X76526712Y-77122740D02*
X76564807Y-77084645D01*
X76564807Y-77084645D02*
X76602903Y-77008455D01*
X76602903Y-77008455D02*
X76602903Y-76894169D01*
X76602903Y-76894169D02*
X76564807Y-76817978D01*
X76564807Y-76817978D02*
X76488617Y-76779883D01*
X76488617Y-76779883D02*
X76069569Y-76779883D01*
X76602903Y-75446549D02*
X75955284Y-75446549D01*
X75955284Y-75446549D02*
X75879093Y-75484644D01*
X75879093Y-75484644D02*
X75840998Y-75522740D01*
X75840998Y-75522740D02*
X75802903Y-75598930D01*
X75802903Y-75598930D02*
X75802903Y-75713216D01*
X75802903Y-75713216D02*
X75840998Y-75789406D01*
X76107665Y-75446549D02*
X76069569Y-75522740D01*
X76069569Y-75522740D02*
X76069569Y-75675121D01*
X76069569Y-75675121D02*
X76107665Y-75751311D01*
X76107665Y-75751311D02*
X76145760Y-75789406D01*
X76145760Y-75789406D02*
X76221950Y-75827502D01*
X76221950Y-75827502D02*
X76450522Y-75827502D01*
X76450522Y-75827502D02*
X76526712Y-75789406D01*
X76526712Y-75789406D02*
X76564807Y-75751311D01*
X76564807Y-75751311D02*
X76602903Y-75675121D01*
X76602903Y-75675121D02*
X76602903Y-75522740D01*
X76602903Y-75522740D02*
X76564807Y-75446549D01*
X76069569Y-74722739D02*
X76488617Y-74722739D01*
X76488617Y-74722739D02*
X76564807Y-74760834D01*
X76564807Y-74760834D02*
X76602903Y-74837025D01*
X76602903Y-74837025D02*
X76602903Y-74989406D01*
X76602903Y-74989406D02*
X76564807Y-75065596D01*
X76107665Y-74722739D02*
X76069569Y-74798930D01*
X76069569Y-74798930D02*
X76069569Y-74989406D01*
X76069569Y-74989406D02*
X76107665Y-75065596D01*
X76107665Y-75065596D02*
X76183855Y-75103692D01*
X76183855Y-75103692D02*
X76260045Y-75103692D01*
X76260045Y-75103692D02*
X76336236Y-75065596D01*
X76336236Y-75065596D02*
X76374331Y-74989406D01*
X76374331Y-74989406D02*
X76374331Y-74798930D01*
X76374331Y-74798930D02*
X76412426Y-74722739D01*
X76602903Y-74341786D02*
X75802903Y-74341786D01*
X76564807Y-74341786D02*
X76602903Y-74265596D01*
X76602903Y-74265596D02*
X76602903Y-74113215D01*
X76602903Y-74113215D02*
X76564807Y-74037024D01*
X76564807Y-74037024D02*
X76526712Y-73998929D01*
X76526712Y-73998929D02*
X76450522Y-73960834D01*
X76450522Y-73960834D02*
X76221950Y-73960834D01*
X76221950Y-73960834D02*
X76145760Y-73998929D01*
X76145760Y-73998929D02*
X76107665Y-74037024D01*
X76107665Y-74037024D02*
X76069569Y-74113215D01*
X76069569Y-74113215D02*
X76069569Y-74265596D01*
X76069569Y-74265596D02*
X76107665Y-74341786D01*
X74781614Y-100360839D02*
X75314948Y-100360839D01*
X75238757Y-100360839D02*
X75276852Y-100322744D01*
X75276852Y-100322744D02*
X75314948Y-100246554D01*
X75314948Y-100246554D02*
X75314948Y-100132268D01*
X75314948Y-100132268D02*
X75276852Y-100056077D01*
X75276852Y-100056077D02*
X75200662Y-100017982D01*
X75200662Y-100017982D02*
X74781614Y-100017982D01*
X75200662Y-100017982D02*
X75276852Y-99979887D01*
X75276852Y-99979887D02*
X75314948Y-99903696D01*
X75314948Y-99903696D02*
X75314948Y-99789411D01*
X75314948Y-99789411D02*
X75276852Y-99713220D01*
X75276852Y-99713220D02*
X75200662Y-99675125D01*
X75200662Y-99675125D02*
X74781614Y-99675125D01*
X75314948Y-98951315D02*
X74781614Y-98951315D01*
X75314948Y-99294172D02*
X74895900Y-99294172D01*
X74895900Y-99294172D02*
X74819710Y-99256077D01*
X74819710Y-99256077D02*
X74781614Y-99179887D01*
X74781614Y-99179887D02*
X74781614Y-99065601D01*
X74781614Y-99065601D02*
X74819710Y-98989410D01*
X74819710Y-98989410D02*
X74857805Y-98951315D01*
X74819710Y-98608458D02*
X74781614Y-98532267D01*
X74781614Y-98532267D02*
X74781614Y-98379886D01*
X74781614Y-98379886D02*
X74819710Y-98303696D01*
X74819710Y-98303696D02*
X74895900Y-98265600D01*
X74895900Y-98265600D02*
X74933995Y-98265600D01*
X74933995Y-98265600D02*
X75010186Y-98303696D01*
X75010186Y-98303696D02*
X75048281Y-98379886D01*
X75048281Y-98379886D02*
X75048281Y-98494172D01*
X75048281Y-98494172D02*
X75086376Y-98570362D01*
X75086376Y-98570362D02*
X75162567Y-98608458D01*
X75162567Y-98608458D02*
X75200662Y-98608458D01*
X75200662Y-98608458D02*
X75276852Y-98570362D01*
X75276852Y-98570362D02*
X75314948Y-98494172D01*
X75314948Y-98494172D02*
X75314948Y-98379886D01*
X75314948Y-98379886D02*
X75276852Y-98303696D01*
X75314948Y-98037029D02*
X75314948Y-97732267D01*
X75581614Y-97922743D02*
X74895900Y-97922743D01*
X74895900Y-97922743D02*
X74819710Y-97884648D01*
X74819710Y-97884648D02*
X74781614Y-97808458D01*
X74781614Y-97808458D02*
X74781614Y-97732267D01*
X74781614Y-96856076D02*
X75581614Y-96856076D01*
X75276852Y-96856076D02*
X75314948Y-96779886D01*
X75314948Y-96779886D02*
X75314948Y-96627505D01*
X75314948Y-96627505D02*
X75276852Y-96551314D01*
X75276852Y-96551314D02*
X75238757Y-96513219D01*
X75238757Y-96513219D02*
X75162567Y-96475124D01*
X75162567Y-96475124D02*
X74933995Y-96475124D01*
X74933995Y-96475124D02*
X74857805Y-96513219D01*
X74857805Y-96513219D02*
X74819710Y-96551314D01*
X74819710Y-96551314D02*
X74781614Y-96627505D01*
X74781614Y-96627505D02*
X74781614Y-96779886D01*
X74781614Y-96779886D02*
X74819710Y-96856076D01*
X74819710Y-95827504D02*
X74781614Y-95903695D01*
X74781614Y-95903695D02*
X74781614Y-96056076D01*
X74781614Y-96056076D02*
X74819710Y-96132266D01*
X74819710Y-96132266D02*
X74895900Y-96170362D01*
X74895900Y-96170362D02*
X75200662Y-96170362D01*
X75200662Y-96170362D02*
X75276852Y-96132266D01*
X75276852Y-96132266D02*
X75314948Y-96056076D01*
X75314948Y-96056076D02*
X75314948Y-95903695D01*
X75314948Y-95903695D02*
X75276852Y-95827504D01*
X75276852Y-95827504D02*
X75200662Y-95789409D01*
X75200662Y-95789409D02*
X75124471Y-95789409D01*
X75124471Y-95789409D02*
X75048281Y-96170362D01*
X74819710Y-94494171D02*
X74781614Y-94570362D01*
X74781614Y-94570362D02*
X74781614Y-94722743D01*
X74781614Y-94722743D02*
X74819710Y-94798933D01*
X74819710Y-94798933D02*
X74857805Y-94837028D01*
X74857805Y-94837028D02*
X74933995Y-94875124D01*
X74933995Y-94875124D02*
X75162567Y-94875124D01*
X75162567Y-94875124D02*
X75238757Y-94837028D01*
X75238757Y-94837028D02*
X75276852Y-94798933D01*
X75276852Y-94798933D02*
X75314948Y-94722743D01*
X75314948Y-94722743D02*
X75314948Y-94570362D01*
X75314948Y-94570362D02*
X75276852Y-94494171D01*
X74781614Y-94037029D02*
X74819710Y-94113219D01*
X74819710Y-94113219D02*
X74857805Y-94151314D01*
X74857805Y-94151314D02*
X74933995Y-94189410D01*
X74933995Y-94189410D02*
X75162567Y-94189410D01*
X75162567Y-94189410D02*
X75238757Y-94151314D01*
X75238757Y-94151314D02*
X75276852Y-94113219D01*
X75276852Y-94113219D02*
X75314948Y-94037029D01*
X75314948Y-94037029D02*
X75314948Y-93922743D01*
X75314948Y-93922743D02*
X75276852Y-93846552D01*
X75276852Y-93846552D02*
X75238757Y-93808457D01*
X75238757Y-93808457D02*
X75162567Y-93770362D01*
X75162567Y-93770362D02*
X74933995Y-93770362D01*
X74933995Y-93770362D02*
X74857805Y-93808457D01*
X74857805Y-93808457D02*
X74819710Y-93846552D01*
X74819710Y-93846552D02*
X74781614Y-93922743D01*
X74781614Y-93922743D02*
X74781614Y-94037029D01*
X75314948Y-93503695D02*
X74781614Y-93313219D01*
X74781614Y-93313219D02*
X75314948Y-93122742D01*
X74819710Y-92513218D02*
X74781614Y-92589409D01*
X74781614Y-92589409D02*
X74781614Y-92741790D01*
X74781614Y-92741790D02*
X74819710Y-92817980D01*
X74819710Y-92817980D02*
X74895900Y-92856076D01*
X74895900Y-92856076D02*
X75200662Y-92856076D01*
X75200662Y-92856076D02*
X75276852Y-92817980D01*
X75276852Y-92817980D02*
X75314948Y-92741790D01*
X75314948Y-92741790D02*
X75314948Y-92589409D01*
X75314948Y-92589409D02*
X75276852Y-92513218D01*
X75276852Y-92513218D02*
X75200662Y-92475123D01*
X75200662Y-92475123D02*
X75124471Y-92475123D01*
X75124471Y-92475123D02*
X75048281Y-92856076D01*
X74781614Y-92132266D02*
X75314948Y-92132266D01*
X75162567Y-92132266D02*
X75238757Y-92094171D01*
X75238757Y-92094171D02*
X75276852Y-92056076D01*
X75276852Y-92056076D02*
X75314948Y-91979885D01*
X75314948Y-91979885D02*
X75314948Y-91903695D01*
X74819710Y-91332266D02*
X74781614Y-91408457D01*
X74781614Y-91408457D02*
X74781614Y-91560838D01*
X74781614Y-91560838D02*
X74819710Y-91637028D01*
X74819710Y-91637028D02*
X74895900Y-91675124D01*
X74895900Y-91675124D02*
X75200662Y-91675124D01*
X75200662Y-91675124D02*
X75276852Y-91637028D01*
X75276852Y-91637028D02*
X75314948Y-91560838D01*
X75314948Y-91560838D02*
X75314948Y-91408457D01*
X75314948Y-91408457D02*
X75276852Y-91332266D01*
X75276852Y-91332266D02*
X75200662Y-91294171D01*
X75200662Y-91294171D02*
X75124471Y-91294171D01*
X75124471Y-91294171D02*
X75048281Y-91675124D01*
X74781614Y-90608457D02*
X75581614Y-90608457D01*
X74819710Y-90608457D02*
X74781614Y-90684648D01*
X74781614Y-90684648D02*
X74781614Y-90837029D01*
X74781614Y-90837029D02*
X74819710Y-90913219D01*
X74819710Y-90913219D02*
X74857805Y-90951314D01*
X74857805Y-90951314D02*
X74933995Y-90989410D01*
X74933995Y-90989410D02*
X75162567Y-90989410D01*
X75162567Y-90989410D02*
X75238757Y-90951314D01*
X75238757Y-90951314D02*
X75276852Y-90913219D01*
X75276852Y-90913219D02*
X75314948Y-90837029D01*
X75314948Y-90837029D02*
X75314948Y-90684648D01*
X75314948Y-90684648D02*
X75276852Y-90608457D01*
X75314948Y-89694171D02*
X74781614Y-89541790D01*
X74781614Y-89541790D02*
X75162567Y-89389409D01*
X75162567Y-89389409D02*
X74781614Y-89237028D01*
X74781614Y-89237028D02*
X75314948Y-89084647D01*
X74781614Y-88779885D02*
X75314948Y-88779885D01*
X75581614Y-88779885D02*
X75543519Y-88817981D01*
X75543519Y-88817981D02*
X75505424Y-88779885D01*
X75505424Y-88779885D02*
X75543519Y-88741790D01*
X75543519Y-88741790D02*
X75581614Y-88779885D01*
X75581614Y-88779885D02*
X75505424Y-88779885D01*
X75314948Y-88513219D02*
X75314948Y-88208457D01*
X75581614Y-88398933D02*
X74895900Y-88398933D01*
X74895900Y-88398933D02*
X74819710Y-88360838D01*
X74819710Y-88360838D02*
X74781614Y-88284648D01*
X74781614Y-88284648D02*
X74781614Y-88208457D01*
X74781614Y-87941790D02*
X75581614Y-87941790D01*
X74781614Y-87598933D02*
X75200662Y-87598933D01*
X75200662Y-87598933D02*
X75276852Y-87637028D01*
X75276852Y-87637028D02*
X75314948Y-87713219D01*
X75314948Y-87713219D02*
X75314948Y-87827505D01*
X75314948Y-87827505D02*
X75276852Y-87903695D01*
X75276852Y-87903695D02*
X75238757Y-87941790D01*
X74781614Y-86608456D02*
X75314948Y-86608456D01*
X75581614Y-86608456D02*
X75543519Y-86646552D01*
X75543519Y-86646552D02*
X75505424Y-86608456D01*
X75505424Y-86608456D02*
X75543519Y-86570361D01*
X75543519Y-86570361D02*
X75581614Y-86608456D01*
X75581614Y-86608456D02*
X75505424Y-86608456D01*
X74819710Y-86265600D02*
X74781614Y-86189409D01*
X74781614Y-86189409D02*
X74781614Y-86037028D01*
X74781614Y-86037028D02*
X74819710Y-85960838D01*
X74819710Y-85960838D02*
X74895900Y-85922742D01*
X74895900Y-85922742D02*
X74933995Y-85922742D01*
X74933995Y-85922742D02*
X75010186Y-85960838D01*
X75010186Y-85960838D02*
X75048281Y-86037028D01*
X75048281Y-86037028D02*
X75048281Y-86151314D01*
X75048281Y-86151314D02*
X75086376Y-86227504D01*
X75086376Y-86227504D02*
X75162567Y-86265600D01*
X75162567Y-86265600D02*
X75200662Y-86265600D01*
X75200662Y-86265600D02*
X75276852Y-86227504D01*
X75276852Y-86227504D02*
X75314948Y-86151314D01*
X75314948Y-86151314D02*
X75314948Y-86037028D01*
X75314948Y-86037028D02*
X75276852Y-85960838D01*
X74781614Y-85465600D02*
X74819710Y-85541790D01*
X74819710Y-85541790D02*
X74857805Y-85579885D01*
X74857805Y-85579885D02*
X74933995Y-85617981D01*
X74933995Y-85617981D02*
X75162567Y-85617981D01*
X75162567Y-85617981D02*
X75238757Y-85579885D01*
X75238757Y-85579885D02*
X75276852Y-85541790D01*
X75276852Y-85541790D02*
X75314948Y-85465600D01*
X75314948Y-85465600D02*
X75314948Y-85351314D01*
X75314948Y-85351314D02*
X75276852Y-85275123D01*
X75276852Y-85275123D02*
X75238757Y-85237028D01*
X75238757Y-85237028D02*
X75162567Y-85198933D01*
X75162567Y-85198933D02*
X74933995Y-85198933D01*
X74933995Y-85198933D02*
X74857805Y-85237028D01*
X74857805Y-85237028D02*
X74819710Y-85275123D01*
X74819710Y-85275123D02*
X74781614Y-85351314D01*
X74781614Y-85351314D02*
X74781614Y-85465600D01*
X74781614Y-84741790D02*
X74819710Y-84817980D01*
X74819710Y-84817980D02*
X74895900Y-84856075D01*
X74895900Y-84856075D02*
X75581614Y-84856075D01*
X74781614Y-84094170D02*
X75200662Y-84094170D01*
X75200662Y-84094170D02*
X75276852Y-84132265D01*
X75276852Y-84132265D02*
X75314948Y-84208456D01*
X75314948Y-84208456D02*
X75314948Y-84360837D01*
X75314948Y-84360837D02*
X75276852Y-84437027D01*
X74819710Y-84094170D02*
X74781614Y-84170361D01*
X74781614Y-84170361D02*
X74781614Y-84360837D01*
X74781614Y-84360837D02*
X74819710Y-84437027D01*
X74819710Y-84437027D02*
X74895900Y-84475123D01*
X74895900Y-84475123D02*
X74972090Y-84475123D01*
X74972090Y-84475123D02*
X75048281Y-84437027D01*
X75048281Y-84437027D02*
X75086376Y-84360837D01*
X75086376Y-84360837D02*
X75086376Y-84170361D01*
X75086376Y-84170361D02*
X75124471Y-84094170D01*
X75314948Y-83827503D02*
X75314948Y-83522741D01*
X75581614Y-83713217D02*
X74895900Y-83713217D01*
X74895900Y-83713217D02*
X74819710Y-83675122D01*
X74819710Y-83675122D02*
X74781614Y-83598932D01*
X74781614Y-83598932D02*
X74781614Y-83522741D01*
X74781614Y-83256074D02*
X75314948Y-83256074D01*
X75581614Y-83256074D02*
X75543519Y-83294170D01*
X75543519Y-83294170D02*
X75505424Y-83256074D01*
X75505424Y-83256074D02*
X75543519Y-83217979D01*
X75543519Y-83217979D02*
X75581614Y-83256074D01*
X75581614Y-83256074D02*
X75505424Y-83256074D01*
X75314948Y-82875122D02*
X74781614Y-82875122D01*
X75238757Y-82875122D02*
X75276852Y-82837027D01*
X75276852Y-82837027D02*
X75314948Y-82760837D01*
X75314948Y-82760837D02*
X75314948Y-82646551D01*
X75314948Y-82646551D02*
X75276852Y-82570360D01*
X75276852Y-82570360D02*
X75200662Y-82532265D01*
X75200662Y-82532265D02*
X74781614Y-82532265D01*
X75314948Y-81808455D02*
X74667329Y-81808455D01*
X74667329Y-81808455D02*
X74591138Y-81846550D01*
X74591138Y-81846550D02*
X74553043Y-81884646D01*
X74553043Y-81884646D02*
X74514948Y-81960836D01*
X74514948Y-81960836D02*
X74514948Y-82075122D01*
X74514948Y-82075122D02*
X74553043Y-82151312D01*
X74819710Y-81808455D02*
X74781614Y-81884646D01*
X74781614Y-81884646D02*
X74781614Y-82037027D01*
X74781614Y-82037027D02*
X74819710Y-82113217D01*
X74819710Y-82113217D02*
X74857805Y-82151312D01*
X74857805Y-82151312D02*
X74933995Y-82189408D01*
X74933995Y-82189408D02*
X75162567Y-82189408D01*
X75162567Y-82189408D02*
X75238757Y-82151312D01*
X75238757Y-82151312D02*
X75276852Y-82113217D01*
X75276852Y-82113217D02*
X75314948Y-82037027D01*
X75314948Y-82037027D02*
X75314948Y-81884646D01*
X75314948Y-81884646D02*
X75276852Y-81808455D01*
X74781614Y-80817978D02*
X75314948Y-80817978D01*
X75238757Y-80817978D02*
X75276852Y-80779883D01*
X75276852Y-80779883D02*
X75314948Y-80703693D01*
X75314948Y-80703693D02*
X75314948Y-80589407D01*
X75314948Y-80589407D02*
X75276852Y-80513216D01*
X75276852Y-80513216D02*
X75200662Y-80475121D01*
X75200662Y-80475121D02*
X74781614Y-80475121D01*
X75200662Y-80475121D02*
X75276852Y-80437026D01*
X75276852Y-80437026D02*
X75314948Y-80360835D01*
X75314948Y-80360835D02*
X75314948Y-80246550D01*
X75314948Y-80246550D02*
X75276852Y-80170359D01*
X75276852Y-80170359D02*
X75200662Y-80132264D01*
X75200662Y-80132264D02*
X74781614Y-80132264D01*
X74781614Y-79408454D02*
X75200662Y-79408454D01*
X75200662Y-79408454D02*
X75276852Y-79446549D01*
X75276852Y-79446549D02*
X75314948Y-79522740D01*
X75314948Y-79522740D02*
X75314948Y-79675121D01*
X75314948Y-79675121D02*
X75276852Y-79751311D01*
X74819710Y-79408454D02*
X74781614Y-79484645D01*
X74781614Y-79484645D02*
X74781614Y-79675121D01*
X74781614Y-79675121D02*
X74819710Y-79751311D01*
X74819710Y-79751311D02*
X74895900Y-79789407D01*
X74895900Y-79789407D02*
X74972090Y-79789407D01*
X74972090Y-79789407D02*
X75048281Y-79751311D01*
X75048281Y-79751311D02*
X75086376Y-79675121D01*
X75086376Y-79675121D02*
X75086376Y-79484645D01*
X75086376Y-79484645D02*
X75124471Y-79408454D01*
X75314948Y-79141787D02*
X75314948Y-78837025D01*
X75581614Y-79027501D02*
X74895900Y-79027501D01*
X74895900Y-79027501D02*
X74819710Y-78989406D01*
X74819710Y-78989406D02*
X74781614Y-78913216D01*
X74781614Y-78913216D02*
X74781614Y-78837025D01*
X74819710Y-78265596D02*
X74781614Y-78341787D01*
X74781614Y-78341787D02*
X74781614Y-78494168D01*
X74781614Y-78494168D02*
X74819710Y-78570358D01*
X74819710Y-78570358D02*
X74895900Y-78608454D01*
X74895900Y-78608454D02*
X75200662Y-78608454D01*
X75200662Y-78608454D02*
X75276852Y-78570358D01*
X75276852Y-78570358D02*
X75314948Y-78494168D01*
X75314948Y-78494168D02*
X75314948Y-78341787D01*
X75314948Y-78341787D02*
X75276852Y-78265596D01*
X75276852Y-78265596D02*
X75200662Y-78227501D01*
X75200662Y-78227501D02*
X75124471Y-78227501D01*
X75124471Y-78227501D02*
X75048281Y-78608454D01*
X74781614Y-77884644D02*
X75314948Y-77884644D01*
X75162567Y-77884644D02*
X75238757Y-77846549D01*
X75238757Y-77846549D02*
X75276852Y-77808454D01*
X75276852Y-77808454D02*
X75314948Y-77732263D01*
X75314948Y-77732263D02*
X75314948Y-77656073D01*
X74781614Y-77389406D02*
X75314948Y-77389406D01*
X75581614Y-77389406D02*
X75543519Y-77427502D01*
X75543519Y-77427502D02*
X75505424Y-77389406D01*
X75505424Y-77389406D02*
X75543519Y-77351311D01*
X75543519Y-77351311D02*
X75581614Y-77389406D01*
X75581614Y-77389406D02*
X75505424Y-77389406D01*
X74781614Y-76665597D02*
X75200662Y-76665597D01*
X75200662Y-76665597D02*
X75276852Y-76703692D01*
X75276852Y-76703692D02*
X75314948Y-76779883D01*
X75314948Y-76779883D02*
X75314948Y-76932264D01*
X75314948Y-76932264D02*
X75276852Y-77008454D01*
X74819710Y-76665597D02*
X74781614Y-76741788D01*
X74781614Y-76741788D02*
X74781614Y-76932264D01*
X74781614Y-76932264D02*
X74819710Y-77008454D01*
X74819710Y-77008454D02*
X74895900Y-77046550D01*
X74895900Y-77046550D02*
X74972090Y-77046550D01*
X74972090Y-77046550D02*
X75048281Y-77008454D01*
X75048281Y-77008454D02*
X75086376Y-76932264D01*
X75086376Y-76932264D02*
X75086376Y-76741788D01*
X75086376Y-76741788D02*
X75124471Y-76665597D01*
X74781614Y-76170359D02*
X74819710Y-76246549D01*
X74819710Y-76246549D02*
X74895900Y-76284644D01*
X74895900Y-76284644D02*
X75581614Y-76284644D01*
X73493659Y-100360839D02*
X74026993Y-100360839D01*
X74293659Y-100360839D02*
X74255564Y-100398935D01*
X74255564Y-100398935D02*
X74217469Y-100360839D01*
X74217469Y-100360839D02*
X74255564Y-100322744D01*
X74255564Y-100322744D02*
X74293659Y-100360839D01*
X74293659Y-100360839D02*
X74217469Y-100360839D01*
X74026993Y-100094173D02*
X74026993Y-99789411D01*
X73493659Y-99979887D02*
X74179374Y-99979887D01*
X74179374Y-99979887D02*
X74255564Y-99941792D01*
X74255564Y-99941792D02*
X74293659Y-99865602D01*
X74293659Y-99865602D02*
X74293659Y-99789411D01*
X73493659Y-98913220D02*
X74026993Y-98913220D01*
X73950802Y-98913220D02*
X73988897Y-98875125D01*
X73988897Y-98875125D02*
X74026993Y-98798935D01*
X74026993Y-98798935D02*
X74026993Y-98684649D01*
X74026993Y-98684649D02*
X73988897Y-98608458D01*
X73988897Y-98608458D02*
X73912707Y-98570363D01*
X73912707Y-98570363D02*
X73493659Y-98570363D01*
X73912707Y-98570363D02*
X73988897Y-98532268D01*
X73988897Y-98532268D02*
X74026993Y-98456077D01*
X74026993Y-98456077D02*
X74026993Y-98341792D01*
X74026993Y-98341792D02*
X73988897Y-98265601D01*
X73988897Y-98265601D02*
X73912707Y-98227506D01*
X73912707Y-98227506D02*
X73493659Y-98227506D01*
X73493659Y-97732268D02*
X73531755Y-97808458D01*
X73531755Y-97808458D02*
X73569850Y-97846553D01*
X73569850Y-97846553D02*
X73646040Y-97884649D01*
X73646040Y-97884649D02*
X73874612Y-97884649D01*
X73874612Y-97884649D02*
X73950802Y-97846553D01*
X73950802Y-97846553D02*
X73988897Y-97808458D01*
X73988897Y-97808458D02*
X74026993Y-97732268D01*
X74026993Y-97732268D02*
X74026993Y-97617982D01*
X74026993Y-97617982D02*
X73988897Y-97541791D01*
X73988897Y-97541791D02*
X73950802Y-97503696D01*
X73950802Y-97503696D02*
X73874612Y-97465601D01*
X73874612Y-97465601D02*
X73646040Y-97465601D01*
X73646040Y-97465601D02*
X73569850Y-97503696D01*
X73569850Y-97503696D02*
X73531755Y-97541791D01*
X73531755Y-97541791D02*
X73493659Y-97617982D01*
X73493659Y-97617982D02*
X73493659Y-97732268D01*
X74026993Y-96779886D02*
X73493659Y-96779886D01*
X74026993Y-97122743D02*
X73607945Y-97122743D01*
X73607945Y-97122743D02*
X73531755Y-97084648D01*
X73531755Y-97084648D02*
X73493659Y-97008458D01*
X73493659Y-97008458D02*
X73493659Y-96894172D01*
X73493659Y-96894172D02*
X73531755Y-96817981D01*
X73531755Y-96817981D02*
X73569850Y-96779886D01*
X74026993Y-96398933D02*
X73493659Y-96398933D01*
X73950802Y-96398933D02*
X73988897Y-96360838D01*
X73988897Y-96360838D02*
X74026993Y-96284648D01*
X74026993Y-96284648D02*
X74026993Y-96170362D01*
X74026993Y-96170362D02*
X73988897Y-96094171D01*
X73988897Y-96094171D02*
X73912707Y-96056076D01*
X73912707Y-96056076D02*
X73493659Y-96056076D01*
X74026993Y-95789409D02*
X74026993Y-95484647D01*
X74293659Y-95675123D02*
X73607945Y-95675123D01*
X73607945Y-95675123D02*
X73531755Y-95637028D01*
X73531755Y-95637028D02*
X73493659Y-95560838D01*
X73493659Y-95560838D02*
X73493659Y-95484647D01*
X73531755Y-94913218D02*
X73493659Y-94989409D01*
X73493659Y-94989409D02*
X73493659Y-95141790D01*
X73493659Y-95141790D02*
X73531755Y-95217980D01*
X73531755Y-95217980D02*
X73607945Y-95256076D01*
X73607945Y-95256076D02*
X73912707Y-95256076D01*
X73912707Y-95256076D02*
X73988897Y-95217980D01*
X73988897Y-95217980D02*
X74026993Y-95141790D01*
X74026993Y-95141790D02*
X74026993Y-94989409D01*
X74026993Y-94989409D02*
X73988897Y-94913218D01*
X73988897Y-94913218D02*
X73912707Y-94875123D01*
X73912707Y-94875123D02*
X73836516Y-94875123D01*
X73836516Y-94875123D02*
X73760326Y-95256076D01*
X73493659Y-94189409D02*
X74293659Y-94189409D01*
X73531755Y-94189409D02*
X73493659Y-94265600D01*
X73493659Y-94265600D02*
X73493659Y-94417981D01*
X73493659Y-94417981D02*
X73531755Y-94494171D01*
X73531755Y-94494171D02*
X73569850Y-94532266D01*
X73569850Y-94532266D02*
X73646040Y-94570362D01*
X73646040Y-94570362D02*
X73874612Y-94570362D01*
X73874612Y-94570362D02*
X73950802Y-94532266D01*
X73950802Y-94532266D02*
X73988897Y-94494171D01*
X73988897Y-94494171D02*
X74026993Y-94417981D01*
X74026993Y-94417981D02*
X74026993Y-94265600D01*
X74026993Y-94265600D02*
X73988897Y-94189409D01*
X73493659Y-92856075D02*
X74293659Y-92856075D01*
X73531755Y-92856075D02*
X73493659Y-92932266D01*
X73493659Y-92932266D02*
X73493659Y-93084647D01*
X73493659Y-93084647D02*
X73531755Y-93160837D01*
X73531755Y-93160837D02*
X73569850Y-93198932D01*
X73569850Y-93198932D02*
X73646040Y-93237028D01*
X73646040Y-93237028D02*
X73874612Y-93237028D01*
X73874612Y-93237028D02*
X73950802Y-93198932D01*
X73950802Y-93198932D02*
X73988897Y-93160837D01*
X73988897Y-93160837D02*
X74026993Y-93084647D01*
X74026993Y-93084647D02*
X74026993Y-92932266D01*
X74026993Y-92932266D02*
X73988897Y-92856075D01*
X73493659Y-92475122D02*
X74026993Y-92475122D01*
X74293659Y-92475122D02*
X74255564Y-92513218D01*
X74255564Y-92513218D02*
X74217469Y-92475122D01*
X74217469Y-92475122D02*
X74255564Y-92437027D01*
X74255564Y-92437027D02*
X74293659Y-92475122D01*
X74293659Y-92475122D02*
X74217469Y-92475122D01*
X73493659Y-92094170D02*
X74026993Y-92094170D01*
X73874612Y-92094170D02*
X73950802Y-92056075D01*
X73950802Y-92056075D02*
X73988897Y-92017980D01*
X73988897Y-92017980D02*
X74026993Y-91941789D01*
X74026993Y-91941789D02*
X74026993Y-91865599D01*
X73531755Y-91294170D02*
X73493659Y-91370361D01*
X73493659Y-91370361D02*
X73493659Y-91522742D01*
X73493659Y-91522742D02*
X73531755Y-91598932D01*
X73531755Y-91598932D02*
X73607945Y-91637028D01*
X73607945Y-91637028D02*
X73912707Y-91637028D01*
X73912707Y-91637028D02*
X73988897Y-91598932D01*
X73988897Y-91598932D02*
X74026993Y-91522742D01*
X74026993Y-91522742D02*
X74026993Y-91370361D01*
X74026993Y-91370361D02*
X73988897Y-91294170D01*
X73988897Y-91294170D02*
X73912707Y-91256075D01*
X73912707Y-91256075D02*
X73836516Y-91256075D01*
X73836516Y-91256075D02*
X73760326Y-91637028D01*
X73531755Y-90570361D02*
X73493659Y-90646552D01*
X73493659Y-90646552D02*
X73493659Y-90798933D01*
X73493659Y-90798933D02*
X73531755Y-90875123D01*
X73531755Y-90875123D02*
X73569850Y-90913218D01*
X73569850Y-90913218D02*
X73646040Y-90951314D01*
X73646040Y-90951314D02*
X73874612Y-90951314D01*
X73874612Y-90951314D02*
X73950802Y-90913218D01*
X73950802Y-90913218D02*
X73988897Y-90875123D01*
X73988897Y-90875123D02*
X74026993Y-90798933D01*
X74026993Y-90798933D02*
X74026993Y-90646552D01*
X74026993Y-90646552D02*
X73988897Y-90570361D01*
X74026993Y-90341790D02*
X74026993Y-90037028D01*
X74293659Y-90227504D02*
X73607945Y-90227504D01*
X73607945Y-90227504D02*
X73531755Y-90189409D01*
X73531755Y-90189409D02*
X73493659Y-90113219D01*
X73493659Y-90113219D02*
X73493659Y-90037028D01*
X73493659Y-89656076D02*
X73531755Y-89732266D01*
X73531755Y-89732266D02*
X73607945Y-89770361D01*
X73607945Y-89770361D02*
X74293659Y-89770361D01*
X74026993Y-89427504D02*
X73493659Y-89237028D01*
X74026993Y-89046551D02*
X73493659Y-89237028D01*
X73493659Y-89237028D02*
X73303183Y-89313218D01*
X73303183Y-89313218D02*
X73265088Y-89351313D01*
X73265088Y-89351313D02*
X73226993Y-89427504D01*
X73493659Y-88017980D02*
X73531755Y-88094170D01*
X73531755Y-88094170D02*
X73569850Y-88132265D01*
X73569850Y-88132265D02*
X73646040Y-88170361D01*
X73646040Y-88170361D02*
X73874612Y-88170361D01*
X73874612Y-88170361D02*
X73950802Y-88132265D01*
X73950802Y-88132265D02*
X73988897Y-88094170D01*
X73988897Y-88094170D02*
X74026993Y-88017980D01*
X74026993Y-88017980D02*
X74026993Y-87903694D01*
X74026993Y-87903694D02*
X73988897Y-87827503D01*
X73988897Y-87827503D02*
X73950802Y-87789408D01*
X73950802Y-87789408D02*
X73874612Y-87751313D01*
X73874612Y-87751313D02*
X73646040Y-87751313D01*
X73646040Y-87751313D02*
X73569850Y-87789408D01*
X73569850Y-87789408D02*
X73531755Y-87827503D01*
X73531755Y-87827503D02*
X73493659Y-87903694D01*
X73493659Y-87903694D02*
X73493659Y-88017980D01*
X74026993Y-87408455D02*
X73493659Y-87408455D01*
X73950802Y-87408455D02*
X73988897Y-87370360D01*
X73988897Y-87370360D02*
X74026993Y-87294170D01*
X74026993Y-87294170D02*
X74026993Y-87179884D01*
X74026993Y-87179884D02*
X73988897Y-87103693D01*
X73988897Y-87103693D02*
X73912707Y-87065598D01*
X73912707Y-87065598D02*
X73493659Y-87065598D01*
X73531755Y-85732264D02*
X73493659Y-85808455D01*
X73493659Y-85808455D02*
X73493659Y-85960836D01*
X73493659Y-85960836D02*
X73531755Y-86037026D01*
X73531755Y-86037026D02*
X73569850Y-86075121D01*
X73569850Y-86075121D02*
X73646040Y-86113217D01*
X73646040Y-86113217D02*
X73874612Y-86113217D01*
X73874612Y-86113217D02*
X73950802Y-86075121D01*
X73950802Y-86075121D02*
X73988897Y-86037026D01*
X73988897Y-86037026D02*
X74026993Y-85960836D01*
X74026993Y-85960836D02*
X74026993Y-85808455D01*
X74026993Y-85808455D02*
X73988897Y-85732264D01*
X73493659Y-85275122D02*
X73531755Y-85351312D01*
X73531755Y-85351312D02*
X73569850Y-85389407D01*
X73569850Y-85389407D02*
X73646040Y-85427503D01*
X73646040Y-85427503D02*
X73874612Y-85427503D01*
X73874612Y-85427503D02*
X73950802Y-85389407D01*
X73950802Y-85389407D02*
X73988897Y-85351312D01*
X73988897Y-85351312D02*
X74026993Y-85275122D01*
X74026993Y-85275122D02*
X74026993Y-85160836D01*
X74026993Y-85160836D02*
X73988897Y-85084645D01*
X73988897Y-85084645D02*
X73950802Y-85046550D01*
X73950802Y-85046550D02*
X73874612Y-85008455D01*
X73874612Y-85008455D02*
X73646040Y-85008455D01*
X73646040Y-85008455D02*
X73569850Y-85046550D01*
X73569850Y-85046550D02*
X73531755Y-85084645D01*
X73531755Y-85084645D02*
X73493659Y-85160836D01*
X73493659Y-85160836D02*
X73493659Y-85275122D01*
X74026993Y-84665597D02*
X73493659Y-84665597D01*
X73950802Y-84665597D02*
X73988897Y-84627502D01*
X73988897Y-84627502D02*
X74026993Y-84551312D01*
X74026993Y-84551312D02*
X74026993Y-84437026D01*
X74026993Y-84437026D02*
X73988897Y-84360835D01*
X73988897Y-84360835D02*
X73912707Y-84322740D01*
X73912707Y-84322740D02*
X73493659Y-84322740D01*
X73493659Y-83598930D02*
X74293659Y-83598930D01*
X73531755Y-83598930D02*
X73493659Y-83675121D01*
X73493659Y-83675121D02*
X73493659Y-83827502D01*
X73493659Y-83827502D02*
X73531755Y-83903692D01*
X73531755Y-83903692D02*
X73569850Y-83941787D01*
X73569850Y-83941787D02*
X73646040Y-83979883D01*
X73646040Y-83979883D02*
X73874612Y-83979883D01*
X73874612Y-83979883D02*
X73950802Y-83941787D01*
X73950802Y-83941787D02*
X73988897Y-83903692D01*
X73988897Y-83903692D02*
X74026993Y-83827502D01*
X74026993Y-83827502D02*
X74026993Y-83675121D01*
X74026993Y-83675121D02*
X73988897Y-83598930D01*
X74026993Y-82875120D02*
X73493659Y-82875120D01*
X74026993Y-83217977D02*
X73607945Y-83217977D01*
X73607945Y-83217977D02*
X73531755Y-83179882D01*
X73531755Y-83179882D02*
X73493659Y-83103692D01*
X73493659Y-83103692D02*
X73493659Y-82989406D01*
X73493659Y-82989406D02*
X73531755Y-82913215D01*
X73531755Y-82913215D02*
X73569850Y-82875120D01*
X73531755Y-82151310D02*
X73493659Y-82227501D01*
X73493659Y-82227501D02*
X73493659Y-82379882D01*
X73493659Y-82379882D02*
X73531755Y-82456072D01*
X73531755Y-82456072D02*
X73569850Y-82494167D01*
X73569850Y-82494167D02*
X73646040Y-82532263D01*
X73646040Y-82532263D02*
X73874612Y-82532263D01*
X73874612Y-82532263D02*
X73950802Y-82494167D01*
X73950802Y-82494167D02*
X73988897Y-82456072D01*
X73988897Y-82456072D02*
X74026993Y-82379882D01*
X74026993Y-82379882D02*
X74026993Y-82227501D01*
X74026993Y-82227501D02*
X73988897Y-82151310D01*
X74026993Y-81922739D02*
X74026993Y-81617977D01*
X74293659Y-81808453D02*
X73607945Y-81808453D01*
X73607945Y-81808453D02*
X73531755Y-81770358D01*
X73531755Y-81770358D02*
X73493659Y-81694168D01*
X73493659Y-81694168D02*
X73493659Y-81617977D01*
X73493659Y-81351310D02*
X74026993Y-81351310D01*
X74293659Y-81351310D02*
X74255564Y-81389406D01*
X74255564Y-81389406D02*
X74217469Y-81351310D01*
X74217469Y-81351310D02*
X74255564Y-81313215D01*
X74255564Y-81313215D02*
X74293659Y-81351310D01*
X74293659Y-81351310D02*
X74217469Y-81351310D01*
X74026993Y-81046549D02*
X73493659Y-80856073D01*
X73493659Y-80856073D02*
X74026993Y-80665596D01*
X73531755Y-80056072D02*
X73493659Y-80132263D01*
X73493659Y-80132263D02*
X73493659Y-80284644D01*
X73493659Y-80284644D02*
X73531755Y-80360834D01*
X73531755Y-80360834D02*
X73607945Y-80398930D01*
X73607945Y-80398930D02*
X73912707Y-80398930D01*
X73912707Y-80398930D02*
X73988897Y-80360834D01*
X73988897Y-80360834D02*
X74026993Y-80284644D01*
X74026993Y-80284644D02*
X74026993Y-80132263D01*
X74026993Y-80132263D02*
X73988897Y-80056072D01*
X73988897Y-80056072D02*
X73912707Y-80017977D01*
X73912707Y-80017977D02*
X73836516Y-80017977D01*
X73836516Y-80017977D02*
X73760326Y-80398930D01*
X74026993Y-78722739D02*
X73379374Y-78722739D01*
X73379374Y-78722739D02*
X73303183Y-78760834D01*
X73303183Y-78760834D02*
X73265088Y-78798930D01*
X73265088Y-78798930D02*
X73226993Y-78875120D01*
X73226993Y-78875120D02*
X73226993Y-78989406D01*
X73226993Y-78989406D02*
X73265088Y-79065596D01*
X73531755Y-78722739D02*
X73493659Y-78798930D01*
X73493659Y-78798930D02*
X73493659Y-78951311D01*
X73493659Y-78951311D02*
X73531755Y-79027501D01*
X73531755Y-79027501D02*
X73569850Y-79065596D01*
X73569850Y-79065596D02*
X73646040Y-79103692D01*
X73646040Y-79103692D02*
X73874612Y-79103692D01*
X73874612Y-79103692D02*
X73950802Y-79065596D01*
X73950802Y-79065596D02*
X73988897Y-79027501D01*
X73988897Y-79027501D02*
X74026993Y-78951311D01*
X74026993Y-78951311D02*
X74026993Y-78798930D01*
X74026993Y-78798930D02*
X73988897Y-78722739D01*
X73493659Y-78341786D02*
X74026993Y-78341786D01*
X73874612Y-78341786D02*
X73950802Y-78303691D01*
X73950802Y-78303691D02*
X73988897Y-78265596D01*
X73988897Y-78265596D02*
X74026993Y-78189405D01*
X74026993Y-78189405D02*
X74026993Y-78113215D01*
X73493659Y-77732263D02*
X73531755Y-77808453D01*
X73531755Y-77808453D02*
X73569850Y-77846548D01*
X73569850Y-77846548D02*
X73646040Y-77884644D01*
X73646040Y-77884644D02*
X73874612Y-77884644D01*
X73874612Y-77884644D02*
X73950802Y-77846548D01*
X73950802Y-77846548D02*
X73988897Y-77808453D01*
X73988897Y-77808453D02*
X74026993Y-77732263D01*
X74026993Y-77732263D02*
X74026993Y-77617977D01*
X74026993Y-77617977D02*
X73988897Y-77541786D01*
X73988897Y-77541786D02*
X73950802Y-77503691D01*
X73950802Y-77503691D02*
X73874612Y-77465596D01*
X73874612Y-77465596D02*
X73646040Y-77465596D01*
X73646040Y-77465596D02*
X73569850Y-77503691D01*
X73569850Y-77503691D02*
X73531755Y-77541786D01*
X73531755Y-77541786D02*
X73493659Y-77617977D01*
X73493659Y-77617977D02*
X73493659Y-77732263D01*
X74026993Y-76779881D02*
X73493659Y-76779881D01*
X74026993Y-77122738D02*
X73607945Y-77122738D01*
X73607945Y-77122738D02*
X73531755Y-77084643D01*
X73531755Y-77084643D02*
X73493659Y-77008453D01*
X73493659Y-77008453D02*
X73493659Y-76894167D01*
X73493659Y-76894167D02*
X73531755Y-76817976D01*
X73531755Y-76817976D02*
X73569850Y-76779881D01*
X74026993Y-76398928D02*
X73493659Y-76398928D01*
X73950802Y-76398928D02*
X73988897Y-76360833D01*
X73988897Y-76360833D02*
X74026993Y-76284643D01*
X74026993Y-76284643D02*
X74026993Y-76170357D01*
X74026993Y-76170357D02*
X73988897Y-76094166D01*
X73988897Y-76094166D02*
X73912707Y-76056071D01*
X73912707Y-76056071D02*
X73493659Y-76056071D01*
X73493659Y-75332261D02*
X74293659Y-75332261D01*
X73531755Y-75332261D02*
X73493659Y-75408452D01*
X73493659Y-75408452D02*
X73493659Y-75560833D01*
X73493659Y-75560833D02*
X73531755Y-75637023D01*
X73531755Y-75637023D02*
X73569850Y-75675118D01*
X73569850Y-75675118D02*
X73646040Y-75713214D01*
X73646040Y-75713214D02*
X73874612Y-75713214D01*
X73874612Y-75713214D02*
X73950802Y-75675118D01*
X73950802Y-75675118D02*
X73988897Y-75637023D01*
X73988897Y-75637023D02*
X74026993Y-75560833D01*
X74026993Y-75560833D02*
X74026993Y-75408452D01*
X74026993Y-75408452D02*
X73988897Y-75332261D01*
X73569850Y-74951308D02*
X73531755Y-74913213D01*
X73531755Y-74913213D02*
X73493659Y-74951308D01*
X73493659Y-74951308D02*
X73531755Y-74989404D01*
X73531755Y-74989404D02*
X73569850Y-74951308D01*
X73569850Y-74951308D02*
X73493659Y-74951308D01*
X72205704Y-100360839D02*
X73005704Y-100360839D01*
X73005704Y-100360839D02*
X72434276Y-100094173D01*
X72434276Y-100094173D02*
X73005704Y-99827506D01*
X73005704Y-99827506D02*
X72205704Y-99827506D01*
X72205704Y-99332268D02*
X72243800Y-99408458D01*
X72243800Y-99408458D02*
X72281895Y-99446553D01*
X72281895Y-99446553D02*
X72358085Y-99484649D01*
X72358085Y-99484649D02*
X72586657Y-99484649D01*
X72586657Y-99484649D02*
X72662847Y-99446553D01*
X72662847Y-99446553D02*
X72700942Y-99408458D01*
X72700942Y-99408458D02*
X72739038Y-99332268D01*
X72739038Y-99332268D02*
X72739038Y-99217982D01*
X72739038Y-99217982D02*
X72700942Y-99141791D01*
X72700942Y-99141791D02*
X72662847Y-99103696D01*
X72662847Y-99103696D02*
X72586657Y-99065601D01*
X72586657Y-99065601D02*
X72358085Y-99065601D01*
X72358085Y-99065601D02*
X72281895Y-99103696D01*
X72281895Y-99103696D02*
X72243800Y-99141791D01*
X72243800Y-99141791D02*
X72205704Y-99217982D01*
X72205704Y-99217982D02*
X72205704Y-99332268D01*
X72739038Y-98379886D02*
X72205704Y-98379886D01*
X72739038Y-98722743D02*
X72319990Y-98722743D01*
X72319990Y-98722743D02*
X72243800Y-98684648D01*
X72243800Y-98684648D02*
X72205704Y-98608458D01*
X72205704Y-98608458D02*
X72205704Y-98494172D01*
X72205704Y-98494172D02*
X72243800Y-98417981D01*
X72243800Y-98417981D02*
X72281895Y-98379886D01*
X72739038Y-97998933D02*
X72205704Y-97998933D01*
X72662847Y-97998933D02*
X72700942Y-97960838D01*
X72700942Y-97960838D02*
X72739038Y-97884648D01*
X72739038Y-97884648D02*
X72739038Y-97770362D01*
X72739038Y-97770362D02*
X72700942Y-97694171D01*
X72700942Y-97694171D02*
X72624752Y-97656076D01*
X72624752Y-97656076D02*
X72205704Y-97656076D01*
X72739038Y-97389409D02*
X72739038Y-97084647D01*
X73005704Y-97275123D02*
X72319990Y-97275123D01*
X72319990Y-97275123D02*
X72243800Y-97237028D01*
X72243800Y-97237028D02*
X72205704Y-97160838D01*
X72205704Y-97160838D02*
X72205704Y-97084647D01*
X72205704Y-96817980D02*
X72739038Y-96817980D01*
X73005704Y-96817980D02*
X72967609Y-96856076D01*
X72967609Y-96856076D02*
X72929514Y-96817980D01*
X72929514Y-96817980D02*
X72967609Y-96779885D01*
X72967609Y-96779885D02*
X73005704Y-96817980D01*
X73005704Y-96817980D02*
X72929514Y-96817980D01*
X72739038Y-96437028D02*
X72205704Y-96437028D01*
X72662847Y-96437028D02*
X72700942Y-96398933D01*
X72700942Y-96398933D02*
X72739038Y-96322743D01*
X72739038Y-96322743D02*
X72739038Y-96208457D01*
X72739038Y-96208457D02*
X72700942Y-96132266D01*
X72700942Y-96132266D02*
X72624752Y-96094171D01*
X72624752Y-96094171D02*
X72205704Y-96094171D01*
X72739038Y-95370361D02*
X72091419Y-95370361D01*
X72091419Y-95370361D02*
X72015228Y-95408456D01*
X72015228Y-95408456D02*
X71977133Y-95446552D01*
X71977133Y-95446552D02*
X71939038Y-95522742D01*
X71939038Y-95522742D02*
X71939038Y-95637028D01*
X71939038Y-95637028D02*
X71977133Y-95713218D01*
X72243800Y-95370361D02*
X72205704Y-95446552D01*
X72205704Y-95446552D02*
X72205704Y-95598933D01*
X72205704Y-95598933D02*
X72243800Y-95675123D01*
X72243800Y-95675123D02*
X72281895Y-95713218D01*
X72281895Y-95713218D02*
X72358085Y-95751314D01*
X72358085Y-95751314D02*
X72586657Y-95751314D01*
X72586657Y-95751314D02*
X72662847Y-95713218D01*
X72662847Y-95713218D02*
X72700942Y-95675123D01*
X72700942Y-95675123D02*
X72739038Y-95598933D01*
X72739038Y-95598933D02*
X72739038Y-95446552D01*
X72739038Y-95446552D02*
X72700942Y-95370361D01*
X72205704Y-94265599D02*
X72243800Y-94341789D01*
X72243800Y-94341789D02*
X72281895Y-94379884D01*
X72281895Y-94379884D02*
X72358085Y-94417980D01*
X72358085Y-94417980D02*
X72586657Y-94417980D01*
X72586657Y-94417980D02*
X72662847Y-94379884D01*
X72662847Y-94379884D02*
X72700942Y-94341789D01*
X72700942Y-94341789D02*
X72739038Y-94265599D01*
X72739038Y-94265599D02*
X72739038Y-94151313D01*
X72739038Y-94151313D02*
X72700942Y-94075122D01*
X72700942Y-94075122D02*
X72662847Y-94037027D01*
X72662847Y-94037027D02*
X72586657Y-93998932D01*
X72586657Y-93998932D02*
X72358085Y-93998932D01*
X72358085Y-93998932D02*
X72281895Y-94037027D01*
X72281895Y-94037027D02*
X72243800Y-94075122D01*
X72243800Y-94075122D02*
X72205704Y-94151313D01*
X72205704Y-94151313D02*
X72205704Y-94265599D01*
X72739038Y-93656074D02*
X72205704Y-93656074D01*
X72662847Y-93656074D02*
X72700942Y-93617979D01*
X72700942Y-93617979D02*
X72739038Y-93541789D01*
X72739038Y-93541789D02*
X72739038Y-93427503D01*
X72739038Y-93427503D02*
X72700942Y-93351312D01*
X72700942Y-93351312D02*
X72624752Y-93313217D01*
X72624752Y-93313217D02*
X72205704Y-93313217D01*
X72205704Y-92817979D02*
X72243800Y-92894169D01*
X72243800Y-92894169D02*
X72319990Y-92932264D01*
X72319990Y-92932264D02*
X73005704Y-92932264D01*
X72739038Y-92589407D02*
X72205704Y-92398931D01*
X72739038Y-92208454D02*
X72205704Y-92398931D01*
X72205704Y-92398931D02*
X72015228Y-92475121D01*
X72015228Y-92475121D02*
X71977133Y-92513216D01*
X71977133Y-92513216D02*
X71939038Y-92589407D01*
X72739038Y-91370359D02*
X72205704Y-91217978D01*
X72205704Y-91217978D02*
X72586657Y-91065597D01*
X72586657Y-91065597D02*
X72205704Y-90913216D01*
X72205704Y-90913216D02*
X72739038Y-90760835D01*
X72205704Y-90456073D02*
X72739038Y-90456073D01*
X73005704Y-90456073D02*
X72967609Y-90494169D01*
X72967609Y-90494169D02*
X72929514Y-90456073D01*
X72929514Y-90456073D02*
X72967609Y-90417978D01*
X72967609Y-90417978D02*
X73005704Y-90456073D01*
X73005704Y-90456073D02*
X72929514Y-90456073D01*
X72739038Y-90189407D02*
X72739038Y-89884645D01*
X73005704Y-90075121D02*
X72319990Y-90075121D01*
X72319990Y-90075121D02*
X72243800Y-90037026D01*
X72243800Y-90037026D02*
X72205704Y-89960836D01*
X72205704Y-89960836D02*
X72205704Y-89884645D01*
X72205704Y-89617978D02*
X73005704Y-89617978D01*
X72205704Y-89275121D02*
X72624752Y-89275121D01*
X72624752Y-89275121D02*
X72700942Y-89313216D01*
X72700942Y-89313216D02*
X72739038Y-89389407D01*
X72739038Y-89389407D02*
X72739038Y-89503693D01*
X72739038Y-89503693D02*
X72700942Y-89579883D01*
X72700942Y-89579883D02*
X72662847Y-89617978D01*
X72739038Y-88284644D02*
X72205704Y-88284644D01*
X72662847Y-88284644D02*
X72700942Y-88246549D01*
X72700942Y-88246549D02*
X72739038Y-88170359D01*
X72739038Y-88170359D02*
X72739038Y-88056073D01*
X72739038Y-88056073D02*
X72700942Y-87979882D01*
X72700942Y-87979882D02*
X72624752Y-87941787D01*
X72624752Y-87941787D02*
X72205704Y-87941787D01*
X72205704Y-87446549D02*
X72243800Y-87522739D01*
X72243800Y-87522739D02*
X72281895Y-87560834D01*
X72281895Y-87560834D02*
X72358085Y-87598930D01*
X72358085Y-87598930D02*
X72586657Y-87598930D01*
X72586657Y-87598930D02*
X72662847Y-87560834D01*
X72662847Y-87560834D02*
X72700942Y-87522739D01*
X72700942Y-87522739D02*
X72739038Y-87446549D01*
X72739038Y-87446549D02*
X72739038Y-87332263D01*
X72739038Y-87332263D02*
X72700942Y-87256072D01*
X72700942Y-87256072D02*
X72662847Y-87217977D01*
X72662847Y-87217977D02*
X72586657Y-87179882D01*
X72586657Y-87179882D02*
X72358085Y-87179882D01*
X72358085Y-87179882D02*
X72281895Y-87217977D01*
X72281895Y-87217977D02*
X72243800Y-87256072D01*
X72243800Y-87256072D02*
X72205704Y-87332263D01*
X72205704Y-87332263D02*
X72205704Y-87446549D01*
X72739038Y-86837024D02*
X72205704Y-86837024D01*
X72662847Y-86837024D02*
X72700942Y-86798929D01*
X72700942Y-86798929D02*
X72739038Y-86722739D01*
X72739038Y-86722739D02*
X72739038Y-86608453D01*
X72739038Y-86608453D02*
X72700942Y-86532262D01*
X72700942Y-86532262D02*
X72624752Y-86494167D01*
X72624752Y-86494167D02*
X72205704Y-86494167D01*
X72510466Y-86113214D02*
X72510466Y-85503691D01*
X72243800Y-84779881D02*
X72205704Y-84856072D01*
X72205704Y-84856072D02*
X72205704Y-85008453D01*
X72205704Y-85008453D02*
X72243800Y-85084643D01*
X72243800Y-85084643D02*
X72281895Y-85122738D01*
X72281895Y-85122738D02*
X72358085Y-85160834D01*
X72358085Y-85160834D02*
X72586657Y-85160834D01*
X72586657Y-85160834D02*
X72662847Y-85122738D01*
X72662847Y-85122738D02*
X72700942Y-85084643D01*
X72700942Y-85084643D02*
X72739038Y-85008453D01*
X72739038Y-85008453D02*
X72739038Y-84856072D01*
X72739038Y-84856072D02*
X72700942Y-84779881D01*
X72205704Y-84322739D02*
X72243800Y-84398929D01*
X72243800Y-84398929D02*
X72281895Y-84437024D01*
X72281895Y-84437024D02*
X72358085Y-84475120D01*
X72358085Y-84475120D02*
X72586657Y-84475120D01*
X72586657Y-84475120D02*
X72662847Y-84437024D01*
X72662847Y-84437024D02*
X72700942Y-84398929D01*
X72700942Y-84398929D02*
X72739038Y-84322739D01*
X72739038Y-84322739D02*
X72739038Y-84208453D01*
X72739038Y-84208453D02*
X72700942Y-84132262D01*
X72700942Y-84132262D02*
X72662847Y-84094167D01*
X72662847Y-84094167D02*
X72586657Y-84056072D01*
X72586657Y-84056072D02*
X72358085Y-84056072D01*
X72358085Y-84056072D02*
X72281895Y-84094167D01*
X72281895Y-84094167D02*
X72243800Y-84132262D01*
X72243800Y-84132262D02*
X72205704Y-84208453D01*
X72205704Y-84208453D02*
X72205704Y-84322739D01*
X72739038Y-83713214D02*
X72205704Y-83713214D01*
X72662847Y-83713214D02*
X72700942Y-83675119D01*
X72700942Y-83675119D02*
X72739038Y-83598929D01*
X72739038Y-83598929D02*
X72739038Y-83484643D01*
X72739038Y-83484643D02*
X72700942Y-83408452D01*
X72700942Y-83408452D02*
X72624752Y-83370357D01*
X72624752Y-83370357D02*
X72205704Y-83370357D01*
X72205704Y-82646547D02*
X73005704Y-82646547D01*
X72243800Y-82646547D02*
X72205704Y-82722738D01*
X72205704Y-82722738D02*
X72205704Y-82875119D01*
X72205704Y-82875119D02*
X72243800Y-82951309D01*
X72243800Y-82951309D02*
X72281895Y-82989404D01*
X72281895Y-82989404D02*
X72358085Y-83027500D01*
X72358085Y-83027500D02*
X72586657Y-83027500D01*
X72586657Y-83027500D02*
X72662847Y-82989404D01*
X72662847Y-82989404D02*
X72700942Y-82951309D01*
X72700942Y-82951309D02*
X72739038Y-82875119D01*
X72739038Y-82875119D02*
X72739038Y-82722738D01*
X72739038Y-82722738D02*
X72700942Y-82646547D01*
X72739038Y-81922737D02*
X72205704Y-81922737D01*
X72739038Y-82265594D02*
X72319990Y-82265594D01*
X72319990Y-82265594D02*
X72243800Y-82227499D01*
X72243800Y-82227499D02*
X72205704Y-82151309D01*
X72205704Y-82151309D02*
X72205704Y-82037023D01*
X72205704Y-82037023D02*
X72243800Y-81960832D01*
X72243800Y-81960832D02*
X72281895Y-81922737D01*
X72243800Y-81198927D02*
X72205704Y-81275118D01*
X72205704Y-81275118D02*
X72205704Y-81427499D01*
X72205704Y-81427499D02*
X72243800Y-81503689D01*
X72243800Y-81503689D02*
X72281895Y-81541784D01*
X72281895Y-81541784D02*
X72358085Y-81579880D01*
X72358085Y-81579880D02*
X72586657Y-81579880D01*
X72586657Y-81579880D02*
X72662847Y-81541784D01*
X72662847Y-81541784D02*
X72700942Y-81503689D01*
X72700942Y-81503689D02*
X72739038Y-81427499D01*
X72739038Y-81427499D02*
X72739038Y-81275118D01*
X72739038Y-81275118D02*
X72700942Y-81198927D01*
X72739038Y-80970356D02*
X72739038Y-80665594D01*
X73005704Y-80856070D02*
X72319990Y-80856070D01*
X72319990Y-80856070D02*
X72243800Y-80817975D01*
X72243800Y-80817975D02*
X72205704Y-80741785D01*
X72205704Y-80741785D02*
X72205704Y-80665594D01*
X72205704Y-80398927D02*
X72739038Y-80398927D01*
X73005704Y-80398927D02*
X72967609Y-80437023D01*
X72967609Y-80437023D02*
X72929514Y-80398927D01*
X72929514Y-80398927D02*
X72967609Y-80360832D01*
X72967609Y-80360832D02*
X73005704Y-80398927D01*
X73005704Y-80398927D02*
X72929514Y-80398927D01*
X72739038Y-80094166D02*
X72205704Y-79903690D01*
X72205704Y-79903690D02*
X72739038Y-79713213D01*
X72243800Y-79103689D02*
X72205704Y-79179880D01*
X72205704Y-79179880D02*
X72205704Y-79332261D01*
X72205704Y-79332261D02*
X72243800Y-79408451D01*
X72243800Y-79408451D02*
X72319990Y-79446547D01*
X72319990Y-79446547D02*
X72624752Y-79446547D01*
X72624752Y-79446547D02*
X72700942Y-79408451D01*
X72700942Y-79408451D02*
X72739038Y-79332261D01*
X72739038Y-79332261D02*
X72739038Y-79179880D01*
X72739038Y-79179880D02*
X72700942Y-79103689D01*
X72700942Y-79103689D02*
X72624752Y-79065594D01*
X72624752Y-79065594D02*
X72548561Y-79065594D01*
X72548561Y-79065594D02*
X72472371Y-79446547D01*
X72243800Y-78151309D02*
X72205704Y-78075118D01*
X72205704Y-78075118D02*
X72205704Y-77922737D01*
X72205704Y-77922737D02*
X72243800Y-77846547D01*
X72243800Y-77846547D02*
X72319990Y-77808451D01*
X72319990Y-77808451D02*
X72358085Y-77808451D01*
X72358085Y-77808451D02*
X72434276Y-77846547D01*
X72434276Y-77846547D02*
X72472371Y-77922737D01*
X72472371Y-77922737D02*
X72472371Y-78037023D01*
X72472371Y-78037023D02*
X72510466Y-78113213D01*
X72510466Y-78113213D02*
X72586657Y-78151309D01*
X72586657Y-78151309D02*
X72624752Y-78151309D01*
X72624752Y-78151309D02*
X72700942Y-78113213D01*
X72700942Y-78113213D02*
X72739038Y-78037023D01*
X72739038Y-78037023D02*
X72739038Y-77922737D01*
X72739038Y-77922737D02*
X72700942Y-77846547D01*
X72243800Y-77122737D02*
X72205704Y-77198928D01*
X72205704Y-77198928D02*
X72205704Y-77351309D01*
X72205704Y-77351309D02*
X72243800Y-77427499D01*
X72243800Y-77427499D02*
X72281895Y-77465594D01*
X72281895Y-77465594D02*
X72358085Y-77503690D01*
X72358085Y-77503690D02*
X72586657Y-77503690D01*
X72586657Y-77503690D02*
X72662847Y-77465594D01*
X72662847Y-77465594D02*
X72700942Y-77427499D01*
X72700942Y-77427499D02*
X72739038Y-77351309D01*
X72739038Y-77351309D02*
X72739038Y-77198928D01*
X72739038Y-77198928D02*
X72700942Y-77122737D01*
X72205704Y-76779880D02*
X72739038Y-76779880D01*
X72586657Y-76779880D02*
X72662847Y-76741785D01*
X72662847Y-76741785D02*
X72700942Y-76703690D01*
X72700942Y-76703690D02*
X72739038Y-76627499D01*
X72739038Y-76627499D02*
X72739038Y-76551309D01*
X72243800Y-75979880D02*
X72205704Y-76056071D01*
X72205704Y-76056071D02*
X72205704Y-76208452D01*
X72205704Y-76208452D02*
X72243800Y-76284642D01*
X72243800Y-76284642D02*
X72319990Y-76322738D01*
X72319990Y-76322738D02*
X72624752Y-76322738D01*
X72624752Y-76322738D02*
X72700942Y-76284642D01*
X72700942Y-76284642D02*
X72739038Y-76208452D01*
X72739038Y-76208452D02*
X72739038Y-76056071D01*
X72739038Y-76056071D02*
X72700942Y-75979880D01*
X72700942Y-75979880D02*
X72624752Y-75941785D01*
X72624752Y-75941785D02*
X72548561Y-75941785D01*
X72548561Y-75941785D02*
X72472371Y-76322738D01*
X72739038Y-75675119D02*
X72205704Y-75522738D01*
X72205704Y-75522738D02*
X72586657Y-75370357D01*
X72586657Y-75370357D02*
X72205704Y-75217976D01*
X72205704Y-75217976D02*
X72739038Y-75065595D01*
X72243800Y-74798929D02*
X72205704Y-74722738D01*
X72205704Y-74722738D02*
X72205704Y-74570357D01*
X72205704Y-74570357D02*
X72243800Y-74494167D01*
X72243800Y-74494167D02*
X72319990Y-74456071D01*
X72319990Y-74456071D02*
X72358085Y-74456071D01*
X72358085Y-74456071D02*
X72434276Y-74494167D01*
X72434276Y-74494167D02*
X72472371Y-74570357D01*
X72472371Y-74570357D02*
X72472371Y-74684643D01*
X72472371Y-74684643D02*
X72510466Y-74760833D01*
X72510466Y-74760833D02*
X72586657Y-74798929D01*
X72586657Y-74798929D02*
X72624752Y-74798929D01*
X72624752Y-74798929D02*
X72700942Y-74760833D01*
X72700942Y-74760833D02*
X72739038Y-74684643D01*
X72739038Y-74684643D02*
X72739038Y-74570357D01*
X72739038Y-74570357D02*
X72700942Y-74494167D01*
X72281895Y-74113214D02*
X72243800Y-74075119D01*
X72243800Y-74075119D02*
X72205704Y-74113214D01*
X72205704Y-74113214D02*
X72243800Y-74151310D01*
X72243800Y-74151310D02*
X72281895Y-74113214D01*
X72281895Y-74113214D02*
X72205704Y-74113214D01*
X72510466Y-74113214D02*
X72967609Y-74151310D01*
X72967609Y-74151310D02*
X73005704Y-74113214D01*
X73005704Y-74113214D02*
X72967609Y-74075119D01*
X72967609Y-74075119D02*
X72510466Y-74113214D01*
X72510466Y-74113214D02*
X73005704Y-74113214D01*
D11*
X81195794Y-104429268D02*
X80052937Y-104429268D01*
X80624366Y-106429268D02*
X80624366Y-104429268D01*
X79481508Y-106334030D02*
X79195794Y-106429268D01*
X79195794Y-106429268D02*
X78719603Y-106429268D01*
X78719603Y-106429268D02*
X78529127Y-106334030D01*
X78529127Y-106334030D02*
X78433889Y-106238791D01*
X78433889Y-106238791D02*
X78338651Y-106048315D01*
X78338651Y-106048315D02*
X78338651Y-105857839D01*
X78338651Y-105857839D02*
X78433889Y-105667363D01*
X78433889Y-105667363D02*
X78529127Y-105572125D01*
X78529127Y-105572125D02*
X78719603Y-105476887D01*
X78719603Y-105476887D02*
X79100556Y-105381649D01*
X79100556Y-105381649D02*
X79291032Y-105286410D01*
X79291032Y-105286410D02*
X79386270Y-105191172D01*
X79386270Y-105191172D02*
X79481508Y-105000696D01*
X79481508Y-105000696D02*
X79481508Y-104810220D01*
X79481508Y-104810220D02*
X79386270Y-104619744D01*
X79386270Y-104619744D02*
X79291032Y-104524506D01*
X79291032Y-104524506D02*
X79100556Y-104429268D01*
X79100556Y-104429268D02*
X78624365Y-104429268D01*
X78624365Y-104429268D02*
X78338651Y-104524506D01*
D10*
X86242857Y-105569771D02*
X86242857Y-105969771D01*
X86385714Y-105341200D02*
X86528571Y-105769771D01*
X86528571Y-105769771D02*
X86157142Y-105769771D01*
X85928570Y-105912628D02*
X85899999Y-105941200D01*
X85899999Y-105941200D02*
X85928570Y-105969771D01*
X85928570Y-105969771D02*
X85957142Y-105941200D01*
X85957142Y-105941200D02*
X85928570Y-105912628D01*
X85928570Y-105912628D02*
X85928570Y-105969771D01*
X85671428Y-105426914D02*
X85642856Y-105398342D01*
X85642856Y-105398342D02*
X85585714Y-105369771D01*
X85585714Y-105369771D02*
X85442856Y-105369771D01*
X85442856Y-105369771D02*
X85385714Y-105398342D01*
X85385714Y-105398342D02*
X85357142Y-105426914D01*
X85357142Y-105426914D02*
X85328571Y-105484057D01*
X85328571Y-105484057D02*
X85328571Y-105541200D01*
X85328571Y-105541200D02*
X85357142Y-105626914D01*
X85357142Y-105626914D02*
X85699999Y-105969771D01*
X85699999Y-105969771D02*
X85328571Y-105969771D01*
X84614284Y-105969771D02*
X84614284Y-105569771D01*
X84614284Y-105626914D02*
X84585713Y-105598342D01*
X84585713Y-105598342D02*
X84528570Y-105569771D01*
X84528570Y-105569771D02*
X84442856Y-105569771D01*
X84442856Y-105569771D02*
X84385713Y-105598342D01*
X84385713Y-105598342D02*
X84357142Y-105655485D01*
X84357142Y-105655485D02*
X84357142Y-105969771D01*
X84357142Y-105655485D02*
X84328570Y-105598342D01*
X84328570Y-105598342D02*
X84271427Y-105569771D01*
X84271427Y-105569771D02*
X84185713Y-105569771D01*
X84185713Y-105569771D02*
X84128570Y-105598342D01*
X84128570Y-105598342D02*
X84099999Y-105655485D01*
X84099999Y-105655485D02*
X84099999Y-105969771D01*
X83814284Y-105969771D02*
X83814284Y-105569771D01*
X83814284Y-105626914D02*
X83785713Y-105598342D01*
X83785713Y-105598342D02*
X83728570Y-105569771D01*
X83728570Y-105569771D02*
X83642856Y-105569771D01*
X83642856Y-105569771D02*
X83585713Y-105598342D01*
X83585713Y-105598342D02*
X83557142Y-105655485D01*
X83557142Y-105655485D02*
X83557142Y-105969771D01*
X83557142Y-105655485D02*
X83528570Y-105598342D01*
X83528570Y-105598342D02*
X83471427Y-105569771D01*
X83471427Y-105569771D02*
X83385713Y-105569771D01*
X83385713Y-105569771D02*
X83328570Y-105598342D01*
X83328570Y-105598342D02*
X83299999Y-105655485D01*
X83299999Y-105655485D02*
X83299999Y-105969771D01*
X87000000Y-107450000D02*
X87000000Y-107536420D01*
X82800000Y-107450000D02*
X82800000Y-107536420D01*
X87000000Y-106950000D02*
X82800000Y-106950000D01*
X87000000Y-106950000D02*
X82800000Y-106950000D01*
X87000000Y-106950000D02*
X85873496Y-107536421D01*
X87000000Y-106950000D02*
X85873496Y-106363579D01*
X82800000Y-106950000D02*
X83926504Y-106363579D01*
X82800000Y-106950000D02*
X83926504Y-107536421D01*
D12*
X100767856Y-104597371D02*
X100653571Y-104997371D01*
X100653571Y-104997371D02*
X100539285Y-104711657D01*
X100539285Y-104711657D02*
X100424999Y-104997371D01*
X100424999Y-104997371D02*
X100310713Y-104597371D01*
X100082142Y-104997371D02*
X100082142Y-104597371D01*
X100082142Y-104397371D02*
X100110714Y-104425942D01*
X100110714Y-104425942D02*
X100082142Y-104454514D01*
X100082142Y-104454514D02*
X100053571Y-104425942D01*
X100053571Y-104425942D02*
X100082142Y-104397371D01*
X100082142Y-104397371D02*
X100082142Y-104454514D01*
X99882143Y-104597371D02*
X99653571Y-104597371D01*
X99796428Y-104397371D02*
X99796428Y-104911657D01*
X99796428Y-104911657D02*
X99767857Y-104968800D01*
X99767857Y-104968800D02*
X99710714Y-104997371D01*
X99710714Y-104997371D02*
X99653571Y-104997371D01*
X99453571Y-104997371D02*
X99453571Y-104397371D01*
X99196429Y-104997371D02*
X99196429Y-104683085D01*
X99196429Y-104683085D02*
X99225000Y-104625942D01*
X99225000Y-104625942D02*
X99282143Y-104597371D01*
X99282143Y-104597371D02*
X99367857Y-104597371D01*
X99367857Y-104597371D02*
X99425000Y-104625942D01*
X99425000Y-104625942D02*
X99453571Y-104654514D01*
X98453571Y-104997371D02*
X98453571Y-104597371D01*
X98453571Y-104711657D02*
X98425000Y-104654514D01*
X98425000Y-104654514D02*
X98396429Y-104625942D01*
X98396429Y-104625942D02*
X98339286Y-104597371D01*
X98339286Y-104597371D02*
X98282143Y-104597371D01*
X97853571Y-104968800D02*
X97910714Y-104997371D01*
X97910714Y-104997371D02*
X98025000Y-104997371D01*
X98025000Y-104997371D02*
X98082142Y-104968800D01*
X98082142Y-104968800D02*
X98110714Y-104911657D01*
X98110714Y-104911657D02*
X98110714Y-104683085D01*
X98110714Y-104683085D02*
X98082142Y-104625942D01*
X98082142Y-104625942D02*
X98025000Y-104597371D01*
X98025000Y-104597371D02*
X97910714Y-104597371D01*
X97910714Y-104597371D02*
X97853571Y-104625942D01*
X97853571Y-104625942D02*
X97825000Y-104683085D01*
X97825000Y-104683085D02*
X97825000Y-104740228D01*
X97825000Y-104740228D02*
X98110714Y-104797371D01*
X97596428Y-104968800D02*
X97539285Y-104997371D01*
X97539285Y-104997371D02*
X97424999Y-104997371D01*
X97424999Y-104997371D02*
X97367856Y-104968800D01*
X97367856Y-104968800D02*
X97339285Y-104911657D01*
X97339285Y-104911657D02*
X97339285Y-104883085D01*
X97339285Y-104883085D02*
X97367856Y-104825942D01*
X97367856Y-104825942D02*
X97424999Y-104797371D01*
X97424999Y-104797371D02*
X97510714Y-104797371D01*
X97510714Y-104797371D02*
X97567856Y-104768800D01*
X97567856Y-104768800D02*
X97596428Y-104711657D01*
X97596428Y-104711657D02*
X97596428Y-104683085D01*
X97596428Y-104683085D02*
X97567856Y-104625942D01*
X97567856Y-104625942D02*
X97510714Y-104597371D01*
X97510714Y-104597371D02*
X97424999Y-104597371D01*
X97424999Y-104597371D02*
X97367856Y-104625942D01*
X97082142Y-104997371D02*
X97082142Y-104597371D01*
X97082142Y-104397371D02*
X97110714Y-104425942D01*
X97110714Y-104425942D02*
X97082142Y-104454514D01*
X97082142Y-104454514D02*
X97053571Y-104425942D01*
X97053571Y-104425942D02*
X97082142Y-104397371D01*
X97082142Y-104397371D02*
X97082142Y-104454514D01*
X96825000Y-104968800D02*
X96767857Y-104997371D01*
X96767857Y-104997371D02*
X96653571Y-104997371D01*
X96653571Y-104997371D02*
X96596428Y-104968800D01*
X96596428Y-104968800D02*
X96567857Y-104911657D01*
X96567857Y-104911657D02*
X96567857Y-104883085D01*
X96567857Y-104883085D02*
X96596428Y-104825942D01*
X96596428Y-104825942D02*
X96653571Y-104797371D01*
X96653571Y-104797371D02*
X96739286Y-104797371D01*
X96739286Y-104797371D02*
X96796428Y-104768800D01*
X96796428Y-104768800D02*
X96825000Y-104711657D01*
X96825000Y-104711657D02*
X96825000Y-104683085D01*
X96825000Y-104683085D02*
X96796428Y-104625942D01*
X96796428Y-104625942D02*
X96739286Y-104597371D01*
X96739286Y-104597371D02*
X96653571Y-104597371D01*
X96653571Y-104597371D02*
X96596428Y-104625942D01*
X96396429Y-104597371D02*
X96167857Y-104597371D01*
X96310714Y-104397371D02*
X96310714Y-104911657D01*
X96310714Y-104911657D02*
X96282143Y-104968800D01*
X96282143Y-104968800D02*
X96225000Y-104997371D01*
X96225000Y-104997371D02*
X96167857Y-104997371D01*
X95882143Y-104997371D02*
X95939286Y-104968800D01*
X95939286Y-104968800D02*
X95967857Y-104940228D01*
X95967857Y-104940228D02*
X95996429Y-104883085D01*
X95996429Y-104883085D02*
X95996429Y-104711657D01*
X95996429Y-104711657D02*
X95967857Y-104654514D01*
X95967857Y-104654514D02*
X95939286Y-104625942D01*
X95939286Y-104625942D02*
X95882143Y-104597371D01*
X95882143Y-104597371D02*
X95796429Y-104597371D01*
X95796429Y-104597371D02*
X95739286Y-104625942D01*
X95739286Y-104625942D02*
X95710715Y-104654514D01*
X95710715Y-104654514D02*
X95682143Y-104711657D01*
X95682143Y-104711657D02*
X95682143Y-104883085D01*
X95682143Y-104883085D02*
X95710715Y-104940228D01*
X95710715Y-104940228D02*
X95739286Y-104968800D01*
X95739286Y-104968800D02*
X95796429Y-104997371D01*
X95796429Y-104997371D02*
X95882143Y-104997371D01*
X95425000Y-104997371D02*
X95425000Y-104597371D01*
X95425000Y-104711657D02*
X95396429Y-104654514D01*
X95396429Y-104654514D02*
X95367858Y-104625942D01*
X95367858Y-104625942D02*
X95310715Y-104597371D01*
X95310715Y-104597371D02*
X95253572Y-104597371D01*
X100460714Y-102397371D02*
X100460714Y-101797371D01*
X100460714Y-102368800D02*
X100517856Y-102397371D01*
X100517856Y-102397371D02*
X100632142Y-102397371D01*
X100632142Y-102397371D02*
X100689285Y-102368800D01*
X100689285Y-102368800D02*
X100717856Y-102340228D01*
X100717856Y-102340228D02*
X100746428Y-102283085D01*
X100746428Y-102283085D02*
X100746428Y-102111657D01*
X100746428Y-102111657D02*
X100717856Y-102054514D01*
X100717856Y-102054514D02*
X100689285Y-102025942D01*
X100689285Y-102025942D02*
X100632142Y-101997371D01*
X100632142Y-101997371D02*
X100517856Y-101997371D01*
X100517856Y-101997371D02*
X100460714Y-102025942D01*
X100174999Y-102397371D02*
X100174999Y-101997371D01*
X100174999Y-101797371D02*
X100203571Y-101825942D01*
X100203571Y-101825942D02*
X100174999Y-101854514D01*
X100174999Y-101854514D02*
X100146428Y-101825942D01*
X100146428Y-101825942D02*
X100174999Y-101797371D01*
X100174999Y-101797371D02*
X100174999Y-101854514D01*
X99889285Y-102397371D02*
X99889285Y-101997371D01*
X99889285Y-102111657D02*
X99860714Y-102054514D01*
X99860714Y-102054514D02*
X99832143Y-102025942D01*
X99832143Y-102025942D02*
X99775000Y-101997371D01*
X99775000Y-101997371D02*
X99717857Y-101997371D01*
X99289285Y-102368800D02*
X99346428Y-102397371D01*
X99346428Y-102397371D02*
X99460714Y-102397371D01*
X99460714Y-102397371D02*
X99517856Y-102368800D01*
X99517856Y-102368800D02*
X99546428Y-102311657D01*
X99546428Y-102311657D02*
X99546428Y-102083085D01*
X99546428Y-102083085D02*
X99517856Y-102025942D01*
X99517856Y-102025942D02*
X99460714Y-101997371D01*
X99460714Y-101997371D02*
X99346428Y-101997371D01*
X99346428Y-101997371D02*
X99289285Y-102025942D01*
X99289285Y-102025942D02*
X99260714Y-102083085D01*
X99260714Y-102083085D02*
X99260714Y-102140228D01*
X99260714Y-102140228D02*
X99546428Y-102197371D01*
X98746428Y-102368800D02*
X98803570Y-102397371D01*
X98803570Y-102397371D02*
X98917856Y-102397371D01*
X98917856Y-102397371D02*
X98974999Y-102368800D01*
X98974999Y-102368800D02*
X99003570Y-102340228D01*
X99003570Y-102340228D02*
X99032142Y-102283085D01*
X99032142Y-102283085D02*
X99032142Y-102111657D01*
X99032142Y-102111657D02*
X99003570Y-102054514D01*
X99003570Y-102054514D02*
X98974999Y-102025942D01*
X98974999Y-102025942D02*
X98917856Y-101997371D01*
X98917856Y-101997371D02*
X98803570Y-101997371D01*
X98803570Y-101997371D02*
X98746428Y-102025942D01*
X98574999Y-101997371D02*
X98346427Y-101997371D01*
X98489284Y-101797371D02*
X98489284Y-102311657D01*
X98489284Y-102311657D02*
X98460713Y-102368800D01*
X98460713Y-102368800D02*
X98403570Y-102397371D01*
X98403570Y-102397371D02*
X98346427Y-102397371D01*
D13*
G36*
X96097269Y-81134259D02*
G01*
X96097269Y-82276928D01*
X95592672Y-82276928D01*
X95088075Y-82276928D01*
X94935535Y-82127360D01*
X94782995Y-81977792D01*
X95279770Y-81977456D01*
X95776544Y-81977120D01*
X95776544Y-81054605D01*
X95776544Y-80132089D01*
X95936907Y-80061840D01*
X96097269Y-79991590D01*
X96097269Y-81134259D01*
G37*
G36*
X94730703Y-80181759D02*
G01*
X94880485Y-80331663D01*
X94491842Y-80331663D01*
X94103198Y-80331663D01*
X94103198Y-81304296D01*
X94103198Y-82276928D01*
X93939350Y-82276928D01*
X93775501Y-82276928D01*
X93775501Y-81304296D01*
X93775501Y-80331663D01*
X93537891Y-80331663D01*
X93300281Y-80331663D01*
X93149187Y-80181934D01*
X92998092Y-80032204D01*
X93789507Y-80032030D01*
X94580921Y-80031855D01*
X94730703Y-80181759D01*
G37*
G36*
X88518405Y-81154392D02*
G01*
X88518405Y-82276928D01*
X87882124Y-82276928D01*
X87245843Y-82276928D01*
X87096061Y-82127024D01*
X86946279Y-81977120D01*
X87575466Y-81977120D01*
X88204653Y-81977120D01*
X88204653Y-81628506D01*
X88204653Y-81279893D01*
X87798363Y-81279893D01*
X87392073Y-81279893D01*
X87247055Y-81130031D01*
X87102037Y-80980169D01*
X87651602Y-80978384D01*
X88201167Y-80976599D01*
X88202980Y-80654131D01*
X88204792Y-80331663D01*
X87725318Y-80331663D01*
X87245843Y-80331663D01*
X87096061Y-80181759D01*
X86946279Y-80031855D01*
X87732342Y-80031855D01*
X88518405Y-80031855D01*
X88518405Y-81154392D01*
G37*
G36*
X98314453Y-80335030D02*
G01*
X98314453Y-81156289D01*
X98314453Y-81977548D01*
X98162806Y-82126966D01*
X98011159Y-82276385D01*
X97444075Y-82276656D01*
X96876992Y-82276928D01*
X96724188Y-82129155D01*
X96571384Y-81981383D01*
X96571384Y-81158324D01*
X96571384Y-80335266D01*
X96574984Y-80331663D01*
X96892108Y-80331663D01*
X96892108Y-81154392D01*
X96892108Y-81977120D01*
X97442918Y-81977120D01*
X97993728Y-81977120D01*
X97993728Y-81154392D01*
X97993728Y-80331663D01*
X97442918Y-80331663D01*
X96892108Y-80331663D01*
X96574984Y-80331663D01*
X96722971Y-80183560D01*
X96874559Y-80031855D01*
X97442801Y-80031855D01*
X98011042Y-80031855D01*
X98162747Y-80183443D01*
X98311083Y-80331663D01*
X98314453Y-80335030D01*
G37*
G36*
X92827272Y-80333752D02*
G01*
X92827272Y-81305340D01*
X92827272Y-82276928D01*
X92666909Y-82276928D01*
X92506547Y-82276928D01*
X92506547Y-81862078D01*
X92506547Y-81447227D01*
X91969682Y-81447227D01*
X91432817Y-81447227D01*
X91432817Y-81862078D01*
X91432817Y-82276928D01*
X91272454Y-82276928D01*
X91112092Y-82276928D01*
X91112092Y-81304942D01*
X91112092Y-81140447D01*
X91432703Y-81140447D01*
X91969625Y-81140447D01*
X92506547Y-81140447D01*
X92506547Y-80736012D01*
X92506547Y-80331577D01*
X91971425Y-80333363D01*
X91436303Y-80335149D01*
X91434503Y-80737798D01*
X91432703Y-81140447D01*
X91112092Y-81140447D01*
X91112092Y-80332957D01*
X91267225Y-80182567D01*
X91422358Y-80032177D01*
X91971686Y-80032016D01*
X92521014Y-80031855D01*
X92674143Y-80182803D01*
X92825066Y-80331577D01*
X92827272Y-80333752D01*
G37*
G36*
X90498665Y-80185512D02*
G01*
X90665866Y-80339168D01*
X90665465Y-81156401D01*
X90665065Y-81973634D01*
X90506846Y-82125044D01*
X90348628Y-82276453D01*
X89804210Y-82276691D01*
X89259792Y-82276928D01*
X89108726Y-82129882D01*
X88957659Y-81982837D01*
X88957659Y-81495405D01*
X88957659Y-81007974D01*
X89345175Y-81007974D01*
X89732691Y-81007974D01*
X89882038Y-81152649D01*
X89894856Y-81165085D01*
X89931428Y-81200789D01*
X89964120Y-81233028D01*
X89991697Y-81260564D01*
X90012923Y-81282156D01*
X90026565Y-81296566D01*
X90031387Y-81302553D01*
X90029401Y-81303090D01*
X90015662Y-81304045D01*
X89989932Y-81304931D01*
X89953483Y-81305728D01*
X89907582Y-81306421D01*
X89853503Y-81306990D01*
X89792513Y-81307418D01*
X89725884Y-81307688D01*
X89654886Y-81307782D01*
X89278383Y-81307782D01*
X89278383Y-81642451D01*
X89278383Y-81977120D01*
X89808276Y-81977120D01*
X90338169Y-81977120D01*
X90338169Y-81154392D01*
X90338169Y-80331663D01*
X89792589Y-80331421D01*
X89247008Y-80331180D01*
X89152781Y-80242525D01*
X89131491Y-80222513D01*
X89093653Y-80187025D01*
X89055625Y-80151439D01*
X89020852Y-80118977D01*
X88992778Y-80092863D01*
X88927002Y-80031855D01*
X89629233Y-80031855D01*
X90331464Y-80031855D01*
X90498665Y-80185512D01*
G37*
G36*
X100583406Y-79281166D02*
G01*
X100604181Y-79290065D01*
X100633753Y-79303628D01*
X100670535Y-79321117D01*
X100712939Y-79341792D01*
X100759378Y-79364914D01*
X100941799Y-79456643D01*
X100450772Y-80858070D01*
X100406074Y-80985639D01*
X100359931Y-81117331D01*
X100315199Y-81244991D01*
X100272091Y-81368013D01*
X100230821Y-81485788D01*
X100191601Y-81597706D01*
X100154646Y-81703159D01*
X100120169Y-81801538D01*
X100088382Y-81892236D01*
X100059500Y-81974642D01*
X100033735Y-82048149D01*
X100011301Y-82112147D01*
X99992411Y-82166029D01*
X99977279Y-82209185D01*
X99966117Y-82241006D01*
X99959140Y-82260885D01*
X99956560Y-82268213D01*
X99955990Y-82269025D01*
X99950031Y-82271375D01*
X99936942Y-82273241D01*
X99915589Y-82274666D01*
X99884835Y-82275691D01*
X99843545Y-82276359D01*
X99790583Y-82276711D01*
X99724814Y-82276790D01*
X99496253Y-82276651D01*
X99010203Y-80873619D01*
X98966023Y-80746071D01*
X98920357Y-80614201D01*
X98876097Y-80486358D01*
X98833455Y-80363152D01*
X98792641Y-80245193D01*
X98753865Y-80133090D01*
X98717339Y-80027453D01*
X98683273Y-79928892D01*
X98651877Y-79838018D01*
X98623363Y-79755440D01*
X98597941Y-79681768D01*
X98575822Y-79617612D01*
X98557216Y-79563581D01*
X98542335Y-79520287D01*
X98531389Y-79488338D01*
X98524588Y-79468344D01*
X98522144Y-79460917D01*
X98522639Y-79459534D01*
X98531914Y-79452075D01*
X98551395Y-79440271D01*
X98579199Y-79425020D01*
X98613445Y-79407218D01*
X98652251Y-79387764D01*
X98693734Y-79367554D01*
X98736013Y-79347485D01*
X98777206Y-79328455D01*
X98815431Y-79311361D01*
X98848807Y-79297100D01*
X98875450Y-79286569D01*
X98893479Y-79280666D01*
X98901013Y-79280288D01*
X98901064Y-79280372D01*
X98905730Y-79291238D01*
X98914589Y-79315207D01*
X98927585Y-79352107D01*
X98944658Y-79401765D01*
X98965751Y-79464008D01*
X98990807Y-79538662D01*
X99019767Y-79625554D01*
X99052573Y-79724512D01*
X99089168Y-79835362D01*
X99129494Y-79957932D01*
X99173493Y-80092048D01*
X99221107Y-80237537D01*
X99227181Y-80256120D01*
X99260332Y-80357518D01*
X99295016Y-80463596D01*
X99330581Y-80572360D01*
X99366377Y-80681818D01*
X99401750Y-80789976D01*
X99436049Y-80894844D01*
X99468623Y-80994427D01*
X99498820Y-81086733D01*
X99525988Y-81169770D01*
X99549475Y-81241545D01*
X99571678Y-81309385D01*
X99595311Y-81381599D01*
X99617795Y-81450303D01*
X99638675Y-81514105D01*
X99657494Y-81571613D01*
X99673798Y-81621435D01*
X99687130Y-81662180D01*
X99697036Y-81692456D01*
X99703060Y-81710871D01*
X99709152Y-81729040D01*
X99717580Y-81752520D01*
X99723904Y-81768075D01*
X99727084Y-81773017D01*
X99729276Y-81767033D01*
X99735717Y-81748446D01*
X99746180Y-81717895D01*
X99760445Y-81676027D01*
X99778295Y-81623487D01*
X99799510Y-81560925D01*
X99823871Y-81488985D01*
X99851161Y-81408314D01*
X99881159Y-81319561D01*
X99913649Y-81223371D01*
X99948410Y-81120391D01*
X99985224Y-81011268D01*
X100023873Y-80896649D01*
X100064137Y-80777180D01*
X100105799Y-80653509D01*
X100148638Y-80526282D01*
X100188695Y-80407337D01*
X100230478Y-80283361D01*
X100270898Y-80163530D01*
X100309733Y-80048491D01*
X100346764Y-79938893D01*
X100381772Y-79835383D01*
X100414537Y-79738611D01*
X100444837Y-79649224D01*
X100472455Y-79567870D01*
X100497170Y-79495197D01*
X100518762Y-79431853D01*
X100537010Y-79378487D01*
X100551697Y-79335747D01*
X100562600Y-79304280D01*
X100569501Y-79284735D01*
X100572180Y-79277761D01*
X100573014Y-79277670D01*
X100583406Y-79281166D01*
G37*
D14*
X101075000Y-102025000D02*
X101075000Y-104825000D01*
X101775000Y-105475000D02*
X102375000Y-105475000D01*
X102375000Y-101375000D02*
X101775000Y-101375000D01*
X103075000Y-104825000D02*
X103075000Y-102025000D01*
X101075000Y-102075000D02*
G75*
G02*
X101775000Y-101375000I699999J1D01*
G01*
X101775000Y-105475000D02*
G75*
G02*
X101075000Y-104775000I0J700000D01*
G01*
X102375000Y-101375000D02*
G75*
G02*
X103075000Y-102075000I1J-699999D01*
G01*
X103075000Y-104775000D02*
G75*
G02*
X102375000Y-105475000I-700000J0D01*
G01*
X94085000Y-82505000D02*
X95555000Y-82505000D01*
X94085000Y-84965000D02*
X94085000Y-82505000D01*
X95555000Y-82505000D02*
X95555000Y-84965000D01*
X92255000Y-85805000D02*
X92255000Y-83345000D01*
X93725000Y-83345000D02*
X93725000Y-85805000D01*
X93725000Y-85805000D02*
X92255000Y-85805000D01*
D13*
G36*
X96553047Y-87154392D02*
G01*
X96553047Y-88276928D01*
X96392685Y-88276928D01*
X96232322Y-88276928D01*
X96232322Y-87154392D01*
X96232322Y-86031855D01*
X96392685Y-86031855D01*
X96553047Y-86031855D01*
X96553047Y-87154392D01*
G37*
G36*
X101984450Y-86798806D02*
G01*
X101984450Y-88276928D01*
X101771795Y-88276928D01*
X101559141Y-88276928D01*
X101559141Y-86798806D01*
X101559141Y-85320683D01*
X101771795Y-85320683D01*
X101984450Y-85320683D01*
X101984450Y-86798806D01*
G37*
G36*
X91679426Y-86181759D02*
G01*
X91829209Y-86331663D01*
X91440565Y-86331663D01*
X91051921Y-86331663D01*
X91051921Y-87304296D01*
X91051921Y-88276928D01*
X90888073Y-88276928D01*
X90724225Y-88276928D01*
X90724225Y-87304296D01*
X90724225Y-86331663D01*
X90487138Y-86331663D01*
X90250052Y-86331663D01*
X90098434Y-86182002D01*
X89946816Y-86032341D01*
X90738230Y-86032098D01*
X91529644Y-86031855D01*
X91679426Y-86181759D01*
G37*
G36*
X95578418Y-86183502D02*
G01*
X95736265Y-86335149D01*
X95736554Y-87154392D01*
X95736843Y-87973634D01*
X95578448Y-88125074D01*
X95420052Y-88276514D01*
X94855237Y-88276721D01*
X94290422Y-88276928D01*
X94140640Y-88127024D01*
X93990857Y-87977120D01*
X94700225Y-87977120D01*
X95409594Y-87977120D01*
X95409594Y-87154425D01*
X95409594Y-86331730D01*
X94710623Y-86329954D01*
X94011652Y-86328177D01*
X94157574Y-86180016D01*
X94303496Y-86031855D01*
X94862034Y-86031855D01*
X95420572Y-86031855D01*
X95578418Y-86183502D01*
G37*
G36*
X98770231Y-87154392D02*
G01*
X98770231Y-88276928D01*
X98067635Y-88276928D01*
X97365039Y-88276928D01*
X97206559Y-88122958D01*
X97056447Y-87977120D01*
X97368746Y-87977120D01*
X97912612Y-87977120D01*
X98456478Y-87977120D01*
X98456478Y-87154349D01*
X98456478Y-86331578D01*
X97914384Y-86333363D01*
X97372289Y-86335149D01*
X97370518Y-87156135D01*
X97368746Y-87977120D01*
X97056447Y-87977120D01*
X97048078Y-87968989D01*
X97048078Y-87154458D01*
X97048078Y-86339928D01*
X97206018Y-86185892D01*
X97363957Y-86031855D01*
X98067094Y-86031855D01*
X98770231Y-86031855D01*
X98770231Y-86331578D01*
X98770231Y-87154392D01*
G37*
G36*
X89789940Y-86335030D02*
G01*
X89789940Y-87154964D01*
X89789940Y-87974898D01*
X89638293Y-88125822D01*
X89486646Y-88276746D01*
X88918405Y-88276701D01*
X88350165Y-88276656D01*
X88198518Y-88129748D01*
X88046871Y-87982841D01*
X88046871Y-87159053D01*
X88046871Y-86335266D01*
X88050471Y-86331663D01*
X88367595Y-86331663D01*
X88367595Y-87154392D01*
X88367595Y-87977120D01*
X88918405Y-87977120D01*
X89469215Y-87977120D01*
X89469215Y-87154392D01*
X89469215Y-86331663D01*
X88918405Y-86331663D01*
X88367595Y-86331663D01*
X88050471Y-86331663D01*
X88198458Y-86183560D01*
X88350046Y-86031855D01*
X88918288Y-86031855D01*
X89486529Y-86031855D01*
X89638234Y-86183443D01*
X89786570Y-86331663D01*
X89789940Y-86335030D01*
G37*
G36*
X93722303Y-86342235D02*
G01*
X93722303Y-87309582D01*
X93722303Y-88276928D01*
X93561941Y-88276928D01*
X93401578Y-88276928D01*
X93401578Y-87862078D01*
X93401578Y-87447227D01*
X92864713Y-87447227D01*
X92327848Y-87447227D01*
X92327848Y-87862078D01*
X92327848Y-88276928D01*
X92167486Y-88276928D01*
X92007123Y-88276928D01*
X92007123Y-87306097D01*
X92007123Y-86335266D01*
X92010723Y-86331663D01*
X92327848Y-86331663D01*
X92327848Y-86736055D01*
X92327848Y-87140447D01*
X92864713Y-87140447D01*
X93401578Y-87140447D01*
X93401578Y-86736055D01*
X93401578Y-86331663D01*
X92864713Y-86331663D01*
X92327848Y-86331663D01*
X92010723Y-86331663D01*
X92158711Y-86183560D01*
X92310298Y-86031855D01*
X92861226Y-86031855D01*
X93412153Y-86031855D01*
X93567228Y-86187045D01*
X93711739Y-86331663D01*
X93722303Y-86342235D01*
G37*
G36*
X87593673Y-87154392D02*
G01*
X87593673Y-88276928D01*
X87433310Y-88276928D01*
X87272948Y-88276928D01*
X87272948Y-87785383D01*
X87272948Y-87293837D01*
X86732597Y-87293837D01*
X86192245Y-87293837D01*
X86192245Y-87785383D01*
X86192245Y-88276928D01*
X86031883Y-88276928D01*
X85871521Y-88276928D01*
X85871715Y-87794098D01*
X85871909Y-87311268D01*
X85990297Y-87217777D01*
X86004744Y-87206327D01*
X86037725Y-87179862D01*
X86065840Y-87156840D01*
X86087556Y-87138544D01*
X86101341Y-87126257D01*
X86105661Y-87121262D01*
X86105263Y-87120923D01*
X86096938Y-87114673D01*
X86079380Y-87101807D01*
X86054341Y-87083596D01*
X86023571Y-87061317D01*
X85988822Y-87036243D01*
X85875007Y-86954248D01*
X85873192Y-86634374D01*
X85871475Y-86331663D01*
X86192245Y-86331663D01*
X86192245Y-86662846D01*
X86192245Y-86994029D01*
X86732597Y-86994029D01*
X87272948Y-86994029D01*
X87272948Y-86662846D01*
X87272948Y-86331663D01*
X86732597Y-86331663D01*
X86192245Y-86331663D01*
X85871475Y-86331663D01*
X85871378Y-86314500D01*
X86012574Y-86173178D01*
X86153770Y-86031855D01*
X86873722Y-86031855D01*
X87593673Y-86031855D01*
X87593673Y-86331663D01*
X87593673Y-87154392D01*
G37*
G36*
X100800906Y-86061890D02*
G01*
X100952553Y-86132705D01*
X100952553Y-87204816D01*
X100952553Y-88276928D01*
X100802649Y-88276928D01*
X100652745Y-88276928D01*
X100652745Y-87412777D01*
X100652705Y-87311723D01*
X100652577Y-87206689D01*
X100652366Y-87106325D01*
X100652078Y-87011475D01*
X100651719Y-86922981D01*
X100651293Y-86841687D01*
X100650807Y-86768436D01*
X100650267Y-86704070D01*
X100649677Y-86649434D01*
X100649044Y-86605369D01*
X100648374Y-86572720D01*
X100647671Y-86552329D01*
X100646941Y-86545040D01*
X100646866Y-86545043D01*
X100642007Y-86551326D01*
X100630214Y-86568740D01*
X100611901Y-86596635D01*
X100587480Y-86634360D01*
X100557365Y-86681265D01*
X100521968Y-86736700D01*
X100481702Y-86800014D01*
X100436980Y-86870556D01*
X100388216Y-86947677D01*
X100335823Y-87030725D01*
X100280213Y-87119052D01*
X100221799Y-87212005D01*
X100160995Y-87308935D01*
X100098213Y-87409191D01*
X99555287Y-88276928D01*
X99403302Y-88276928D01*
X99251318Y-88276928D01*
X99251318Y-87136961D01*
X99251339Y-87029697D01*
X99251415Y-86907999D01*
X99251543Y-86790756D01*
X99251721Y-86678696D01*
X99251946Y-86572551D01*
X99252214Y-86473051D01*
X99252522Y-86380924D01*
X99252868Y-86296903D01*
X99253248Y-86221715D01*
X99253659Y-86156092D01*
X99254099Y-86100763D01*
X99254563Y-86056459D01*
X99255050Y-86023910D01*
X99255555Y-86003845D01*
X99256077Y-85996994D01*
X99258735Y-85997878D01*
X99272338Y-86003635D01*
X99295703Y-86014039D01*
X99326990Y-86028259D01*
X99364362Y-86045461D01*
X99405981Y-86064815D01*
X99551125Y-86132637D01*
X99552048Y-86816078D01*
X99552093Y-86846290D01*
X99552295Y-86944860D01*
X99552573Y-87040966D01*
X99552920Y-87133460D01*
X99553329Y-87221195D01*
X99553792Y-87303021D01*
X99554302Y-87377792D01*
X99554850Y-87444358D01*
X99555429Y-87501572D01*
X99556032Y-87548286D01*
X99556650Y-87583351D01*
X99557277Y-87605620D01*
X99561584Y-87711721D01*
X100091477Y-86874134D01*
X100142329Y-86793751D01*
X100203315Y-86697340D01*
X100262046Y-86604484D01*
X100318089Y-86515869D01*
X100371011Y-86432180D01*
X100420377Y-86354103D01*
X100465755Y-86282324D01*
X100506712Y-86217528D01*
X100542813Y-86160402D01*
X100573625Y-86111631D01*
X100598714Y-86071901D01*
X100617648Y-86041897D01*
X100629993Y-86022305D01*
X100635314Y-86013812D01*
X100649259Y-85991076D01*
X100800906Y-86061890D01*
G37*
G36*
X87482281Y-61176085D02*
G01*
X87484434Y-61178485D01*
X87490320Y-61185246D01*
X87499377Y-61195750D01*
X87511269Y-61209600D01*
X87525659Y-61226402D01*
X87542211Y-61245760D01*
X87560588Y-61267279D01*
X87580454Y-61290562D01*
X87601472Y-61315215D01*
X87623306Y-61340842D01*
X87645618Y-61367047D01*
X87668073Y-61393435D01*
X87690334Y-61419610D01*
X87712065Y-61445177D01*
X87732928Y-61469740D01*
X87752587Y-61492905D01*
X87770706Y-61514274D01*
X87786948Y-61533453D01*
X87800977Y-61550046D01*
X87812456Y-61563658D01*
X87821048Y-61573892D01*
X87826417Y-61580355D01*
X87828226Y-61582649D01*
X87825464Y-61582172D01*
X87817500Y-61580433D01*
X87804993Y-61577578D01*
X87788602Y-61573759D01*
X87768982Y-61569130D01*
X87746790Y-61563843D01*
X87722684Y-61558053D01*
X87699619Y-61552523D01*
X87677197Y-61547213D01*
X87657267Y-61542561D01*
X87640494Y-61538719D01*
X87627548Y-61535840D01*
X87619095Y-61534078D01*
X87615804Y-61533585D01*
X87616649Y-61535853D01*
X87619897Y-61543313D01*
X87625464Y-61555733D01*
X87633234Y-61572862D01*
X87643091Y-61594449D01*
X87654920Y-61620243D01*
X87668604Y-61649995D01*
X87684029Y-61683454D01*
X87701077Y-61720368D01*
X87719635Y-61760488D01*
X87739585Y-61803562D01*
X87760812Y-61849341D01*
X87783200Y-61897574D01*
X87806635Y-61948010D01*
X87830999Y-62000398D01*
X87856177Y-62054489D01*
X87882054Y-62110031D01*
X87905444Y-62160232D01*
X87930707Y-62214491D01*
X87955171Y-62267077D01*
X87978721Y-62317740D01*
X88001241Y-62366229D01*
X88022615Y-62412292D01*
X88042726Y-62455679D01*
X88061459Y-62496138D01*
X88078698Y-62533420D01*
X88094327Y-62567272D01*
X88108228Y-62597443D01*
X88120288Y-62623684D01*
X88130389Y-62645742D01*
X88138415Y-62663368D01*
X88144251Y-62676309D01*
X88147780Y-62684315D01*
X88148886Y-62687135D01*
X88148864Y-62687142D01*
X88145530Y-62686319D01*
X88136781Y-62683817D01*
X88122912Y-62679725D01*
X88104223Y-62674134D01*
X88081009Y-62667136D01*
X88053568Y-62658819D01*
X88022196Y-62649276D01*
X87987191Y-62638597D01*
X87948850Y-62626872D01*
X87907470Y-62614192D01*
X87863348Y-62600648D01*
X87816780Y-62586330D01*
X87768064Y-62571328D01*
X87717497Y-62555734D01*
X87665376Y-62539638D01*
X87662195Y-62538655D01*
X87610140Y-62522579D01*
X87559646Y-62507005D01*
X87511012Y-62492022D01*
X87464535Y-62477723D01*
X87420513Y-62464198D01*
X87379244Y-62451539D01*
X87341026Y-62439836D01*
X87306157Y-62429181D01*
X87274934Y-62419664D01*
X87247656Y-62411376D01*
X87224620Y-62404409D01*
X87206124Y-62398854D01*
X87192467Y-62394801D01*
X87183945Y-62392342D01*
X87180857Y-62391567D01*
X87180954Y-62391926D01*
X87183088Y-62396439D01*
X87187879Y-62405946D01*
X87195209Y-62420221D01*
X87204958Y-62439041D01*
X87217009Y-62462179D01*
X87231243Y-62489412D01*
X87247542Y-62520514D01*
X87265788Y-62555260D01*
X87285862Y-62593426D01*
X87307646Y-62634786D01*
X87331022Y-62679116D01*
X87355870Y-62726191D01*
X87382074Y-62775786D01*
X87409515Y-62827676D01*
X87438073Y-62881636D01*
X87467632Y-62937441D01*
X87498072Y-62994866D01*
X87529275Y-63053687D01*
X87540356Y-63074570D01*
X87571317Y-63132926D01*
X87601485Y-63189805D01*
X87630742Y-63244982D01*
X87658969Y-63298231D01*
X87686046Y-63349329D01*
X87711854Y-63398050D01*
X87736276Y-63444169D01*
X87759191Y-63487462D01*
X87780481Y-63527703D01*
X87800028Y-63564669D01*
X87817711Y-63598133D01*
X87833412Y-63627872D01*
X87847013Y-63653660D01*
X87858394Y-63675273D01*
X87867436Y-63692486D01*
X87874021Y-63705073D01*
X87878030Y-63712811D01*
X87879342Y-63715474D01*
X87877924Y-63715545D01*
X87871211Y-63715498D01*
X87859571Y-63715281D01*
X87843648Y-63714914D01*
X87824083Y-63714416D01*
X87801520Y-63713807D01*
X87776601Y-63713107D01*
X87749969Y-63712335D01*
X87722266Y-63711511D01*
X87694135Y-63710655D01*
X87666218Y-63709786D01*
X87639159Y-63708924D01*
X87613600Y-63708088D01*
X87590183Y-63707298D01*
X87569551Y-63706574D01*
X87552347Y-63705935D01*
X87539213Y-63705402D01*
X87530793Y-63704993D01*
X87527728Y-63704728D01*
X87527381Y-63703996D01*
X87525040Y-63698495D01*
X87520600Y-63687845D01*
X87514170Y-63672311D01*
X87505860Y-63652162D01*
X87495778Y-63627666D01*
X87484035Y-63599089D01*
X87470739Y-63566700D01*
X87455999Y-63530767D01*
X87439926Y-63491556D01*
X87422628Y-63449335D01*
X87404215Y-63404372D01*
X87384795Y-63356935D01*
X87364479Y-63307290D01*
X87343376Y-63255707D01*
X87321594Y-63202452D01*
X87299243Y-63147792D01*
X87276434Y-63091996D01*
X87253273Y-63035331D01*
X87229872Y-62978065D01*
X87206340Y-62920465D01*
X87182785Y-62862799D01*
X87159317Y-62805334D01*
X87136045Y-62748338D01*
X87113080Y-62692079D01*
X87090529Y-62636823D01*
X87068502Y-62582840D01*
X87047109Y-62530396D01*
X87026459Y-62479759D01*
X87006661Y-62431197D01*
X86987824Y-62384976D01*
X86970059Y-62341366D01*
X86953473Y-62300632D01*
X86938177Y-62263044D01*
X86924279Y-62228868D01*
X86911890Y-62198372D01*
X86901118Y-62171824D01*
X86892073Y-62149491D01*
X86884863Y-62131641D01*
X86879599Y-62118542D01*
X86876390Y-62110460D01*
X86875344Y-62107664D01*
X86876746Y-62108040D01*
X86883376Y-62110154D01*
X86895177Y-62114033D01*
X86911847Y-62119577D01*
X86933084Y-62126683D01*
X86958587Y-62135250D01*
X86988054Y-62145175D01*
X87021183Y-62156357D01*
X87057672Y-62168694D01*
X87097221Y-62182084D01*
X87139526Y-62196426D01*
X87184288Y-62211616D01*
X87231203Y-62227555D01*
X87279971Y-62244139D01*
X87330289Y-62261267D01*
X87364876Y-62273039D01*
X87414180Y-62289795D01*
X87461734Y-62305929D01*
X87507235Y-62321339D01*
X87550383Y-62335924D01*
X87590874Y-62349581D01*
X87628407Y-62362211D01*
X87662679Y-62373711D01*
X87693388Y-62383980D01*
X87720231Y-62392917D01*
X87742908Y-62400421D01*
X87761115Y-62406390D01*
X87774551Y-62410722D01*
X87782913Y-62413317D01*
X87785899Y-62414073D01*
X87785427Y-62411327D01*
X87783493Y-62403158D01*
X87780188Y-62389957D01*
X87775615Y-62372110D01*
X87769877Y-62350005D01*
X87763080Y-62324029D01*
X87755326Y-62294568D01*
X87746720Y-62262009D01*
X87737366Y-62226739D01*
X87727368Y-62189145D01*
X87716829Y-62149614D01*
X87705855Y-62108532D01*
X87694548Y-62066286D01*
X87683013Y-62023264D01*
X87671354Y-61979852D01*
X87659674Y-61936436D01*
X87648078Y-61893405D01*
X87636670Y-61851144D01*
X87625554Y-61810040D01*
X87614833Y-61770481D01*
X87604612Y-61732853D01*
X87594995Y-61697542D01*
X87586086Y-61664937D01*
X87577988Y-61635424D01*
X87570805Y-61609388D01*
X87564643Y-61587219D01*
X87559604Y-61569301D01*
X87555792Y-61556023D01*
X87553312Y-61547770D01*
X87552268Y-61544930D01*
X87551285Y-61545459D01*
X87546145Y-61549054D01*
X87537181Y-61555674D01*
X87524974Y-61564879D01*
X87510107Y-61576230D01*
X87493161Y-61589286D01*
X87474718Y-61603607D01*
X87464377Y-61611648D01*
X87446790Y-61625236D01*
X87431073Y-61637267D01*
X87417795Y-61647311D01*
X87407527Y-61654940D01*
X87400839Y-61659723D01*
X87398300Y-61661230D01*
X87398578Y-61658488D01*
X87399739Y-61650333D01*
X87401705Y-61637303D01*
X87404389Y-61619933D01*
X87407705Y-61598758D01*
X87411566Y-61574315D01*
X87415885Y-61547141D01*
X87420576Y-61517769D01*
X87425552Y-61486738D01*
X87430726Y-61454582D01*
X87436012Y-61421837D01*
X87441323Y-61389040D01*
X87446572Y-61356727D01*
X87451673Y-61325432D01*
X87456539Y-61295693D01*
X87461084Y-61268045D01*
X87465220Y-61243024D01*
X87468861Y-61221167D01*
X87471921Y-61203008D01*
X87474312Y-61189084D01*
X87475949Y-61179931D01*
X87476744Y-61176085D01*
X87477010Y-61175342D01*
X87478835Y-61173317D01*
X87482281Y-61176085D01*
G37*
G36*
X86307223Y-60421926D02*
G01*
X86405168Y-60421935D01*
X86504962Y-60421947D01*
X86606440Y-60421964D01*
X86709435Y-60421985D01*
X86813780Y-60422010D01*
X86919309Y-60422039D01*
X87025855Y-60422072D01*
X87133251Y-60422109D01*
X87241331Y-60422150D01*
X87349928Y-60422194D01*
X87458875Y-60422242D01*
X87568005Y-60422293D01*
X87677153Y-60422348D01*
X87786150Y-60422406D01*
X87894832Y-60422467D01*
X88003030Y-60422532D01*
X88110579Y-60422600D01*
X88217311Y-60422671D01*
X88323060Y-60422745D01*
X88427660Y-60422822D01*
X88530943Y-60422902D01*
X88632743Y-60422984D01*
X88732893Y-60423069D01*
X88831227Y-60423157D01*
X88927578Y-60423247D01*
X89021779Y-60423340D01*
X89113664Y-60423435D01*
X89203065Y-60423533D01*
X89289817Y-60423633D01*
X89373753Y-60423735D01*
X89454706Y-60423839D01*
X89532509Y-60423945D01*
X89606995Y-60424053D01*
X89677999Y-60424162D01*
X89745352Y-60424274D01*
X89808890Y-60424387D01*
X89868444Y-60424502D01*
X89923849Y-60424619D01*
X89974937Y-60424736D01*
X90021542Y-60424856D01*
X90063498Y-60424976D01*
X90100637Y-60425098D01*
X90132793Y-60425221D01*
X90159799Y-60425346D01*
X90181489Y-60425471D01*
X90197696Y-60425597D01*
X90200459Y-60425623D01*
X90244060Y-60426039D01*
X90282110Y-60426419D01*
X90315034Y-60426776D01*
X90343256Y-60427124D01*
X90367200Y-60427477D01*
X90387290Y-60427849D01*
X90403952Y-60428253D01*
X90417609Y-60428704D01*
X90428685Y-60429216D01*
X90437605Y-60429802D01*
X90444794Y-60430476D01*
X90450675Y-60431252D01*
X90455673Y-60432145D01*
X90460212Y-60433167D01*
X90464717Y-60434333D01*
X90479400Y-60438738D01*
X90511913Y-60452249D01*
X90540612Y-60469728D01*
X90565155Y-60490850D01*
X90585200Y-60515289D01*
X90600405Y-60542721D01*
X90610428Y-60572820D01*
X90612326Y-60583422D01*
X90613924Y-60604281D01*
X90613636Y-60627294D01*
X90611523Y-60650271D01*
X90607647Y-60671023D01*
X90606814Y-60674269D01*
X90602154Y-60689930D01*
X90596237Y-60705746D01*
X90588612Y-60722659D01*
X90578827Y-60741610D01*
X90566433Y-60763543D01*
X90550977Y-60789398D01*
X90550277Y-60790548D01*
X90546195Y-60797269D01*
X90539103Y-60808954D01*
X90529074Y-60825482D01*
X90516185Y-60846729D01*
X90500508Y-60872572D01*
X90482120Y-60902887D01*
X90461094Y-60937553D01*
X90437506Y-60976445D01*
X90411429Y-61019441D01*
X90382939Y-61066418D01*
X90352110Y-61117252D01*
X90319016Y-61171821D01*
X90283733Y-61230001D01*
X90246335Y-61291670D01*
X90206896Y-61356704D01*
X90165492Y-61424980D01*
X90122196Y-61496376D01*
X90077084Y-61570768D01*
X90030230Y-61648033D01*
X89981708Y-61728048D01*
X89931594Y-61810690D01*
X89879962Y-61895836D01*
X89826887Y-61983363D01*
X89772442Y-62073147D01*
X89716704Y-62165067D01*
X89659746Y-62258998D01*
X89601643Y-62354818D01*
X89542469Y-62452404D01*
X89482300Y-62551632D01*
X89421210Y-62652379D01*
X89359274Y-62754523D01*
X89296566Y-62857941D01*
X89233161Y-62962508D01*
X89209516Y-63001503D01*
X89146424Y-63105551D01*
X89084074Y-63208371D01*
X89022541Y-63309842D01*
X88961898Y-63409841D01*
X88902220Y-63508245D01*
X88843580Y-63604935D01*
X88786053Y-63699786D01*
X88729712Y-63792678D01*
X88674631Y-63883488D01*
X88620886Y-63972094D01*
X88568548Y-64058374D01*
X88517694Y-64142207D01*
X88468395Y-64223471D01*
X88420728Y-64302042D01*
X88374765Y-64377801D01*
X88330580Y-64450623D01*
X88288249Y-64520388D01*
X88247843Y-64586974D01*
X88209439Y-64650258D01*
X88173109Y-64710119D01*
X88138928Y-64766434D01*
X88106969Y-64819082D01*
X88077307Y-64867940D01*
X88050016Y-64912887D01*
X88025169Y-64953801D01*
X88002841Y-64990560D01*
X87983106Y-65023041D01*
X87966038Y-65051123D01*
X87951710Y-65074683D01*
X87940198Y-65093601D01*
X87931573Y-65107753D01*
X87925912Y-65117018D01*
X87923288Y-65121274D01*
X87897548Y-65157956D01*
X87868068Y-65191703D01*
X87836375Y-65220241D01*
X87802668Y-65243415D01*
X87767144Y-65261070D01*
X87730002Y-65273051D01*
X87727385Y-65273638D01*
X87709414Y-65276232D01*
X87688240Y-65277461D01*
X87666112Y-65277326D01*
X87645280Y-65275829D01*
X87627994Y-65272972D01*
X87606858Y-65266980D01*
X87569886Y-65251688D01*
X87534885Y-65230766D01*
X87501915Y-65204260D01*
X87471039Y-65172216D01*
X87442317Y-65134679D01*
X87440632Y-65132003D01*
X87435846Y-65124166D01*
X87428144Y-65111447D01*
X87417613Y-65093990D01*
X87404341Y-65071942D01*
X87388414Y-65045448D01*
X87369919Y-65014653D01*
X87348943Y-64979702D01*
X87325573Y-64940742D01*
X87299896Y-64897916D01*
X87271998Y-64851372D01*
X87241967Y-64801253D01*
X87209890Y-64747706D01*
X87175853Y-64690875D01*
X87139943Y-64630907D01*
X87102248Y-64567946D01*
X87062854Y-64502139D01*
X87021848Y-64433629D01*
X86979316Y-64362564D01*
X86935347Y-64289088D01*
X86890026Y-64213346D01*
X86843441Y-64135484D01*
X86795679Y-64055647D01*
X86746826Y-63973981D01*
X86696969Y-63890631D01*
X86646196Y-63805743D01*
X86594593Y-63719461D01*
X86542247Y-63631931D01*
X86489245Y-63543299D01*
X86435674Y-63453711D01*
X86381621Y-63363310D01*
X86327173Y-63272243D01*
X86272416Y-63180656D01*
X86217437Y-63088692D01*
X86162325Y-62996499D01*
X86107164Y-62904221D01*
X86052043Y-62812004D01*
X85997048Y-62719993D01*
X85942266Y-62628333D01*
X85887783Y-62537170D01*
X85833688Y-62446649D01*
X85780067Y-62356916D01*
X85727006Y-62268116D01*
X85674593Y-62180394D01*
X85622914Y-62093896D01*
X85572057Y-62008767D01*
X85522108Y-61925152D01*
X85473154Y-61843198D01*
X85425282Y-61763049D01*
X85378580Y-61684850D01*
X85333133Y-61608747D01*
X85289029Y-61534886D01*
X85246355Y-61463412D01*
X85205197Y-61394470D01*
X85165643Y-61328205D01*
X85127780Y-61264764D01*
X85091693Y-61204291D01*
X85057471Y-61146931D01*
X85025201Y-61092831D01*
X84994968Y-61042135D01*
X84966860Y-60994989D01*
X84957626Y-60979496D01*
X85633360Y-60979496D01*
X85633364Y-60979518D01*
X85635013Y-60982569D01*
X85639540Y-60990645D01*
X85646849Y-61003578D01*
X85656844Y-61021198D01*
X85669429Y-61043339D01*
X85684507Y-61069831D01*
X85701983Y-61100506D01*
X85721760Y-61135196D01*
X85743743Y-61173733D01*
X85767834Y-61215948D01*
X85793938Y-61261673D01*
X85821960Y-61310739D01*
X85851801Y-61362979D01*
X85883368Y-61418224D01*
X85916562Y-61476306D01*
X85951289Y-61537056D01*
X85987453Y-61600306D01*
X86024956Y-61665887D01*
X86063703Y-61733632D01*
X86103597Y-61803372D01*
X86144544Y-61874939D01*
X86186445Y-61948165D01*
X86229206Y-62022880D01*
X86272731Y-62098918D01*
X86913078Y-63217528D01*
X87296788Y-63859367D01*
X87308487Y-63878933D01*
X87342400Y-63935628D01*
X87375474Y-63990884D01*
X87407579Y-64044482D01*
X87438582Y-64096203D01*
X87468352Y-64145830D01*
X87496757Y-64193144D01*
X87523665Y-64237927D01*
X87548946Y-64279959D01*
X87572467Y-64319023D01*
X87594097Y-64354901D01*
X87613705Y-64387373D01*
X87631158Y-64416221D01*
X87646326Y-64441228D01*
X87659076Y-64462174D01*
X87669277Y-64478841D01*
X87676798Y-64491011D01*
X87681507Y-64498466D01*
X87683272Y-64500986D01*
X87683298Y-64500967D01*
X87685275Y-64498005D01*
X87690255Y-64490091D01*
X87698135Y-64477391D01*
X87708816Y-64460071D01*
X87722196Y-64438297D01*
X87738174Y-64412235D01*
X87756649Y-64382049D01*
X87777521Y-64347907D01*
X87800688Y-64309973D01*
X87826048Y-64268413D01*
X87853502Y-64223394D01*
X87882948Y-64175081D01*
X87914286Y-64123640D01*
X87947413Y-64069236D01*
X87982230Y-64012035D01*
X88018634Y-63952204D01*
X88056526Y-63889907D01*
X88095804Y-63825310D01*
X88136367Y-63758580D01*
X88178115Y-63689882D01*
X88220945Y-63619382D01*
X88264758Y-63547245D01*
X88309452Y-63473638D01*
X88354926Y-63398725D01*
X89023805Y-62296686D01*
X89404272Y-61642557D01*
X89419566Y-61616260D01*
X89452880Y-61558963D01*
X89485331Y-61503128D01*
X89516791Y-61448974D01*
X89547135Y-61396721D01*
X89576235Y-61346587D01*
X89603964Y-61298791D01*
X89630197Y-61253552D01*
X89654805Y-61211090D01*
X89677662Y-61171623D01*
X89698642Y-61135371D01*
X89717617Y-61102551D01*
X89734461Y-61073385D01*
X89749046Y-61048089D01*
X89761246Y-61026884D01*
X89770935Y-61009989D01*
X89777985Y-60997622D01*
X89782269Y-60990003D01*
X89783661Y-60987350D01*
X89783624Y-60987342D01*
X89779994Y-60987236D01*
X89770586Y-60987083D01*
X89755602Y-60986885D01*
X89735246Y-60986644D01*
X89709718Y-60986361D01*
X89679221Y-60986038D01*
X89643957Y-60985678D01*
X89604130Y-60985282D01*
X89559940Y-60984852D01*
X89511590Y-60984391D01*
X89459283Y-60983899D01*
X89403221Y-60983378D01*
X89343605Y-60982832D01*
X89280639Y-60982261D01*
X89214524Y-60981667D01*
X89145463Y-60981053D01*
X89073658Y-60980419D01*
X88999311Y-60979769D01*
X88922625Y-60979104D01*
X88843801Y-60978425D01*
X88763043Y-60977735D01*
X88680552Y-60977035D01*
X88596530Y-60976328D01*
X88527984Y-60975753D01*
X88443213Y-60975042D01*
X88359517Y-60974340D01*
X88277130Y-60973648D01*
X88196286Y-60972969D01*
X88117221Y-60972304D01*
X88040168Y-60971656D01*
X87965363Y-60971027D01*
X87893040Y-60970418D01*
X87823433Y-60969832D01*
X87756777Y-60969270D01*
X87693307Y-60968735D01*
X87633257Y-60968228D01*
X87576861Y-60967752D01*
X87524355Y-60967308D01*
X87475973Y-60966899D01*
X87431949Y-60966526D01*
X87392518Y-60966191D01*
X87357914Y-60965897D01*
X87328373Y-60965645D01*
X87304128Y-60965437D01*
X87285414Y-60965275D01*
X87272466Y-60965162D01*
X87261864Y-60965111D01*
X87245119Y-60965105D01*
X87223404Y-60965152D01*
X87197018Y-60965248D01*
X87166255Y-60965390D01*
X87131413Y-60965577D01*
X87092787Y-60965805D01*
X87050675Y-60966072D01*
X87005373Y-60966375D01*
X86957177Y-60966712D01*
X86906384Y-60967081D01*
X86853290Y-60967477D01*
X86798192Y-60967900D01*
X86741386Y-60968346D01*
X86683169Y-60968812D01*
X86623837Y-60969297D01*
X86563686Y-60969798D01*
X86503013Y-60970311D01*
X86442115Y-60970835D01*
X86381288Y-60971366D01*
X86320828Y-60971903D01*
X86261033Y-60972442D01*
X86202197Y-60972981D01*
X86144619Y-60973518D01*
X86088594Y-60974050D01*
X86034418Y-60974573D01*
X85982389Y-60975087D01*
X85932803Y-60975587D01*
X85885955Y-60976072D01*
X85842144Y-60976539D01*
X85801664Y-60976985D01*
X85764813Y-60977408D01*
X85731887Y-60977804D01*
X85703183Y-60978173D01*
X85678996Y-60978510D01*
X85659625Y-60978813D01*
X85645363Y-60979081D01*
X85636510Y-60979309D01*
X85633360Y-60979496D01*
X84957626Y-60979496D01*
X84940964Y-60951539D01*
X84917367Y-60911929D01*
X84896156Y-60876305D01*
X84877417Y-60844812D01*
X84861238Y-60817597D01*
X84847705Y-60794803D01*
X84836906Y-60776578D01*
X84828926Y-60763065D01*
X84823854Y-60754410D01*
X84821776Y-60750759D01*
X84821135Y-60749475D01*
X84808792Y-60721640D01*
X84798337Y-60692277D01*
X84790842Y-60664374D01*
X84789573Y-60657672D01*
X84787258Y-60638036D01*
X84786240Y-60616224D01*
X84786516Y-60594244D01*
X84788084Y-60574106D01*
X84790942Y-60557819D01*
X84799614Y-60531441D01*
X84814370Y-60502611D01*
X84833398Y-60477679D01*
X84856339Y-60456959D01*
X84882836Y-60440764D01*
X84912530Y-60429406D01*
X84945062Y-60423199D01*
X84948515Y-60423093D01*
X84957903Y-60422982D01*
X84972975Y-60422877D01*
X84993563Y-60422777D01*
X85019502Y-60422684D01*
X85050625Y-60422596D01*
X85086764Y-60422514D01*
X85127753Y-60422438D01*
X85173427Y-60422368D01*
X85223617Y-60422302D01*
X85278157Y-60422243D01*
X85336881Y-60422188D01*
X85399622Y-60422139D01*
X85466213Y-60422095D01*
X85536488Y-60422057D01*
X85610280Y-60422023D01*
X85687422Y-60421994D01*
X85767747Y-60421970D01*
X85851090Y-60421951D01*
X85937283Y-60421937D01*
X86026159Y-60421928D01*
X86117553Y-60421923D01*
X86211296Y-60421922D01*
X86307223Y-60421926D01*
G37*
%LPC*%
D15*
X110632000Y-106873000D03*
X101632000Y-106873000D03*
D16*
X107632000Y-104913000D03*
D17*
X104632000Y-104913000D03*
D18*
X115000000Y-63000000D03*
X115000000Y-105000000D03*
D15*
X86315000Y-65965000D03*
X77315000Y-65965000D03*
D16*
X83315000Y-64005000D03*
D17*
X80315000Y-64005000D03*
D19*
X80375000Y-70725000D03*
X87995000Y-70725000D03*
X106975000Y-70725000D03*
X114585000Y-70725000D03*
D15*
X97965000Y-65955000D03*
X88965000Y-65955000D03*
D16*
X94965000Y-63995000D03*
D17*
X91965000Y-63995000D03*
D20*
X79075000Y-102410000D03*
D21*
X81615000Y-102410000D03*
X89235000Y-102410000D03*
D20*
X94315000Y-102410000D03*
D18*
X73000000Y-63000000D03*
X73000000Y-105000000D03*
D22*
X102075000Y-102125000D03*
D23*
X102075000Y-103425000D03*
D24*
X102075000Y-104725000D03*
D25*
X94820000Y-83290000D03*
X94820000Y-85040000D03*
D26*
X92990000Y-85020000D03*
X92990000Y-83270000D03*
%LPD*%
M02*
