G04 #@! TF.GenerationSoftware,KiCad,Pcbnew,8.0.5*
G04 #@! TF.CreationDate,2024-10-05T22:37:39+02:00*
G04 #@! TF.ProjectId,HVI,4856492e-6b69-4636-9164-5f7063625858,rev?*
G04 #@! TF.SameCoordinates,Original*
G04 #@! TF.FileFunction,Paste,Top*
G04 #@! TF.FilePolarity,Positive*
%FSLAX46Y46*%
G04 Gerber Fmt 4.6, Leading zero omitted, Abs format (unit mm)*
G04 Created by KiCad (PCBNEW 8.0.5) date 2024-10-05 22:37:39*
%MOMM*%
%LPD*%
G01*
G04 APERTURE LIST*
G04 Aperture macros list*
%AMRoundRect*
0 Rectangle with rounded corners*
0 $1 Rounding radius*
0 $2 $3 $4 $5 $6 $7 $8 $9 X,Y pos of 4 corners*
0 Add a 4 corners polygon primitive as box body*
4,1,4,$2,$3,$4,$5,$6,$7,$8,$9,$2,$3,0*
0 Add four circle primitives for the rounded corners*
1,1,$1+$1,$2,$3*
1,1,$1+$1,$4,$5*
1,1,$1+$1,$6,$7*
1,1,$1+$1,$8,$9*
0 Add four rect primitives between the rounded corners*
20,1,$1+$1,$2,$3,$4,$5,0*
20,1,$1+$1,$4,$5,$6,$7,0*
20,1,$1+$1,$6,$7,$8,$9,0*
20,1,$1+$1,$8,$9,$2,$3,0*%
G04 Aperture macros list end*
%ADD10RoundRect,0.237500X0.250000X0.237500X-0.250000X0.237500X-0.250000X-0.237500X0.250000X-0.237500X0*%
%ADD11RoundRect,0.237500X-0.237500X0.250000X-0.237500X-0.250000X0.237500X-0.250000X0.237500X0.250000X0*%
%ADD12RoundRect,0.250000X-0.400000X-0.625000X0.400000X-0.625000X0.400000X0.625000X-0.400000X0.625000X0*%
%ADD13R,7.000000X4.000000*%
%ADD14RoundRect,0.237500X-0.237500X0.300000X-0.237500X-0.300000X0.237500X-0.300000X0.237500X0.300000X0*%
%ADD15RoundRect,0.250000X0.650000X2.450000X-0.650000X2.450000X-0.650000X-2.450000X0.650000X-2.450000X0*%
%ADD16RoundRect,0.250000X-1.000000X1.400000X-1.000000X-1.400000X1.000000X-1.400000X1.000000X1.400000X0*%
%ADD17RoundRect,0.250000X-1.400000X-1.000000X1.400000X-1.000000X1.400000X1.000000X-1.400000X1.000000X0*%
%ADD18R,0.510000X1.100000*%
%ADD19RoundRect,0.237500X0.237500X-0.250000X0.237500X0.250000X-0.237500X0.250000X-0.237500X-0.250000X0*%
%ADD20RoundRect,0.250000X1.100000X-0.412500X1.100000X0.412500X-1.100000X0.412500X-1.100000X-0.412500X0*%
%ADD21RoundRect,0.237500X0.237500X-0.300000X0.237500X0.300000X-0.237500X0.300000X-0.237500X-0.300000X0*%
%ADD22RoundRect,0.250000X-1.000000X-0.900000X1.000000X-0.900000X1.000000X0.900000X-1.000000X0.900000X0*%
%ADD23RoundRect,0.250000X-1.100000X0.412500X-1.100000X-0.412500X1.100000X-0.412500X1.100000X0.412500X0*%
%ADD24RoundRect,0.237500X-0.237500X0.287500X-0.237500X-0.287500X0.237500X-0.287500X0.237500X0.287500X0*%
G04 APERTURE END LIST*
D10*
X99699500Y-101933000D03*
X97874500Y-101933000D03*
D11*
X112800000Y-86492500D03*
X112800000Y-88317500D03*
X109865000Y-86502500D03*
X109865000Y-88327500D03*
D12*
X101505000Y-61295000D03*
X104605000Y-61295000D03*
D13*
X79990000Y-94140000D03*
X79990000Y-84140000D03*
D14*
X108395000Y-86552500D03*
X108395000Y-88277500D03*
D15*
X101350000Y-70600000D03*
X96250000Y-70600000D03*
D16*
X95660000Y-78090000D03*
X88860000Y-78090000D03*
D17*
X103820000Y-84075000D03*
X103820000Y-90875000D03*
D12*
X101500000Y-65785000D03*
X104600000Y-65785000D03*
D18*
X108375000Y-84895000D03*
X109375000Y-84895000D03*
X110375000Y-84895000D03*
X111375000Y-84895000D03*
X112375000Y-84895000D03*
X112375000Y-79795000D03*
X111375000Y-79795000D03*
X110375000Y-79795000D03*
X109375000Y-79795000D03*
X108375000Y-79795000D03*
D13*
X93400000Y-84140000D03*
X93400000Y-94140000D03*
D14*
X98825000Y-104442500D03*
X98825000Y-106167500D03*
D12*
X101500000Y-63545000D03*
X104600000Y-63545000D03*
D11*
X114270000Y-86487500D03*
X114270000Y-88312500D03*
D19*
X114280000Y-85002500D03*
X114280000Y-83177500D03*
D20*
X78275000Y-79707500D03*
X78275000Y-76582500D03*
D16*
X115970000Y-92920000D03*
X109170000Y-92920000D03*
D21*
X115750000Y-88257500D03*
X115750000Y-86532500D03*
D20*
X75075000Y-79697500D03*
X75075000Y-76572500D03*
D14*
X115760000Y-83227500D03*
X115760000Y-84952500D03*
D22*
X81420000Y-79175000D03*
X85720000Y-79175000D03*
D19*
X81135000Y-99707500D03*
X81135000Y-97882500D03*
D14*
X111340000Y-86542500D03*
X111340000Y-88267500D03*
D23*
X98775000Y-103742500D03*
X98775000Y-106867500D03*
D24*
X79670000Y-97905000D03*
X79670000Y-99655000D03*
M02*
