%TF.GenerationSoftware,KiCad,Pcbnew,8.0.5*%
%TF.CreationDate,2024-10-05T22:37:42+02:00*%
%TF.ProjectId,HVI,4856492e-6b69-4636-9164-5f7063625858,rev?*%
%TF.SameCoordinates,Original*%
%TF.FileFunction,Drillmap*%
%TF.FilePolarity,Positive*%
%FSLAX45Y45*%
G04 Gerber Fmt 4.5, Leading zero omitted, Abs format (unit mm)*
G04 Created by KiCad (PCBNEW 8.0.5) date 2024-10-05 22:37:42*
%MOMM*%
%LPD*%
G01*
G04 APERTURE LIST*
%ADD10C,0.100000*%
%ADD11C,0.200000*%
%ADD12C,0.127000*%
%ADD13C,0.320000*%
G04 APERTURE END LIST*
D10*
X11800000Y-10600000D02*
G75*
G02*
X11600000Y-10800000I-200000J0D01*
G01*
X7000000Y-6200000D02*
G75*
G02*
X7200000Y-6000000I200000J0D01*
G01*
X7200000Y-10800000D02*
X11600000Y-10800000D01*
X7000000Y-6200000D02*
X7000000Y-10600000D01*
X11800000Y-10600000D02*
X11800000Y-6200000D01*
X7200000Y-6000000D02*
X11600000Y-6000000D01*
X11600000Y-6000000D02*
G75*
G02*
X11800000Y-6200000I0J-200000D01*
G01*
X7200000Y-10800000D02*
G75*
G02*
X7000000Y-10600000I0J200000D01*
G01*
D11*
D12*
X7668000Y-6533000D02*
X7795000Y-6660000D01*
X7795000Y-6533000D02*
X7668000Y-6660000D01*
X8568000Y-6533000D02*
X8695000Y-6660000D01*
X8695000Y-6533000D02*
X8568000Y-6660000D01*
X8833000Y-6532000D02*
X8960000Y-6659000D01*
X8960000Y-6532000D02*
X8833000Y-6659000D01*
X9733000Y-6532000D02*
X9860000Y-6659000D01*
X9860000Y-6532000D02*
X9733000Y-6659000D01*
X10099700Y-10623800D02*
X10226700Y-10750800D01*
X10226700Y-10623800D02*
X10099700Y-10750800D01*
X10999700Y-10623800D02*
X11126700Y-10750800D01*
X11126700Y-10623800D02*
X10999700Y-10750800D01*
D13*
X7460000Y-6300000D02*
G75*
G02*
X7140000Y-6300000I-160000J0D01*
G01*
X7140000Y-6300000D02*
G75*
G02*
X7460000Y-6300000I160000J0D01*
G01*
X7460000Y-10500000D02*
G75*
G02*
X7140000Y-10500000I-160000J0D01*
G01*
X7140000Y-10500000D02*
G75*
G02*
X7460000Y-10500000I160000J0D01*
G01*
X11660000Y-6300000D02*
G75*
G02*
X11340000Y-6300000I-160000J0D01*
G01*
X11340000Y-6300000D02*
G75*
G02*
X11660000Y-6300000I160000J0D01*
G01*
X11660000Y-10500000D02*
G75*
G02*
X11340000Y-10500000I-160000J0D01*
G01*
X11340000Y-10500000D02*
G75*
G02*
X11660000Y-10500000I160000J0D01*
G01*
D11*
X7255777Y-11116484D02*
X7255777Y-10916484D01*
X7255777Y-10916484D02*
X7303396Y-10916484D01*
X7303396Y-10916484D02*
X7331967Y-10926008D01*
X7331967Y-10926008D02*
X7351015Y-10945055D01*
X7351015Y-10945055D02*
X7360539Y-10964103D01*
X7360539Y-10964103D02*
X7370062Y-11002198D01*
X7370062Y-11002198D02*
X7370062Y-11030770D01*
X7370062Y-11030770D02*
X7360539Y-11068865D01*
X7360539Y-11068865D02*
X7351015Y-11087912D01*
X7351015Y-11087912D02*
X7331967Y-11106960D01*
X7331967Y-11106960D02*
X7303396Y-11116484D01*
X7303396Y-11116484D02*
X7255777Y-11116484D01*
X7455777Y-11116484D02*
X7455777Y-10983150D01*
X7455777Y-11021246D02*
X7465301Y-11002198D01*
X7465301Y-11002198D02*
X7474824Y-10992674D01*
X7474824Y-10992674D02*
X7493872Y-10983150D01*
X7493872Y-10983150D02*
X7512920Y-10983150D01*
X7579586Y-11116484D02*
X7579586Y-10983150D01*
X7579586Y-10916484D02*
X7570062Y-10926008D01*
X7570062Y-10926008D02*
X7579586Y-10935531D01*
X7579586Y-10935531D02*
X7589110Y-10926008D01*
X7589110Y-10926008D02*
X7579586Y-10916484D01*
X7579586Y-10916484D02*
X7579586Y-10935531D01*
X7703396Y-11116484D02*
X7684348Y-11106960D01*
X7684348Y-11106960D02*
X7674824Y-11087912D01*
X7674824Y-11087912D02*
X7674824Y-10916484D01*
X7808158Y-11116484D02*
X7789110Y-11106960D01*
X7789110Y-11106960D02*
X7779586Y-11087912D01*
X7779586Y-11087912D02*
X7779586Y-10916484D01*
X8036729Y-11116484D02*
X8036729Y-10916484D01*
X8036729Y-10916484D02*
X8103396Y-11059341D01*
X8103396Y-11059341D02*
X8170062Y-10916484D01*
X8170062Y-10916484D02*
X8170062Y-11116484D01*
X8351015Y-11116484D02*
X8351015Y-11011722D01*
X8351015Y-11011722D02*
X8341491Y-10992674D01*
X8341491Y-10992674D02*
X8322443Y-10983150D01*
X8322443Y-10983150D02*
X8284348Y-10983150D01*
X8284348Y-10983150D02*
X8265301Y-10992674D01*
X8351015Y-11106960D02*
X8331967Y-11116484D01*
X8331967Y-11116484D02*
X8284348Y-11116484D01*
X8284348Y-11116484D02*
X8265301Y-11106960D01*
X8265301Y-11106960D02*
X8255777Y-11087912D01*
X8255777Y-11087912D02*
X8255777Y-11068865D01*
X8255777Y-11068865D02*
X8265301Y-11049817D01*
X8265301Y-11049817D02*
X8284348Y-11040293D01*
X8284348Y-11040293D02*
X8331967Y-11040293D01*
X8331967Y-11040293D02*
X8351015Y-11030770D01*
X8446253Y-10983150D02*
X8446253Y-11183150D01*
X8446253Y-10992674D02*
X8465301Y-10983150D01*
X8465301Y-10983150D02*
X8503396Y-10983150D01*
X8503396Y-10983150D02*
X8522444Y-10992674D01*
X8522444Y-10992674D02*
X8531967Y-11002198D01*
X8531967Y-11002198D02*
X8541491Y-11021246D01*
X8541491Y-11021246D02*
X8541491Y-11078389D01*
X8541491Y-11078389D02*
X8531967Y-11097436D01*
X8531967Y-11097436D02*
X8522444Y-11106960D01*
X8522444Y-11106960D02*
X8503396Y-11116484D01*
X8503396Y-11116484D02*
X8465301Y-11116484D01*
X8465301Y-11116484D02*
X8446253Y-11106960D01*
X8627205Y-11097436D02*
X8636729Y-11106960D01*
X8636729Y-11106960D02*
X8627205Y-11116484D01*
X8627205Y-11116484D02*
X8617682Y-11106960D01*
X8617682Y-11106960D02*
X8627205Y-11097436D01*
X8627205Y-11097436D02*
X8627205Y-11116484D01*
X8627205Y-10992674D02*
X8636729Y-11002198D01*
X8636729Y-11002198D02*
X8627205Y-11011722D01*
X8627205Y-11011722D02*
X8617682Y-11002198D01*
X8617682Y-11002198D02*
X8627205Y-10992674D01*
X8627205Y-10992674D02*
X8627205Y-11011722D01*
D12*
X6868000Y-11381500D02*
X6995000Y-11508500D01*
X6995000Y-11381500D02*
X6868000Y-11508500D01*
D11*
X7360539Y-11536484D02*
X7246253Y-11536484D01*
X7303396Y-11536484D02*
X7303396Y-11336484D01*
X7303396Y-11336484D02*
X7284348Y-11365055D01*
X7284348Y-11365055D02*
X7265301Y-11384103D01*
X7265301Y-11384103D02*
X7246253Y-11393627D01*
X7446253Y-11517436D02*
X7455777Y-11526960D01*
X7455777Y-11526960D02*
X7446253Y-11536484D01*
X7446253Y-11536484D02*
X7436729Y-11526960D01*
X7436729Y-11526960D02*
X7446253Y-11517436D01*
X7446253Y-11517436D02*
X7446253Y-11536484D01*
X7531967Y-11355531D02*
X7541491Y-11346008D01*
X7541491Y-11346008D02*
X7560539Y-11336484D01*
X7560539Y-11336484D02*
X7608158Y-11336484D01*
X7608158Y-11336484D02*
X7627205Y-11346008D01*
X7627205Y-11346008D02*
X7636729Y-11355531D01*
X7636729Y-11355531D02*
X7646253Y-11374579D01*
X7646253Y-11374579D02*
X7646253Y-11393627D01*
X7646253Y-11393627D02*
X7636729Y-11422198D01*
X7636729Y-11422198D02*
X7522443Y-11536484D01*
X7522443Y-11536484D02*
X7646253Y-11536484D01*
X7712920Y-11336484D02*
X7846253Y-11336484D01*
X7846253Y-11336484D02*
X7760539Y-11536484D01*
X7960539Y-11336484D02*
X7979586Y-11336484D01*
X7979586Y-11336484D02*
X7998634Y-11346008D01*
X7998634Y-11346008D02*
X8008158Y-11355531D01*
X8008158Y-11355531D02*
X8017682Y-11374579D01*
X8017682Y-11374579D02*
X8027205Y-11412674D01*
X8027205Y-11412674D02*
X8027205Y-11460293D01*
X8027205Y-11460293D02*
X8017682Y-11498388D01*
X8017682Y-11498388D02*
X8008158Y-11517436D01*
X8008158Y-11517436D02*
X7998634Y-11526960D01*
X7998634Y-11526960D02*
X7979586Y-11536484D01*
X7979586Y-11536484D02*
X7960539Y-11536484D01*
X7960539Y-11536484D02*
X7941491Y-11526960D01*
X7941491Y-11526960D02*
X7931967Y-11517436D01*
X7931967Y-11517436D02*
X7922443Y-11498388D01*
X7922443Y-11498388D02*
X7912920Y-11460293D01*
X7912920Y-11460293D02*
X7912920Y-11412674D01*
X7912920Y-11412674D02*
X7922443Y-11374579D01*
X7922443Y-11374579D02*
X7931967Y-11355531D01*
X7931967Y-11355531D02*
X7941491Y-11346008D01*
X7941491Y-11346008D02*
X7960539Y-11336484D01*
X8112920Y-11536484D02*
X8112920Y-11403150D01*
X8112920Y-11422198D02*
X8122443Y-11412674D01*
X8122443Y-11412674D02*
X8141491Y-11403150D01*
X8141491Y-11403150D02*
X8170063Y-11403150D01*
X8170063Y-11403150D02*
X8189110Y-11412674D01*
X8189110Y-11412674D02*
X8198634Y-11431722D01*
X8198634Y-11431722D02*
X8198634Y-11536484D01*
X8198634Y-11431722D02*
X8208158Y-11412674D01*
X8208158Y-11412674D02*
X8227205Y-11403150D01*
X8227205Y-11403150D02*
X8255777Y-11403150D01*
X8255777Y-11403150D02*
X8274824Y-11412674D01*
X8274824Y-11412674D02*
X8284348Y-11431722D01*
X8284348Y-11431722D02*
X8284348Y-11536484D01*
X8379586Y-11536484D02*
X8379586Y-11403150D01*
X8379586Y-11422198D02*
X8389110Y-11412674D01*
X8389110Y-11412674D02*
X8408158Y-11403150D01*
X8408158Y-11403150D02*
X8436729Y-11403150D01*
X8436729Y-11403150D02*
X8455777Y-11412674D01*
X8455777Y-11412674D02*
X8465301Y-11431722D01*
X8465301Y-11431722D02*
X8465301Y-11536484D01*
X8465301Y-11431722D02*
X8474825Y-11412674D01*
X8474825Y-11412674D02*
X8493872Y-11403150D01*
X8493872Y-11403150D02*
X8522444Y-11403150D01*
X8522444Y-11403150D02*
X8541491Y-11412674D01*
X8541491Y-11412674D02*
X8551015Y-11431722D01*
X8551015Y-11431722D02*
X8551015Y-11536484D01*
X8941491Y-11326960D02*
X8770063Y-11584103D01*
X9198634Y-11336484D02*
X9217682Y-11336484D01*
X9217682Y-11336484D02*
X9236729Y-11346008D01*
X9236729Y-11346008D02*
X9246253Y-11355531D01*
X9246253Y-11355531D02*
X9255777Y-11374579D01*
X9255777Y-11374579D02*
X9265301Y-11412674D01*
X9265301Y-11412674D02*
X9265301Y-11460293D01*
X9265301Y-11460293D02*
X9255777Y-11498388D01*
X9255777Y-11498388D02*
X9246253Y-11517436D01*
X9246253Y-11517436D02*
X9236729Y-11526960D01*
X9236729Y-11526960D02*
X9217682Y-11536484D01*
X9217682Y-11536484D02*
X9198634Y-11536484D01*
X9198634Y-11536484D02*
X9179587Y-11526960D01*
X9179587Y-11526960D02*
X9170063Y-11517436D01*
X9170063Y-11517436D02*
X9160539Y-11498388D01*
X9160539Y-11498388D02*
X9151015Y-11460293D01*
X9151015Y-11460293D02*
X9151015Y-11412674D01*
X9151015Y-11412674D02*
X9160539Y-11374579D01*
X9160539Y-11374579D02*
X9170063Y-11355531D01*
X9170063Y-11355531D02*
X9179587Y-11346008D01*
X9179587Y-11346008D02*
X9198634Y-11336484D01*
X9351015Y-11517436D02*
X9360539Y-11526960D01*
X9360539Y-11526960D02*
X9351015Y-11536484D01*
X9351015Y-11536484D02*
X9341491Y-11526960D01*
X9341491Y-11526960D02*
X9351015Y-11517436D01*
X9351015Y-11517436D02*
X9351015Y-11536484D01*
X9484348Y-11336484D02*
X9503396Y-11336484D01*
X9503396Y-11336484D02*
X9522444Y-11346008D01*
X9522444Y-11346008D02*
X9531968Y-11355531D01*
X9531968Y-11355531D02*
X9541491Y-11374579D01*
X9541491Y-11374579D02*
X9551015Y-11412674D01*
X9551015Y-11412674D02*
X9551015Y-11460293D01*
X9551015Y-11460293D02*
X9541491Y-11498388D01*
X9541491Y-11498388D02*
X9531968Y-11517436D01*
X9531968Y-11517436D02*
X9522444Y-11526960D01*
X9522444Y-11526960D02*
X9503396Y-11536484D01*
X9503396Y-11536484D02*
X9484348Y-11536484D01*
X9484348Y-11536484D02*
X9465301Y-11526960D01*
X9465301Y-11526960D02*
X9455777Y-11517436D01*
X9455777Y-11517436D02*
X9446253Y-11498388D01*
X9446253Y-11498388D02*
X9436729Y-11460293D01*
X9436729Y-11460293D02*
X9436729Y-11412674D01*
X9436729Y-11412674D02*
X9446253Y-11374579D01*
X9446253Y-11374579D02*
X9455777Y-11355531D01*
X9455777Y-11355531D02*
X9465301Y-11346008D01*
X9465301Y-11346008D02*
X9484348Y-11336484D01*
X9731968Y-11336484D02*
X9636729Y-11336484D01*
X9636729Y-11336484D02*
X9627206Y-11431722D01*
X9627206Y-11431722D02*
X9636729Y-11422198D01*
X9636729Y-11422198D02*
X9655777Y-11412674D01*
X9655777Y-11412674D02*
X9703396Y-11412674D01*
X9703396Y-11412674D02*
X9722444Y-11422198D01*
X9722444Y-11422198D02*
X9731968Y-11431722D01*
X9731968Y-11431722D02*
X9741491Y-11450769D01*
X9741491Y-11450769D02*
X9741491Y-11498388D01*
X9741491Y-11498388D02*
X9731968Y-11517436D01*
X9731968Y-11517436D02*
X9722444Y-11526960D01*
X9722444Y-11526960D02*
X9703396Y-11536484D01*
X9703396Y-11536484D02*
X9655777Y-11536484D01*
X9655777Y-11536484D02*
X9636729Y-11526960D01*
X9636729Y-11526960D02*
X9627206Y-11517436D01*
X9865301Y-11336484D02*
X9884349Y-11336484D01*
X9884349Y-11336484D02*
X9903396Y-11346008D01*
X9903396Y-11346008D02*
X9912920Y-11355531D01*
X9912920Y-11355531D02*
X9922444Y-11374579D01*
X9922444Y-11374579D02*
X9931968Y-11412674D01*
X9931968Y-11412674D02*
X9931968Y-11460293D01*
X9931968Y-11460293D02*
X9922444Y-11498388D01*
X9922444Y-11498388D02*
X9912920Y-11517436D01*
X9912920Y-11517436D02*
X9903396Y-11526960D01*
X9903396Y-11526960D02*
X9884349Y-11536484D01*
X9884349Y-11536484D02*
X9865301Y-11536484D01*
X9865301Y-11536484D02*
X9846253Y-11526960D01*
X9846253Y-11526960D02*
X9836729Y-11517436D01*
X9836729Y-11517436D02*
X9827206Y-11498388D01*
X9827206Y-11498388D02*
X9817682Y-11460293D01*
X9817682Y-11460293D02*
X9817682Y-11412674D01*
X9817682Y-11412674D02*
X9827206Y-11374579D01*
X9827206Y-11374579D02*
X9836729Y-11355531D01*
X9836729Y-11355531D02*
X9846253Y-11346008D01*
X9846253Y-11346008D02*
X9865301Y-11336484D01*
X10055777Y-11336484D02*
X10074825Y-11336484D01*
X10074825Y-11336484D02*
X10093872Y-11346008D01*
X10093872Y-11346008D02*
X10103396Y-11355531D01*
X10103396Y-11355531D02*
X10112920Y-11374579D01*
X10112920Y-11374579D02*
X10122444Y-11412674D01*
X10122444Y-11412674D02*
X10122444Y-11460293D01*
X10122444Y-11460293D02*
X10112920Y-11498388D01*
X10112920Y-11498388D02*
X10103396Y-11517436D01*
X10103396Y-11517436D02*
X10093872Y-11526960D01*
X10093872Y-11526960D02*
X10074825Y-11536484D01*
X10074825Y-11536484D02*
X10055777Y-11536484D01*
X10055777Y-11536484D02*
X10036729Y-11526960D01*
X10036729Y-11526960D02*
X10027206Y-11517436D01*
X10027206Y-11517436D02*
X10017682Y-11498388D01*
X10017682Y-11498388D02*
X10008158Y-11460293D01*
X10008158Y-11460293D02*
X10008158Y-11412674D01*
X10008158Y-11412674D02*
X10017682Y-11374579D01*
X10017682Y-11374579D02*
X10027206Y-11355531D01*
X10027206Y-11355531D02*
X10036729Y-11346008D01*
X10036729Y-11346008D02*
X10055777Y-11336484D01*
X10198634Y-11336484D02*
X10198634Y-11374579D01*
X10274825Y-11336484D02*
X10274825Y-11374579D01*
X10570063Y-11612674D02*
X10560539Y-11603150D01*
X10560539Y-11603150D02*
X10541491Y-11574579D01*
X10541491Y-11574579D02*
X10531968Y-11555531D01*
X10531968Y-11555531D02*
X10522444Y-11526960D01*
X10522444Y-11526960D02*
X10512920Y-11479341D01*
X10512920Y-11479341D02*
X10512920Y-11441246D01*
X10512920Y-11441246D02*
X10522444Y-11393627D01*
X10522444Y-11393627D02*
X10531968Y-11365055D01*
X10531968Y-11365055D02*
X10541491Y-11346008D01*
X10541491Y-11346008D02*
X10560539Y-11317436D01*
X10560539Y-11317436D02*
X10570063Y-11307912D01*
X10731968Y-11336484D02*
X10693872Y-11336484D01*
X10693872Y-11336484D02*
X10674825Y-11346008D01*
X10674825Y-11346008D02*
X10665301Y-11355531D01*
X10665301Y-11355531D02*
X10646253Y-11384103D01*
X10646253Y-11384103D02*
X10636730Y-11422198D01*
X10636730Y-11422198D02*
X10636730Y-11498388D01*
X10636730Y-11498388D02*
X10646253Y-11517436D01*
X10646253Y-11517436D02*
X10655777Y-11526960D01*
X10655777Y-11526960D02*
X10674825Y-11536484D01*
X10674825Y-11536484D02*
X10712920Y-11536484D01*
X10712920Y-11536484D02*
X10731968Y-11526960D01*
X10731968Y-11526960D02*
X10741491Y-11517436D01*
X10741491Y-11517436D02*
X10751015Y-11498388D01*
X10751015Y-11498388D02*
X10751015Y-11450769D01*
X10751015Y-11450769D02*
X10741491Y-11431722D01*
X10741491Y-11431722D02*
X10731968Y-11422198D01*
X10731968Y-11422198D02*
X10712920Y-11412674D01*
X10712920Y-11412674D02*
X10674825Y-11412674D01*
X10674825Y-11412674D02*
X10655777Y-11422198D01*
X10655777Y-11422198D02*
X10646253Y-11431722D01*
X10646253Y-11431722D02*
X10636730Y-11450769D01*
X10989111Y-11536484D02*
X10989111Y-11336484D01*
X11074825Y-11536484D02*
X11074825Y-11431722D01*
X11074825Y-11431722D02*
X11065301Y-11412674D01*
X11065301Y-11412674D02*
X11046253Y-11403150D01*
X11046253Y-11403150D02*
X11017682Y-11403150D01*
X11017682Y-11403150D02*
X10998634Y-11412674D01*
X10998634Y-11412674D02*
X10989111Y-11422198D01*
X11198634Y-11536484D02*
X11179587Y-11526960D01*
X11179587Y-11526960D02*
X11170063Y-11517436D01*
X11170063Y-11517436D02*
X11160539Y-11498388D01*
X11160539Y-11498388D02*
X11160539Y-11441246D01*
X11160539Y-11441246D02*
X11170063Y-11422198D01*
X11170063Y-11422198D02*
X11179587Y-11412674D01*
X11179587Y-11412674D02*
X11198634Y-11403150D01*
X11198634Y-11403150D02*
X11227206Y-11403150D01*
X11227206Y-11403150D02*
X11246253Y-11412674D01*
X11246253Y-11412674D02*
X11255777Y-11422198D01*
X11255777Y-11422198D02*
X11265301Y-11441246D01*
X11265301Y-11441246D02*
X11265301Y-11498388D01*
X11265301Y-11498388D02*
X11255777Y-11517436D01*
X11255777Y-11517436D02*
X11246253Y-11526960D01*
X11246253Y-11526960D02*
X11227206Y-11536484D01*
X11227206Y-11536484D02*
X11198634Y-11536484D01*
X11379587Y-11536484D02*
X11360539Y-11526960D01*
X11360539Y-11526960D02*
X11351015Y-11507912D01*
X11351015Y-11507912D02*
X11351015Y-11336484D01*
X11531968Y-11526960D02*
X11512920Y-11536484D01*
X11512920Y-11536484D02*
X11474825Y-11536484D01*
X11474825Y-11536484D02*
X11455777Y-11526960D01*
X11455777Y-11526960D02*
X11446253Y-11507912D01*
X11446253Y-11507912D02*
X11446253Y-11431722D01*
X11446253Y-11431722D02*
X11455777Y-11412674D01*
X11455777Y-11412674D02*
X11474825Y-11403150D01*
X11474825Y-11403150D02*
X11512920Y-11403150D01*
X11512920Y-11403150D02*
X11531968Y-11412674D01*
X11531968Y-11412674D02*
X11541491Y-11431722D01*
X11541491Y-11431722D02*
X11541491Y-11450769D01*
X11541491Y-11450769D02*
X11446253Y-11469817D01*
X11617682Y-11526960D02*
X11636730Y-11536484D01*
X11636730Y-11536484D02*
X11674825Y-11536484D01*
X11674825Y-11536484D02*
X11693872Y-11526960D01*
X11693872Y-11526960D02*
X11703396Y-11507912D01*
X11703396Y-11507912D02*
X11703396Y-11498388D01*
X11703396Y-11498388D02*
X11693872Y-11479341D01*
X11693872Y-11479341D02*
X11674825Y-11469817D01*
X11674825Y-11469817D02*
X11646253Y-11469817D01*
X11646253Y-11469817D02*
X11627206Y-11460293D01*
X11627206Y-11460293D02*
X11617682Y-11441246D01*
X11617682Y-11441246D02*
X11617682Y-11431722D01*
X11617682Y-11431722D02*
X11627206Y-11412674D01*
X11627206Y-11412674D02*
X11646253Y-11403150D01*
X11646253Y-11403150D02*
X11674825Y-11403150D01*
X11674825Y-11403150D02*
X11693872Y-11412674D01*
X11770063Y-11612674D02*
X11779587Y-11603150D01*
X11779587Y-11603150D02*
X11798634Y-11574579D01*
X11798634Y-11574579D02*
X11808158Y-11555531D01*
X11808158Y-11555531D02*
X11817682Y-11526960D01*
X11817682Y-11526960D02*
X11827206Y-11479341D01*
X11827206Y-11479341D02*
X11827206Y-11441246D01*
X11827206Y-11441246D02*
X11817682Y-11393627D01*
X11817682Y-11393627D02*
X11808158Y-11365055D01*
X11808158Y-11365055D02*
X11798634Y-11346008D01*
X11798634Y-11346008D02*
X11779587Y-11317436D01*
X11779587Y-11317436D02*
X11770063Y-11307912D01*
X12131968Y-11612674D02*
X12122444Y-11603150D01*
X12122444Y-11603150D02*
X12103396Y-11574579D01*
X12103396Y-11574579D02*
X12093872Y-11555531D01*
X12093872Y-11555531D02*
X12084349Y-11526960D01*
X12084349Y-11526960D02*
X12074825Y-11479341D01*
X12074825Y-11479341D02*
X12074825Y-11441246D01*
X12074825Y-11441246D02*
X12084349Y-11393627D01*
X12084349Y-11393627D02*
X12093872Y-11365055D01*
X12093872Y-11365055D02*
X12103396Y-11346008D01*
X12103396Y-11346008D02*
X12122444Y-11317436D01*
X12122444Y-11317436D02*
X12131968Y-11307912D01*
X12208158Y-11403150D02*
X12208158Y-11536484D01*
X12208158Y-11422198D02*
X12217682Y-11412674D01*
X12217682Y-11412674D02*
X12236730Y-11403150D01*
X12236730Y-11403150D02*
X12265301Y-11403150D01*
X12265301Y-11403150D02*
X12284349Y-11412674D01*
X12284349Y-11412674D02*
X12293872Y-11431722D01*
X12293872Y-11431722D02*
X12293872Y-11536484D01*
X12417682Y-11536484D02*
X12398634Y-11526960D01*
X12398634Y-11526960D02*
X12389111Y-11517436D01*
X12389111Y-11517436D02*
X12379587Y-11498388D01*
X12379587Y-11498388D02*
X12379587Y-11441246D01*
X12379587Y-11441246D02*
X12389111Y-11422198D01*
X12389111Y-11422198D02*
X12398634Y-11412674D01*
X12398634Y-11412674D02*
X12417682Y-11403150D01*
X12417682Y-11403150D02*
X12446253Y-11403150D01*
X12446253Y-11403150D02*
X12465301Y-11412674D01*
X12465301Y-11412674D02*
X12474825Y-11422198D01*
X12474825Y-11422198D02*
X12484349Y-11441246D01*
X12484349Y-11441246D02*
X12484349Y-11498388D01*
X12484349Y-11498388D02*
X12474825Y-11517436D01*
X12474825Y-11517436D02*
X12465301Y-11526960D01*
X12465301Y-11526960D02*
X12446253Y-11536484D01*
X12446253Y-11536484D02*
X12417682Y-11536484D01*
X12541492Y-11403150D02*
X12617682Y-11403150D01*
X12570063Y-11336484D02*
X12570063Y-11507912D01*
X12570063Y-11507912D02*
X12579587Y-11526960D01*
X12579587Y-11526960D02*
X12598634Y-11536484D01*
X12598634Y-11536484D02*
X12617682Y-11536484D01*
X12836730Y-11403150D02*
X12836730Y-11603150D01*
X12836730Y-11412674D02*
X12855777Y-11403150D01*
X12855777Y-11403150D02*
X12893873Y-11403150D01*
X12893873Y-11403150D02*
X12912920Y-11412674D01*
X12912920Y-11412674D02*
X12922444Y-11422198D01*
X12922444Y-11422198D02*
X12931968Y-11441246D01*
X12931968Y-11441246D02*
X12931968Y-11498388D01*
X12931968Y-11498388D02*
X12922444Y-11517436D01*
X12922444Y-11517436D02*
X12912920Y-11526960D01*
X12912920Y-11526960D02*
X12893873Y-11536484D01*
X12893873Y-11536484D02*
X12855777Y-11536484D01*
X12855777Y-11536484D02*
X12836730Y-11526960D01*
X13046253Y-11536484D02*
X13027206Y-11526960D01*
X13027206Y-11526960D02*
X13017682Y-11507912D01*
X13017682Y-11507912D02*
X13017682Y-11336484D01*
X13208158Y-11536484D02*
X13208158Y-11431722D01*
X13208158Y-11431722D02*
X13198634Y-11412674D01*
X13198634Y-11412674D02*
X13179587Y-11403150D01*
X13179587Y-11403150D02*
X13141492Y-11403150D01*
X13141492Y-11403150D02*
X13122444Y-11412674D01*
X13208158Y-11526960D02*
X13189111Y-11536484D01*
X13189111Y-11536484D02*
X13141492Y-11536484D01*
X13141492Y-11536484D02*
X13122444Y-11526960D01*
X13122444Y-11526960D02*
X13112920Y-11507912D01*
X13112920Y-11507912D02*
X13112920Y-11488865D01*
X13112920Y-11488865D02*
X13122444Y-11469817D01*
X13122444Y-11469817D02*
X13141492Y-11460293D01*
X13141492Y-11460293D02*
X13189111Y-11460293D01*
X13189111Y-11460293D02*
X13208158Y-11450769D01*
X13274825Y-11403150D02*
X13351015Y-11403150D01*
X13303396Y-11336484D02*
X13303396Y-11507912D01*
X13303396Y-11507912D02*
X13312920Y-11526960D01*
X13312920Y-11526960D02*
X13331968Y-11536484D01*
X13331968Y-11536484D02*
X13351015Y-11536484D01*
X13493873Y-11526960D02*
X13474825Y-11536484D01*
X13474825Y-11536484D02*
X13436730Y-11536484D01*
X13436730Y-11536484D02*
X13417682Y-11526960D01*
X13417682Y-11526960D02*
X13408158Y-11507912D01*
X13408158Y-11507912D02*
X13408158Y-11431722D01*
X13408158Y-11431722D02*
X13417682Y-11412674D01*
X13417682Y-11412674D02*
X13436730Y-11403150D01*
X13436730Y-11403150D02*
X13474825Y-11403150D01*
X13474825Y-11403150D02*
X13493873Y-11412674D01*
X13493873Y-11412674D02*
X13503396Y-11431722D01*
X13503396Y-11431722D02*
X13503396Y-11450769D01*
X13503396Y-11450769D02*
X13408158Y-11469817D01*
X13674825Y-11536484D02*
X13674825Y-11336484D01*
X13674825Y-11526960D02*
X13655777Y-11536484D01*
X13655777Y-11536484D02*
X13617682Y-11536484D01*
X13617682Y-11536484D02*
X13598634Y-11526960D01*
X13598634Y-11526960D02*
X13589111Y-11517436D01*
X13589111Y-11517436D02*
X13579587Y-11498388D01*
X13579587Y-11498388D02*
X13579587Y-11441246D01*
X13579587Y-11441246D02*
X13589111Y-11422198D01*
X13589111Y-11422198D02*
X13598634Y-11412674D01*
X13598634Y-11412674D02*
X13617682Y-11403150D01*
X13617682Y-11403150D02*
X13655777Y-11403150D01*
X13655777Y-11403150D02*
X13674825Y-11412674D01*
X13751015Y-11612674D02*
X13760539Y-11603150D01*
X13760539Y-11603150D02*
X13779587Y-11574579D01*
X13779587Y-11574579D02*
X13789111Y-11555531D01*
X13789111Y-11555531D02*
X13798634Y-11526960D01*
X13798634Y-11526960D02*
X13808158Y-11479341D01*
X13808158Y-11479341D02*
X13808158Y-11441246D01*
X13808158Y-11441246D02*
X13798634Y-11393627D01*
X13798634Y-11393627D02*
X13789111Y-11365055D01*
X13789111Y-11365055D02*
X13779587Y-11346008D01*
X13779587Y-11346008D02*
X13760539Y-11317436D01*
X13760539Y-11317436D02*
X13751015Y-11307912D01*
X6995000Y-11709000D02*
G75*
G02*
X6795000Y-11709000I-100000J0D01*
G01*
X6795000Y-11709000D02*
G75*
G02*
X6995000Y-11709000I100000J0D01*
G01*
X7236729Y-11600484D02*
X7360539Y-11600484D01*
X7360539Y-11600484D02*
X7293872Y-11676674D01*
X7293872Y-11676674D02*
X7322443Y-11676674D01*
X7322443Y-11676674D02*
X7341491Y-11686198D01*
X7341491Y-11686198D02*
X7351015Y-11695722D01*
X7351015Y-11695722D02*
X7360539Y-11714769D01*
X7360539Y-11714769D02*
X7360539Y-11762388D01*
X7360539Y-11762388D02*
X7351015Y-11781436D01*
X7351015Y-11781436D02*
X7341491Y-11790960D01*
X7341491Y-11790960D02*
X7322443Y-11800484D01*
X7322443Y-11800484D02*
X7265301Y-11800484D01*
X7265301Y-11800484D02*
X7246253Y-11790960D01*
X7246253Y-11790960D02*
X7236729Y-11781436D01*
X7446253Y-11781436D02*
X7455777Y-11790960D01*
X7455777Y-11790960D02*
X7446253Y-11800484D01*
X7446253Y-11800484D02*
X7436729Y-11790960D01*
X7436729Y-11790960D02*
X7446253Y-11781436D01*
X7446253Y-11781436D02*
X7446253Y-11800484D01*
X7531967Y-11619531D02*
X7541491Y-11610008D01*
X7541491Y-11610008D02*
X7560539Y-11600484D01*
X7560539Y-11600484D02*
X7608158Y-11600484D01*
X7608158Y-11600484D02*
X7627205Y-11610008D01*
X7627205Y-11610008D02*
X7636729Y-11619531D01*
X7636729Y-11619531D02*
X7646253Y-11638579D01*
X7646253Y-11638579D02*
X7646253Y-11657627D01*
X7646253Y-11657627D02*
X7636729Y-11686198D01*
X7636729Y-11686198D02*
X7522443Y-11800484D01*
X7522443Y-11800484D02*
X7646253Y-11800484D01*
X7770062Y-11600484D02*
X7789110Y-11600484D01*
X7789110Y-11600484D02*
X7808158Y-11610008D01*
X7808158Y-11610008D02*
X7817682Y-11619531D01*
X7817682Y-11619531D02*
X7827205Y-11638579D01*
X7827205Y-11638579D02*
X7836729Y-11676674D01*
X7836729Y-11676674D02*
X7836729Y-11724293D01*
X7836729Y-11724293D02*
X7827205Y-11762388D01*
X7827205Y-11762388D02*
X7817682Y-11781436D01*
X7817682Y-11781436D02*
X7808158Y-11790960D01*
X7808158Y-11790960D02*
X7789110Y-11800484D01*
X7789110Y-11800484D02*
X7770062Y-11800484D01*
X7770062Y-11800484D02*
X7751015Y-11790960D01*
X7751015Y-11790960D02*
X7741491Y-11781436D01*
X7741491Y-11781436D02*
X7731967Y-11762388D01*
X7731967Y-11762388D02*
X7722443Y-11724293D01*
X7722443Y-11724293D02*
X7722443Y-11676674D01*
X7722443Y-11676674D02*
X7731967Y-11638579D01*
X7731967Y-11638579D02*
X7741491Y-11619531D01*
X7741491Y-11619531D02*
X7751015Y-11610008D01*
X7751015Y-11610008D02*
X7770062Y-11600484D01*
X7960539Y-11600484D02*
X7979586Y-11600484D01*
X7979586Y-11600484D02*
X7998634Y-11610008D01*
X7998634Y-11610008D02*
X8008158Y-11619531D01*
X8008158Y-11619531D02*
X8017682Y-11638579D01*
X8017682Y-11638579D02*
X8027205Y-11676674D01*
X8027205Y-11676674D02*
X8027205Y-11724293D01*
X8027205Y-11724293D02*
X8017682Y-11762388D01*
X8017682Y-11762388D02*
X8008158Y-11781436D01*
X8008158Y-11781436D02*
X7998634Y-11790960D01*
X7998634Y-11790960D02*
X7979586Y-11800484D01*
X7979586Y-11800484D02*
X7960539Y-11800484D01*
X7960539Y-11800484D02*
X7941491Y-11790960D01*
X7941491Y-11790960D02*
X7931967Y-11781436D01*
X7931967Y-11781436D02*
X7922443Y-11762388D01*
X7922443Y-11762388D02*
X7912920Y-11724293D01*
X7912920Y-11724293D02*
X7912920Y-11676674D01*
X7912920Y-11676674D02*
X7922443Y-11638579D01*
X7922443Y-11638579D02*
X7931967Y-11619531D01*
X7931967Y-11619531D02*
X7941491Y-11610008D01*
X7941491Y-11610008D02*
X7960539Y-11600484D01*
X8112920Y-11800484D02*
X8112920Y-11667150D01*
X8112920Y-11686198D02*
X8122443Y-11676674D01*
X8122443Y-11676674D02*
X8141491Y-11667150D01*
X8141491Y-11667150D02*
X8170063Y-11667150D01*
X8170063Y-11667150D02*
X8189110Y-11676674D01*
X8189110Y-11676674D02*
X8198634Y-11695722D01*
X8198634Y-11695722D02*
X8198634Y-11800484D01*
X8198634Y-11695722D02*
X8208158Y-11676674D01*
X8208158Y-11676674D02*
X8227205Y-11667150D01*
X8227205Y-11667150D02*
X8255777Y-11667150D01*
X8255777Y-11667150D02*
X8274824Y-11676674D01*
X8274824Y-11676674D02*
X8284348Y-11695722D01*
X8284348Y-11695722D02*
X8284348Y-11800484D01*
X8379586Y-11800484D02*
X8379586Y-11667150D01*
X8379586Y-11686198D02*
X8389110Y-11676674D01*
X8389110Y-11676674D02*
X8408158Y-11667150D01*
X8408158Y-11667150D02*
X8436729Y-11667150D01*
X8436729Y-11667150D02*
X8455777Y-11676674D01*
X8455777Y-11676674D02*
X8465301Y-11695722D01*
X8465301Y-11695722D02*
X8465301Y-11800484D01*
X8465301Y-11695722D02*
X8474825Y-11676674D01*
X8474825Y-11676674D02*
X8493872Y-11667150D01*
X8493872Y-11667150D02*
X8522444Y-11667150D01*
X8522444Y-11667150D02*
X8541491Y-11676674D01*
X8541491Y-11676674D02*
X8551015Y-11695722D01*
X8551015Y-11695722D02*
X8551015Y-11800484D01*
X8941491Y-11590960D02*
X8770063Y-11848103D01*
X9198634Y-11600484D02*
X9217682Y-11600484D01*
X9217682Y-11600484D02*
X9236729Y-11610008D01*
X9236729Y-11610008D02*
X9246253Y-11619531D01*
X9246253Y-11619531D02*
X9255777Y-11638579D01*
X9255777Y-11638579D02*
X9265301Y-11676674D01*
X9265301Y-11676674D02*
X9265301Y-11724293D01*
X9265301Y-11724293D02*
X9255777Y-11762388D01*
X9255777Y-11762388D02*
X9246253Y-11781436D01*
X9246253Y-11781436D02*
X9236729Y-11790960D01*
X9236729Y-11790960D02*
X9217682Y-11800484D01*
X9217682Y-11800484D02*
X9198634Y-11800484D01*
X9198634Y-11800484D02*
X9179587Y-11790960D01*
X9179587Y-11790960D02*
X9170063Y-11781436D01*
X9170063Y-11781436D02*
X9160539Y-11762388D01*
X9160539Y-11762388D02*
X9151015Y-11724293D01*
X9151015Y-11724293D02*
X9151015Y-11676674D01*
X9151015Y-11676674D02*
X9160539Y-11638579D01*
X9160539Y-11638579D02*
X9170063Y-11619531D01*
X9170063Y-11619531D02*
X9179587Y-11610008D01*
X9179587Y-11610008D02*
X9198634Y-11600484D01*
X9351015Y-11781436D02*
X9360539Y-11790960D01*
X9360539Y-11790960D02*
X9351015Y-11800484D01*
X9351015Y-11800484D02*
X9341491Y-11790960D01*
X9341491Y-11790960D02*
X9351015Y-11781436D01*
X9351015Y-11781436D02*
X9351015Y-11800484D01*
X9551015Y-11800484D02*
X9436729Y-11800484D01*
X9493872Y-11800484D02*
X9493872Y-11600484D01*
X9493872Y-11600484D02*
X9474825Y-11629055D01*
X9474825Y-11629055D02*
X9455777Y-11648103D01*
X9455777Y-11648103D02*
X9436729Y-11657627D01*
X9627206Y-11619531D02*
X9636729Y-11610008D01*
X9636729Y-11610008D02*
X9655777Y-11600484D01*
X9655777Y-11600484D02*
X9703396Y-11600484D01*
X9703396Y-11600484D02*
X9722444Y-11610008D01*
X9722444Y-11610008D02*
X9731968Y-11619531D01*
X9731968Y-11619531D02*
X9741491Y-11638579D01*
X9741491Y-11638579D02*
X9741491Y-11657627D01*
X9741491Y-11657627D02*
X9731968Y-11686198D01*
X9731968Y-11686198D02*
X9617682Y-11800484D01*
X9617682Y-11800484D02*
X9741491Y-11800484D01*
X9912920Y-11600484D02*
X9874825Y-11600484D01*
X9874825Y-11600484D02*
X9855777Y-11610008D01*
X9855777Y-11610008D02*
X9846253Y-11619531D01*
X9846253Y-11619531D02*
X9827206Y-11648103D01*
X9827206Y-11648103D02*
X9817682Y-11686198D01*
X9817682Y-11686198D02*
X9817682Y-11762388D01*
X9817682Y-11762388D02*
X9827206Y-11781436D01*
X9827206Y-11781436D02*
X9836729Y-11790960D01*
X9836729Y-11790960D02*
X9855777Y-11800484D01*
X9855777Y-11800484D02*
X9893872Y-11800484D01*
X9893872Y-11800484D02*
X9912920Y-11790960D01*
X9912920Y-11790960D02*
X9922444Y-11781436D01*
X9922444Y-11781436D02*
X9931968Y-11762388D01*
X9931968Y-11762388D02*
X9931968Y-11714769D01*
X9931968Y-11714769D02*
X9922444Y-11695722D01*
X9922444Y-11695722D02*
X9912920Y-11686198D01*
X9912920Y-11686198D02*
X9893872Y-11676674D01*
X9893872Y-11676674D02*
X9855777Y-11676674D01*
X9855777Y-11676674D02*
X9836729Y-11686198D01*
X9836729Y-11686198D02*
X9827206Y-11695722D01*
X9827206Y-11695722D02*
X9817682Y-11714769D01*
X10055777Y-11600484D02*
X10074825Y-11600484D01*
X10074825Y-11600484D02*
X10093872Y-11610008D01*
X10093872Y-11610008D02*
X10103396Y-11619531D01*
X10103396Y-11619531D02*
X10112920Y-11638579D01*
X10112920Y-11638579D02*
X10122444Y-11676674D01*
X10122444Y-11676674D02*
X10122444Y-11724293D01*
X10122444Y-11724293D02*
X10112920Y-11762388D01*
X10112920Y-11762388D02*
X10103396Y-11781436D01*
X10103396Y-11781436D02*
X10093872Y-11790960D01*
X10093872Y-11790960D02*
X10074825Y-11800484D01*
X10074825Y-11800484D02*
X10055777Y-11800484D01*
X10055777Y-11800484D02*
X10036729Y-11790960D01*
X10036729Y-11790960D02*
X10027206Y-11781436D01*
X10027206Y-11781436D02*
X10017682Y-11762388D01*
X10017682Y-11762388D02*
X10008158Y-11724293D01*
X10008158Y-11724293D02*
X10008158Y-11676674D01*
X10008158Y-11676674D02*
X10017682Y-11638579D01*
X10017682Y-11638579D02*
X10027206Y-11619531D01*
X10027206Y-11619531D02*
X10036729Y-11610008D01*
X10036729Y-11610008D02*
X10055777Y-11600484D01*
X10198634Y-11600484D02*
X10198634Y-11638579D01*
X10274825Y-11600484D02*
X10274825Y-11638579D01*
X10570063Y-11876674D02*
X10560539Y-11867150D01*
X10560539Y-11867150D02*
X10541491Y-11838579D01*
X10541491Y-11838579D02*
X10531968Y-11819531D01*
X10531968Y-11819531D02*
X10522444Y-11790960D01*
X10522444Y-11790960D02*
X10512920Y-11743341D01*
X10512920Y-11743341D02*
X10512920Y-11705246D01*
X10512920Y-11705246D02*
X10522444Y-11657627D01*
X10522444Y-11657627D02*
X10531968Y-11629055D01*
X10531968Y-11629055D02*
X10541491Y-11610008D01*
X10541491Y-11610008D02*
X10560539Y-11581436D01*
X10560539Y-11581436D02*
X10570063Y-11571912D01*
X10731968Y-11667150D02*
X10731968Y-11800484D01*
X10684349Y-11590960D02*
X10636730Y-11733817D01*
X10636730Y-11733817D02*
X10760539Y-11733817D01*
X10989111Y-11800484D02*
X10989111Y-11600484D01*
X11074825Y-11800484D02*
X11074825Y-11695722D01*
X11074825Y-11695722D02*
X11065301Y-11676674D01*
X11065301Y-11676674D02*
X11046253Y-11667150D01*
X11046253Y-11667150D02*
X11017682Y-11667150D01*
X11017682Y-11667150D02*
X10998634Y-11676674D01*
X10998634Y-11676674D02*
X10989111Y-11686198D01*
X11198634Y-11800484D02*
X11179587Y-11790960D01*
X11179587Y-11790960D02*
X11170063Y-11781436D01*
X11170063Y-11781436D02*
X11160539Y-11762388D01*
X11160539Y-11762388D02*
X11160539Y-11705246D01*
X11160539Y-11705246D02*
X11170063Y-11686198D01*
X11170063Y-11686198D02*
X11179587Y-11676674D01*
X11179587Y-11676674D02*
X11198634Y-11667150D01*
X11198634Y-11667150D02*
X11227206Y-11667150D01*
X11227206Y-11667150D02*
X11246253Y-11676674D01*
X11246253Y-11676674D02*
X11255777Y-11686198D01*
X11255777Y-11686198D02*
X11265301Y-11705246D01*
X11265301Y-11705246D02*
X11265301Y-11762388D01*
X11265301Y-11762388D02*
X11255777Y-11781436D01*
X11255777Y-11781436D02*
X11246253Y-11790960D01*
X11246253Y-11790960D02*
X11227206Y-11800484D01*
X11227206Y-11800484D02*
X11198634Y-11800484D01*
X11379587Y-11800484D02*
X11360539Y-11790960D01*
X11360539Y-11790960D02*
X11351015Y-11771912D01*
X11351015Y-11771912D02*
X11351015Y-11600484D01*
X11531968Y-11790960D02*
X11512920Y-11800484D01*
X11512920Y-11800484D02*
X11474825Y-11800484D01*
X11474825Y-11800484D02*
X11455777Y-11790960D01*
X11455777Y-11790960D02*
X11446253Y-11771912D01*
X11446253Y-11771912D02*
X11446253Y-11695722D01*
X11446253Y-11695722D02*
X11455777Y-11676674D01*
X11455777Y-11676674D02*
X11474825Y-11667150D01*
X11474825Y-11667150D02*
X11512920Y-11667150D01*
X11512920Y-11667150D02*
X11531968Y-11676674D01*
X11531968Y-11676674D02*
X11541491Y-11695722D01*
X11541491Y-11695722D02*
X11541491Y-11714769D01*
X11541491Y-11714769D02*
X11446253Y-11733817D01*
X11617682Y-11790960D02*
X11636730Y-11800484D01*
X11636730Y-11800484D02*
X11674825Y-11800484D01*
X11674825Y-11800484D02*
X11693872Y-11790960D01*
X11693872Y-11790960D02*
X11703396Y-11771912D01*
X11703396Y-11771912D02*
X11703396Y-11762388D01*
X11703396Y-11762388D02*
X11693872Y-11743341D01*
X11693872Y-11743341D02*
X11674825Y-11733817D01*
X11674825Y-11733817D02*
X11646253Y-11733817D01*
X11646253Y-11733817D02*
X11627206Y-11724293D01*
X11627206Y-11724293D02*
X11617682Y-11705246D01*
X11617682Y-11705246D02*
X11617682Y-11695722D01*
X11617682Y-11695722D02*
X11627206Y-11676674D01*
X11627206Y-11676674D02*
X11646253Y-11667150D01*
X11646253Y-11667150D02*
X11674825Y-11667150D01*
X11674825Y-11667150D02*
X11693872Y-11676674D01*
X11770063Y-11876674D02*
X11779587Y-11867150D01*
X11779587Y-11867150D02*
X11798634Y-11838579D01*
X11798634Y-11838579D02*
X11808158Y-11819531D01*
X11808158Y-11819531D02*
X11817682Y-11790960D01*
X11817682Y-11790960D02*
X11827206Y-11743341D01*
X11827206Y-11743341D02*
X11827206Y-11705246D01*
X11827206Y-11705246D02*
X11817682Y-11657627D01*
X11817682Y-11657627D02*
X11808158Y-11629055D01*
X11808158Y-11629055D02*
X11798634Y-11610008D01*
X11798634Y-11610008D02*
X11779587Y-11581436D01*
X11779587Y-11581436D02*
X11770063Y-11571912D01*
X12131968Y-11876674D02*
X12122444Y-11867150D01*
X12122444Y-11867150D02*
X12103396Y-11838579D01*
X12103396Y-11838579D02*
X12093872Y-11819531D01*
X12093872Y-11819531D02*
X12084349Y-11790960D01*
X12084349Y-11790960D02*
X12074825Y-11743341D01*
X12074825Y-11743341D02*
X12074825Y-11705246D01*
X12074825Y-11705246D02*
X12084349Y-11657627D01*
X12084349Y-11657627D02*
X12093872Y-11629055D01*
X12093872Y-11629055D02*
X12103396Y-11610008D01*
X12103396Y-11610008D02*
X12122444Y-11581436D01*
X12122444Y-11581436D02*
X12131968Y-11571912D01*
X12208158Y-11667150D02*
X12208158Y-11800484D01*
X12208158Y-11686198D02*
X12217682Y-11676674D01*
X12217682Y-11676674D02*
X12236730Y-11667150D01*
X12236730Y-11667150D02*
X12265301Y-11667150D01*
X12265301Y-11667150D02*
X12284349Y-11676674D01*
X12284349Y-11676674D02*
X12293872Y-11695722D01*
X12293872Y-11695722D02*
X12293872Y-11800484D01*
X12417682Y-11800484D02*
X12398634Y-11790960D01*
X12398634Y-11790960D02*
X12389111Y-11781436D01*
X12389111Y-11781436D02*
X12379587Y-11762388D01*
X12379587Y-11762388D02*
X12379587Y-11705246D01*
X12379587Y-11705246D02*
X12389111Y-11686198D01*
X12389111Y-11686198D02*
X12398634Y-11676674D01*
X12398634Y-11676674D02*
X12417682Y-11667150D01*
X12417682Y-11667150D02*
X12446253Y-11667150D01*
X12446253Y-11667150D02*
X12465301Y-11676674D01*
X12465301Y-11676674D02*
X12474825Y-11686198D01*
X12474825Y-11686198D02*
X12484349Y-11705246D01*
X12484349Y-11705246D02*
X12484349Y-11762388D01*
X12484349Y-11762388D02*
X12474825Y-11781436D01*
X12474825Y-11781436D02*
X12465301Y-11790960D01*
X12465301Y-11790960D02*
X12446253Y-11800484D01*
X12446253Y-11800484D02*
X12417682Y-11800484D01*
X12541492Y-11667150D02*
X12617682Y-11667150D01*
X12570063Y-11600484D02*
X12570063Y-11771912D01*
X12570063Y-11771912D02*
X12579587Y-11790960D01*
X12579587Y-11790960D02*
X12598634Y-11800484D01*
X12598634Y-11800484D02*
X12617682Y-11800484D01*
X12836730Y-11667150D02*
X12836730Y-11867150D01*
X12836730Y-11676674D02*
X12855777Y-11667150D01*
X12855777Y-11667150D02*
X12893873Y-11667150D01*
X12893873Y-11667150D02*
X12912920Y-11676674D01*
X12912920Y-11676674D02*
X12922444Y-11686198D01*
X12922444Y-11686198D02*
X12931968Y-11705246D01*
X12931968Y-11705246D02*
X12931968Y-11762388D01*
X12931968Y-11762388D02*
X12922444Y-11781436D01*
X12922444Y-11781436D02*
X12912920Y-11790960D01*
X12912920Y-11790960D02*
X12893873Y-11800484D01*
X12893873Y-11800484D02*
X12855777Y-11800484D01*
X12855777Y-11800484D02*
X12836730Y-11790960D01*
X13046253Y-11800484D02*
X13027206Y-11790960D01*
X13027206Y-11790960D02*
X13017682Y-11771912D01*
X13017682Y-11771912D02*
X13017682Y-11600484D01*
X13208158Y-11800484D02*
X13208158Y-11695722D01*
X13208158Y-11695722D02*
X13198634Y-11676674D01*
X13198634Y-11676674D02*
X13179587Y-11667150D01*
X13179587Y-11667150D02*
X13141492Y-11667150D01*
X13141492Y-11667150D02*
X13122444Y-11676674D01*
X13208158Y-11790960D02*
X13189111Y-11800484D01*
X13189111Y-11800484D02*
X13141492Y-11800484D01*
X13141492Y-11800484D02*
X13122444Y-11790960D01*
X13122444Y-11790960D02*
X13112920Y-11771912D01*
X13112920Y-11771912D02*
X13112920Y-11752865D01*
X13112920Y-11752865D02*
X13122444Y-11733817D01*
X13122444Y-11733817D02*
X13141492Y-11724293D01*
X13141492Y-11724293D02*
X13189111Y-11724293D01*
X13189111Y-11724293D02*
X13208158Y-11714769D01*
X13274825Y-11667150D02*
X13351015Y-11667150D01*
X13303396Y-11600484D02*
X13303396Y-11771912D01*
X13303396Y-11771912D02*
X13312920Y-11790960D01*
X13312920Y-11790960D02*
X13331968Y-11800484D01*
X13331968Y-11800484D02*
X13351015Y-11800484D01*
X13493873Y-11790960D02*
X13474825Y-11800484D01*
X13474825Y-11800484D02*
X13436730Y-11800484D01*
X13436730Y-11800484D02*
X13417682Y-11790960D01*
X13417682Y-11790960D02*
X13408158Y-11771912D01*
X13408158Y-11771912D02*
X13408158Y-11695722D01*
X13408158Y-11695722D02*
X13417682Y-11676674D01*
X13417682Y-11676674D02*
X13436730Y-11667150D01*
X13436730Y-11667150D02*
X13474825Y-11667150D01*
X13474825Y-11667150D02*
X13493873Y-11676674D01*
X13493873Y-11676674D02*
X13503396Y-11695722D01*
X13503396Y-11695722D02*
X13503396Y-11714769D01*
X13503396Y-11714769D02*
X13408158Y-11733817D01*
X13674825Y-11800484D02*
X13674825Y-11600484D01*
X13674825Y-11790960D02*
X13655777Y-11800484D01*
X13655777Y-11800484D02*
X13617682Y-11800484D01*
X13617682Y-11800484D02*
X13598634Y-11790960D01*
X13598634Y-11790960D02*
X13589111Y-11781436D01*
X13589111Y-11781436D02*
X13579587Y-11762388D01*
X13579587Y-11762388D02*
X13579587Y-11705246D01*
X13579587Y-11705246D02*
X13589111Y-11686198D01*
X13589111Y-11686198D02*
X13598634Y-11676674D01*
X13598634Y-11676674D02*
X13617682Y-11667150D01*
X13617682Y-11667150D02*
X13655777Y-11667150D01*
X13655777Y-11667150D02*
X13674825Y-11676674D01*
X13751015Y-11876674D02*
X13760539Y-11867150D01*
X13760539Y-11867150D02*
X13779587Y-11838579D01*
X13779587Y-11838579D02*
X13789111Y-11819531D01*
X13789111Y-11819531D02*
X13798634Y-11790960D01*
X13798634Y-11790960D02*
X13808158Y-11743341D01*
X13808158Y-11743341D02*
X13808158Y-11705246D01*
X13808158Y-11705246D02*
X13798634Y-11657627D01*
X13798634Y-11657627D02*
X13789111Y-11629055D01*
X13789111Y-11629055D02*
X13779587Y-11610008D01*
X13779587Y-11610008D02*
X13760539Y-11581436D01*
X13760539Y-11581436D02*
X13751015Y-11571912D01*
M02*
